_Ubuntu-Regular.ufo
<glyph name="exclam" format="2">
  <advance width="277.99"/>
  <unicode hex="0021"/>
  <outline>
    <contour>
      <point x="110" y="216" type="curve"/>
      <point x="168" y="216" type="line"/>
      <point x="180" y="307"/>
      <point x="189" y="393"/>
      <point x="189" y="505" type="curve" smooth="yes"/>
      <point x="189" y="693" type="line"/>
      <point x="89" y="693" type="line"/>
      <point x="89" y="505" type="line" smooth="yes"/>
      <point x="89" y="393"/>
      <point x="98" y="307"/>
    </contour>
    <contour>
      <point x="139" y="-12" type="curve" smooth="yes"/>
      <point x="178" y="-12"/>
      <point x="207" y="15"/>
      <point x="207" y="55" type="curve" smooth="yes"/>
      <point x="207" y="95"/>
      <point x="178" y="122"/>
      <point x="139" y="122" type="curve" smooth="yes"/>
      <point x="100" y="122"/>
      <point x="71" y="95"/>
      <point x="71" y="55" type="curve" smooth="yes"/>
      <point x="71" y="15"/>
      <point x="100" y="-12"/>
    </contour>
  </outline>
</glyph>
<glyph name="numbersign" format="2">
  <advance width="668.295"/>
  <unicode hex="0023"/>
  <outline>
    <contour>
      <point x="102" y="0" type="line"/>
      <point x="186" y="0" type="line"/>
      <point x="222" y="183" type="line"/>
      <point x="384" y="183" type="line"/>
      <point x="348" y="0" type="line"/>
      <point x="432" y="0" type="line"/>
      <point x="468" y="183" type="line"/>
      <point x="619" y="183" type="line"/>
      <point x="619" y="257" type="line"/>
      <point x="482" y="257" type="line"/>
      <point x="516" y="436" type="line"/>
      <point x="619" y="436" type="line"/>
      <point x="619" y="510" type="line"/>
      <point x="530" y="510" type="line"/>
      <point x="565" y="693" type="line"/>
      <point x="481" y="693" type="line"/>
      <point x="446" y="510" type="line"/>
      <point x="284" y="510" type="line"/>
      <point x="319" y="693" type="line"/>
      <point x="235" y="693" type="line"/>
      <point x="200" y="510" type="line"/>
      <point x="50" y="510" type="line"/>
      <point x="50" y="436" type="line"/>
      <point x="186" y="436" type="line"/>
      <point x="152" y="257" type="line"/>
      <point x="50" y="257" type="line"/>
      <point x="50" y="183" type="line"/>
      <point x="138" y="183" type="line"/>
    </contour>
    <contour>
      <point x="236" y="257" type="line"/>
      <point x="270" y="436" type="line"/>
      <point x="432" y="436" type="line"/>
      <point x="398" y="257" type="line"/>
    </contour>
  </outline>
</glyph>
<glyph name="dollar" format="2">
  <advance width="565.33"/>
  <unicode hex="0024"/>
  <outline>
    <contour>
      <point x="244" y="-109" type="line"/>
      <point x="325" y="-109" type="line"/>
      <point x="325" y="20" type="line"/>
      <point x="440" y="32"/>
      <point x="499" y="100"/>
      <point x="499" y="189" type="curve" smooth="yes"/>
      <point x="499" y="305"/>
      <point x="412" y="347"/>
      <point x="308" y="385" type="curve" smooth="yes"/>
      <point x="223" y="416"/>
      <point x="174" y="434"/>
      <point x="174" y="498" type="curve" smooth="yes"/>
      <point x="174" y="554"/>
      <point x="214" y="586"/>
      <point x="299" y="586" type="curve" smooth="yes"/>
      <point x="370" y="586"/>
      <point x="418" y="569"/>
      <point x="448" y="557" type="curve"/>
      <point x="469" y="634" type="line"/>
      <point x="438" y="647"/>
      <point x="389" y="661"/>
      <point x="325" y="664" type="curve"/>
      <point x="325" y="776" type="line"/>
      <point x="244" y="776" type="line"/>
      <point x="244" y="661" type="line"/>
      <point x="130" y="643"/>
      <point x="77" y="582"/>
      <point x="77" y="487" type="curve" smooth="yes"/>
      <point x="77" y="383"/>
      <point x="164" y="345"/>
      <point x="241" y="317" type="curve" smooth="yes"/>
      <point x="339" y="281"/>
      <point x="401" y="259"/>
      <point x="401" y="184" type="curve" smooth="yes"/>
      <point x="401" y="132"/>
      <point x="367" y="95"/>
      <point x="270" y="95" type="curve" smooth="yes"/>
      <point x="181" y="95"/>
      <point x="128" y="117"/>
      <point x="89" y="136" type="curve"/>
      <point x="62" y="61" type="line"/>
      <point x="91" y="44"/>
      <point x="151" y="20"/>
      <point x="244" y="17" type="curve"/>
    </contour>
  </outline>
</glyph>
<glyph name="percent" format="2">
  <advance width="859.9275"/>
  <unicode hex="0025"/>
  <outline>
    <contour>
      <point x="188" y="0" type="line"/>
      <point x="278" y="0" type="line"/>
      <point x="672" y="693" type="line"/>
      <point x="581" y="693" type="line"/>
    </contour>
    <contour>
      <point x="210" y="340" type="curve" smooth="yes"/>
      <point x="299" y="340"/>
      <point x="369" y="405"/>
      <point x="369" y="524" type="curve"/>
      <point x="369" y="644"/>
      <point x="299" y="708"/>
      <point x="210" y="708" type="curve"/>
      <point x="121" y="708"/>
      <point x="51" y="644"/>
      <point x="51" y="524" type="curve" smooth="yes"/>
      <point x="51" y="405"/>
      <point x="121" y="340"/>
    </contour>
    <contour>
      <point x="210" y="408" type="curve" smooth="yes"/>
      <point x="157" y="408"/>
      <point x="128" y="452"/>
      <point x="128" y="524" type="curve"/>
      <point x="128" y="597"/>
      <point x="157" y="641"/>
      <point x="210" y="641" type="curve" smooth="yes"/>
      <point x="262" y="641"/>
      <point x="292" y="597"/>
      <point x="292" y="524" type="curve"/>
      <point x="292" y="452"/>
      <point x="262" y="408"/>
    </contour>
    <contour>
      <point x="650" y="-15" type="curve" smooth="yes"/>
      <point x="739" y="-15"/>
      <point x="809" y="49"/>
      <point x="809" y="169" type="curve" smooth="yes"/>
      <point x="809" y="288"/>
      <point x="739" y="353"/>
      <point x="650" y="353" type="curve" smooth="yes"/>
      <point x="561" y="353"/>
      <point x="491" y="288"/>
      <point x="491" y="169" type="curve"/>
      <point x="491" y="49"/>
      <point x="561" y="-15"/>
    </contour>
    <contour>
      <point x="650" y="52" type="curve" smooth="yes"/>
      <point x="597" y="52"/>
      <point x="568" y="96"/>
      <point x="568" y="169" type="curve"/>
      <point x="568" y="241"/>
      <point x="597" y="285"/>
      <point x="650" y="285" type="curve" smooth="yes"/>
      <point x="702" y="285"/>
      <point x="732" y="241"/>
      <point x="732" y="169" type="curve" smooth="yes"/>
      <point x="732" y="96"/>
      <point x="702" y="52"/>
    </contour>
  </outline>
</glyph>
<glyph name="quotesingle" format="2">
  <advance width="242.3275"/>
  <unicode hex="0027"/>
  <outline>
    <contour>
      <point x="93" y="501" type="curve"/>
      <point x="148" y="501" type="line"/>
      <point x="160" y="572"/>
      <point x="170" y="645"/>
      <point x="170" y="710" type="curve"/>
      <point x="170" y="760" type="line"/>
      <point x="73" y="760" type="line"/>
      <point x="73" y="711" type="line"/>
      <point x="73" y="644"/>
      <point x="81" y="572"/>
    </contour>
  </outline>
</glyph>
<glyph name="parenleft" format="2">
  <advance width="325.295"/>
  <unicode hex="0028"/>
  <outline>
    <contour>
      <point x="252" y="-185" type="curve"/>
      <point x="318" y="-141" type="line"/>
      <point x="221" y="-17"/>
      <point x="172" y="128"/>
      <point x="172" y="299" type="curve"/>
      <point x="172" y="470"/>
      <point x="221" y="615"/>
      <point x="318" y="739" type="curve"/>
      <point x="252" y="783" type="line"/>
      <point x="147" y="655"/>
      <point x="79" y="488"/>
      <point x="79" y="299" type="curve" smooth="yes"/>
      <point x="79" y="110"/>
      <point x="147" y="-57"/>
    </contour>
  </outline>
</glyph>
<glyph name="parenright" format="2">
  <advance width="325.295"/>
  <unicode hex="0029"/>
  <outline>
    <contour>
      <point x="74" y="-185" type="line"/>
      <point x="178" y="-57"/>
      <point x="247" y="110"/>
      <point x="247" y="299" type="curve" smooth="yes"/>
      <point x="247" y="488"/>
      <point x="178" y="655"/>
      <point x="74" y="783" type="curve"/>
      <point x="8" y="739" type="line"/>
      <point x="104" y="615"/>
      <point x="154" y="470"/>
      <point x="154" y="299" type="curve"/>
      <point x="154" y="128"/>
      <point x="104" y="-17"/>
      <point x="8" y="-141" type="curve"/>
    </contour>
  </outline>
</glyph>
<glyph name="asterisk" format="2">
  <advance width="481.975"/>
  <unicode hex="002A"/>
  <outline>
    <contour>
      <point x="161" y="309" type="line"/>
      <point x="199" y="361"/>
      <point x="216" y="402"/>
      <point x="241" y="460" type="curve"/>
      <point x="266" y="402"/>
      <point x="283" y="361"/>
      <point x="321" y="309" type="curve"/>
      <point x="394" y="361" type="line"/>
      <point x="353" y="415"/>
      <point x="324" y="441"/>
      <point x="274" y="484" type="curve"/>
      <point x="340" y="490"/>
      <point x="377" y="493"/>
      <point x="443" y="513" type="curve"/>
      <point x="415" y="598" type="line"/>
      <point x="354" y="578"/>
      <point x="315" y="555"/>
      <point x="262" y="524" type="curve"/>
      <point x="280" y="607"/>
      <point x="284" y="625"/>
      <point x="285" y="693" type="curve"/>
      <point x="197" y="693" type="line"/>
      <point x="198" y="625"/>
      <point x="201" y="609"/>
      <point x="220" y="524" type="curve"/>
      <point x="166" y="556"/>
      <point x="129" y="577"/>
      <point x="67" y="598" type="curve"/>
      <point x="39" y="513" type="line"/>
      <point x="105" y="493"/>
      <point x="142" y="490"/>
      <point x="208" y="484" type="curve"/>
      <point x="158" y="441"/>
      <point x="129" y="415"/>
      <point x="88" y="361" type="curve"/>
    </contour>
  </outline>
</glyph>
<glyph name="plus" format="2">
  <advance width="565.33"/>
  <unicode hex="002B"/>
  <outline>
    <contour>
      <point x="241" y="46" type="line"/>
      <point x="325" y="46" type="line"/>
      <point x="325" y="253" type="line"/>
      <point x="512" y="253" type="line"/>
      <point x="512" y="332" type="line"/>
      <point x="325" y="332" type="line"/>
      <point x="325" y="538" type="line"/>
      <point x="241" y="538" type="line"/>
      <point x="241" y="332" type="line"/>
      <point x="54" y="332" type="line"/>
      <point x="54" y="253" type="line"/>
      <point x="241" y="253" type="line"/>
    </contour>
  </outline>
</glyph>
<glyph name="comma" format="2">
  <advance width="246"/>
  <unicode hex="002C"/>
  <outline>
    <contour>
      <point x="109" y="-160" type="line"/>
      <point x="154" y="-89"/>
      <point x="180" y="-3"/>
      <point x="180" y="78" type="curve" smooth="yes"/>
      <point x="180" y="85"/>
      <point x="180" y="95"/>
      <point x="178" y="114" type="curve"/>
      <point x="78" y="114" type="line"/>
      <point x="78" y="102"/>
      <point x="80" y="82"/>
      <point x="80" y="66" type="curve" smooth="yes"/>
      <point x="80" y="3"/>
      <point x="69" y="-68"/>
      <point x="38" y="-136" type="curve"/>
    </contour>
  </outline>
</glyph>
<glyph name="period" format="2">
  <advance width="246"/>
  <unicode hex="002E"/>
  <outline>
    <contour>
      <point x="123" y="-12" type="curve" smooth="yes"/>
      <point x="162" y="-12"/>
      <point x="191" y="15"/>
      <point x="191" y="55" type="curve" smooth="yes"/>
      <point x="191" y="95"/>
      <point x="162" y="122"/>
      <point x="123" y="122" type="curve" smooth="yes"/>
      <point x="84" y="122"/>
      <point x="55" y="95"/>
      <point x="55" y="55" type="curve" smooth="yes"/>
      <point x="55" y="15"/>
      <point x="84" y="-12"/>
    </contour>
  </outline>
</glyph>
<glyph name="slash" format="2">
  <advance width="384.935"/>
  <unicode hex="002F"/>
  <outline>
    <contour>
      <point x="-24" y="-185" type="line"/>
      <point x="71" y="-185" type="line"/>
      <point x="409" y="783" type="line"/>
      <point x="316" y="783" type="line"/>
    </contour>
  </outline>
</glyph>
<glyph name="zero" format="2">
  <advance width="565.33"/>
  <unicode hex="0030"/>
  <outline>
    <contour>
      <point x="283" y="-15" type="curve" smooth="yes"/>
      <point x="428" y="-15"/>
      <point x="515" y="114"/>
      <point x="515" y="347" type="curve" smooth="yes"/>
      <point x="515" y="579"/>
      <point x="428" y="708"/>
      <point x="283" y="708" type="curve" smooth="yes"/>
      <point x="137" y="708"/>
      <point x="51" y="579"/>
      <point x="51" y="347" type="curve" smooth="yes"/>
      <point x="51" y="114"/>
      <point x="137" y="-15"/>
    </contour>
    <contour>
      <point x="283" y="67" type="curve" smooth="yes"/>
      <point x="181" y="67"/>
      <point x="149" y="194"/>
      <point x="149" y="347" type="curve" smooth="yes"/>
      <point x="149" y="499"/>
      <point x="181" y="626"/>
      <point x="283" y="626" type="curve" smooth="yes"/>
      <point x="384" y="626"/>
      <point x="417" y="499"/>
      <point x="417" y="347" type="curve" smooth="yes"/>
      <point x="417" y="194"/>
      <point x="384" y="67"/>
    </contour>
  </outline>
</glyph>
<glyph name="one" format="2">
  <advance width="565.33"/>
  <unicode hex="0031"/>
  <outline>
    <contour>
      <point x="277" y="0" type="line"/>
      <point x="370" y="0" type="line"/>
      <point x="370" y="693" type="line"/>
      <point x="304" y="693" type="line"/>
      <point x="244" y="623"/>
      <point x="174" y="580"/>
      <point x="95" y="550" type="curve"/>
      <point x="122" y="479" type="line"/>
      <point x="180" y="497"/>
      <point x="245" y="533"/>
      <point x="277" y="562" type="curve"/>
    </contour>
  </outline>
</glyph>
<glyph name="two" format="2">
  <advance width="565.33"/>
  <unicode hex="0032"/>
  <outline>
    <contour>
      <point x="72" y="0" type="curve"/>
      <point x="492" y="0" type="line"/>
      <point x="492" y="80" type="line"/>
      <point x="175" y="80" type="line"/>
      <point x="178" y="132"/>
      <point x="244" y="200"/>
      <point x="303" y="256" type="curve" smooth="yes"/>
      <point x="385" y="335"/>
      <point x="469" y="414"/>
      <point x="469" y="518" type="curve" smooth="yes"/>
      <point x="469" y="636"/>
      <point x="400" y="708"/>
      <point x="256" y="708" type="curve" smooth="yes"/>
      <point x="160" y="708"/>
      <point x="89" y="656"/>
      <point x="58" y="624" type="curve"/>
      <point x="105" y="560" type="line"/>
      <point x="122" y="577"/>
      <point x="176" y="626"/>
      <point x="255" y="626" type="curve"/>
      <point x="322" y="626"/>
      <point x="372" y="594"/>
      <point x="372" y="512" type="curve" smooth="yes"/>
      <point x="372" y="437"/>
      <point x="317" y="385"/>
      <point x="251" y="323" type="curve" smooth="yes"/>
      <point x="169" y="246"/>
      <point x="71" y="160"/>
      <point x="71" y="33" type="curve" smooth="yes"/>
      <point x="71" y="20"/>
      <point x="71" y="7"/>
    </contour>
  </outline>
</glyph>
<glyph name="three" format="2">
  <advance width="565.33"/>
  <unicode hex="0033"/>
  <outline>
    <contour>
      <point x="231" y="-15" type="curve" smooth="yes"/>
      <point x="408" y="-15"/>
      <point x="490" y="75"/>
      <point x="490" y="195" type="curve" smooth="yes"/>
      <point x="490" y="298"/>
      <point x="426" y="354"/>
      <point x="353" y="377" type="curve"/>
      <point x="415" y="400"/>
      <point x="458" y="454"/>
      <point x="458" y="526" type="curve" smooth="yes"/>
      <point x="458" y="631"/>
      <point x="392" y="708"/>
      <point x="246" y="708" type="curve" smooth="yes"/>
      <point x="163" y="708"/>
      <point x="101" y="675"/>
      <point x="69" y="653" type="curve"/>
      <point x="105" y="583" type="line"/>
      <point x="135" y="602"/>
      <point x="175" y="626"/>
      <point x="242" y="626" type="curve" smooth="yes"/>
      <point x="305" y="626"/>
      <point x="363" y="597"/>
      <point x="363" y="521" type="curve" smooth="yes"/>
      <point x="363" y="429"/>
      <point x="284" y="406"/>
      <point x="217" y="406" type="curve" smooth="yes"/>
      <point x="179" y="406" type="line"/>
      <point x="179" y="330" type="line"/>
      <point x="205" y="330" type="line"/>
      <point x="307" y="330"/>
      <point x="393" y="299"/>
      <point x="393" y="197" type="curve" smooth="yes"/>
      <point x="393" y="118"/>
      <point x="345" y="67"/>
      <point x="231" y="67" type="curve" smooth="yes"/>
      <point x="153" y="67"/>
      <point x="97" y="91"/>
      <point x="74" y="103" type="curve"/>
      <point x="53" y="23" type="line"/>
      <point x="77" y="11"/>
      <point x="149" y="-15"/>
    </contour>
  </outline>
</glyph>
<glyph name="five" format="2">
  <advance width="565.33"/>
  <unicode hex="0035"/>
  <outline>
    <contour>
      <point x="238" y="-15" type="curve"/>
      <point x="410" y="-15"/>
      <point x="492" y="77"/>
      <point x="492" y="198" type="curve" smooth="yes"/>
      <point x="492" y="334"/>
      <point x="401" y="418"/>
      <point x="199" y="426" type="curve"/>
      <point x="205" y="467"/>
      <point x="212" y="564"/>
      <point x="214" y="613" type="curve"/>
      <point x="467" y="613" type="line"/>
      <point x="467" y="693" type="line"/>
      <point x="134" y="693" type="line"/>
      <point x="131" y="584"/>
      <point x="124" y="481"/>
      <point x="109" y="350" type="curve"/>
      <point x="335" y="350"/>
      <point x="395" y="293"/>
      <point x="395" y="196" type="curve" smooth="yes"/>
      <point x="395" y="125"/>
      <point x="356" y="67"/>
      <point x="236" y="67" type="curve" smooth="yes"/>
      <point x="162" y="67"/>
      <point x="103" y="90"/>
      <point x="81" y="101" type="curve"/>
      <point x="61" y="22" type="line"/>
      <point x="83" y="10"/>
      <point x="157" y="-15"/>
    </contour>
  </outline>
</glyph>
<glyph name="six" format="2">
  <advance width="565.33"/>
  <unicode hex="0036"/>
  <outline>
    <contour>
      <point x="297" y="-15" type="curve" smooth="yes"/>
      <point x="446" y="-15"/>
      <point x="514" y="106"/>
      <point x="514" y="211" type="curve" smooth="yes"/>
      <point x="514" y="325"/>
      <point x="455" y="425"/>
      <point x="298" y="425" type="curve" smooth="yes"/>
      <point x="251" y="425"/>
      <point x="205" y="412"/>
      <point x="171" y="395" type="curve"/>
      <point x="203" y="556"/>
      <point x="317" y="612"/>
      <point x="470" y="619" type="curve"/>
      <point x="465" y="697" type="line"/>
      <point x="211" y="689"/>
      <point x="64" y="546"/>
      <point x="64" y="278" type="curve" smooth="yes"/>
      <point x="64" y="95"/>
      <point x="144" y="-15"/>
    </contour>
    <contour>
      <point x="296" y="65" type="curve" smooth="yes"/>
      <point x="189" y="65"/>
      <point x="160" y="162"/>
      <point x="160" y="278" type="curve" smooth="yes"/>
      <point x="160" y="292"/>
      <point x="161" y="303"/>
      <point x="162" y="320" type="curve"/>
      <point x="195" y="335"/>
      <point x="237" y="348"/>
      <point x="287" y="348" type="curve"/>
      <point x="375" y="348"/>
      <point x="418" y="302"/>
      <point x="418" y="209" type="curve" smooth="yes"/>
      <point x="418" y="137"/>
      <point x="384" y="65"/>
    </contour>
  </outline>
</glyph>
<glyph name="seven" format="2">
  <advance width="565.33"/>
  <unicode hex="0037"/>
  <outline>
    <contour>
      <point x="164" y="0" type="curve"/>
      <point x="260" y="0" type="line"/>
      <point x="276" y="248"/>
      <point x="414" y="516"/>
      <point x="503" y="619" type="curve"/>
      <point x="503" y="693" type="line"/>
      <point x="60" y="693" type="line"/>
      <point x="60" y="611" type="line"/>
      <point x="397" y="611" type="line"/>
      <point x="296" y="490"/>
      <point x="179" y="213"/>
    </contour>
  </outline>
</glyph>
<glyph name="eight" format="2">
  <advance width="565.33"/>
  <unicode hex="0038"/>
  <outline>
    <contour>
      <point x="282" y="-15" type="curve" smooth="yes"/>
      <point x="424" y="-15"/>
      <point x="509" y="68"/>
      <point x="509" y="184" type="curve" smooth="yes"/>
      <point x="509" y="253"/>
      <point x="477" y="312"/>
      <point x="389" y="355" type="curve"/>
      <point x="440" y="386"/>
      <point x="492" y="446"/>
      <point x="492" y="526" type="curve" smooth="yes"/>
      <point x="492" y="615"/>
      <point x="430" y="708"/>
      <point x="283" y="708" type="curve" smooth="yes"/>
      <point x="158" y="708"/>
      <point x="72" y="628"/>
      <point x="72" y="515" type="curve" smooth="yes"/>
      <point x="72" y="449"/>
      <point x="97" y="399"/>
      <point x="170" y="356" type="curve"/>
      <point x="111" y="320"/>
      <point x="57" y="265"/>
      <point x="57" y="176" type="curve" smooth="yes"/>
      <point x="57" y="78"/>
      <point x="134" y="-15"/>
    </contour>
    <contour>
      <point x="283" y="63" type="curve" smooth="yes"/>
      <point x="193" y="63"/>
      <point x="151" y="118"/>
      <point x="151" y="178" type="curve" smooth="yes"/>
      <point x="151" y="246"/>
      <point x="187" y="294"/>
      <point x="245" y="325" type="curve"/>
      <point x="330" y="298"/>
      <point x="414" y="276"/>
      <point x="414" y="178" type="curve" smooth="yes"/>
      <point x="414" y="115"/>
      <point x="372" y="63"/>
    </contour>
    <contour>
      <point x="310" y="382" type="curve"/>
      <point x="193" y="416"/>
      <point x="166" y="458"/>
      <point x="166" y="522" type="curve" smooth="yes"/>
      <point x="166" y="578"/>
      <point x="204" y="631"/>
      <point x="283" y="631" type="curve" smooth="yes"/>
      <point x="366" y="631"/>
      <point x="399" y="575"/>
      <point x="399" y="525" type="curve" smooth="yes"/>
      <point x="399" y="457"/>
      <point x="365" y="414"/>
    </contour>
  </outline>
</glyph>
<glyph name="nine" format="2">
  <advance width="565.33"/>
  <unicode hex="0039"/>
  <outline>
    <contour>
      <point x="94" y="-2" type="line"/>
      <point x="365" y="-1"/>
      <point x="502" y="141"/>
      <point x="502" y="413" type="curve" smooth="yes"/>
      <point x="502" y="600"/>
      <point x="421" y="709"/>
      <point x="267" y="709" type="curve" smooth="yes"/>
      <point x="117" y="709"/>
      <point x="51" y="587"/>
      <point x="51" y="483" type="curve" smooth="yes"/>
      <point x="51" y="367"/>
      <point x="112" y="271"/>
      <point x="269" y="271" type="curve" smooth="yes"/>
      <point x="315" y="271"/>
      <point x="363" y="285"/>
      <point x="396" y="301" type="curve"/>
      <point x="368" y="138"/>
      <point x="259" y="76"/>
      <point x="91" y="75" type="curve"/>
    </contour>
    <contour>
      <point x="278" y="348" type="curve" smooth="yes"/>
      <point x="191" y="348"/>
      <point x="147" y="393"/>
      <point x="147" y="487" type="curve" smooth="yes"/>
      <point x="147" y="558"/>
      <point x="181" y="629"/>
      <point x="269" y="629" type="curve" smooth="yes"/>
      <point x="376" y="629"/>
      <point x="405" y="532"/>
      <point x="405" y="417" type="curve" smooth="yes"/>
      <point x="405" y="402"/>
      <point x="404" y="391"/>
      <point x="403" y="377" type="curve"/>
      <point x="371" y="361"/>
      <point x="329" y="348"/>
    </contour>
  </outline>
</glyph>
<glyph name="less" format="2">
  <advance width="565.33"/>
  <unicode hex="003C"/>
  <outline>
    <contour>
      <point x="485" y="69" type="line"/>
      <point x="512" y="146" type="line"/>
      <point x="156" y="292" type="line"/>
      <point x="512" y="438" type="line"/>
      <point x="485" y="515" type="line"/>
      <point x="53" y="332" type="line"/>
      <point x="53" y="252" type="line"/>
    </contour>
  </outline>
</glyph>
<glyph name="equal" format="2">
  <advance width="565.33"/>
  <unicode hex="003D"/>
  <outline>
    <contour>
      <point x="54" y="359" type="line"/>
      <point x="512" y="359" type="line"/>
      <point x="512" y="438" type="line"/>
      <point x="54" y="438" type="line"/>
    </contour>
    <contour>
      <point x="54" y="146" type="line"/>
      <point x="512" y="146" type="line"/>
      <point x="512" y="225" type="line"/>
      <point x="54" y="225" type="line"/>
    </contour>
  </outline>
</glyph>
<glyph name="greater" format="2">
  <advance width="565.33"/>
  <unicode hex="003E"/>
  <outline>
    <contour>
      <point x="79" y="69" type="line"/>
      <point x="511" y="252" type="line"/>
      <point x="511" y="332" type="line"/>
      <point x="79" y="515" type="line"/>
      <point x="53" y="438" type="line"/>
      <point x="409" y="292" type="line"/>
      <point x="53" y="146" type="line"/>
    </contour>
  </outline>
</glyph>
<glyph name="question" format="2">
  <advance width="404.9375"/>
  <unicode hex="003F"/>
  <outline>
    <contour>
      <point x="127" y="216" type="curve"/>
      <point x="206" y="216" type="line"/>
      <point x="205" y="223"/>
      <point x="205" y="231"/>
      <point x="205" y="242" type="curve"/>
      <point x="205" y="367"/>
      <point x="378" y="408"/>
      <point x="378" y="550" type="curve" smooth="yes"/>
      <point x="378" y="621"/>
      <point x="335" y="708"/>
      <point x="184" y="708" type="curve" smooth="yes"/>
      <point x="119" y="708"/>
      <point x="56" y="690"/>
      <point x="20" y="668" type="curve"/>
      <point x="47" y="595" type="line"/>
      <point x="89" y="617"/>
      <point x="128" y="627"/>
      <point x="174" y="627" type="curve"/>
      <point x="234" y="627"/>
      <point x="279" y="606"/>
      <point x="279" y="545" type="curve" smooth="yes"/>
      <point x="279" y="437"/>
      <point x="123" y="396"/>
      <point x="123" y="260" type="curve" smooth="yes"/>
      <point x="123" y="246"/>
      <point x="124" y="229"/>
    </contour>
    <contour>
      <point x="170" y="-12" type="curve" smooth="yes"/>
      <point x="209" y="-12"/>
      <point x="238" y="15"/>
      <point x="238" y="55" type="curve" smooth="yes"/>
      <point x="238" y="95"/>
      <point x="209" y="122"/>
      <point x="170" y="122" type="curve" smooth="yes"/>
      <point x="132" y="122"/>
      <point x="103" y="95"/>
      <point x="103" y="55" type="curve" smooth="yes"/>
      <point x="103" y="15"/>
      <point x="132" y="-12"/>
    </contour>
  </outline>
</glyph>
<glyph name="at" format="2">
  <advance width="951.305"/>
  <unicode hex="0040"/>
  <outline>
    <contour>
      <point x="500" y="-155" type="curve" smooth="yes"/>
      <point x="566" y="-155"/>
      <point x="631" y="-143"/>
      <point x="657" y="-135" type="curve"/>
      <point x="647" y="-67" type="line"/>
      <point x="625" y="-73"/>
      <point x="574" y="-83"/>
      <point x="500" y="-83" type="curve" smooth="yes"/>
      <point x="295" y="-83"/>
      <point x="147" y="39"/>
      <point x="147" y="278" type="curve" smooth="yes"/>
      <point x="147" y="505"/>
      <point x="286" y="638"/>
      <point x="484" y="638" type="curve" smooth="yes"/>
      <point x="685" y="638"/>
      <point x="805" y="500"/>
      <point x="805" y="329" type="curve" smooth="yes"/>
      <point x="805" y="220"/>
      <point x="777" y="119"/>
      <point x="702" y="119" type="curve" smooth="yes"/>
      <point x="675" y="119"/>
      <point x="657" y="135"/>
      <point x="657" y="180" type="curve"/>
      <point x="657" y="480" type="line"/>
      <point x="625" y="493"/>
      <point x="568" y="508"/>
      <point x="499" y="508" type="curve" smooth="yes"/>
      <point x="354" y="508"/>
      <point x="272" y="407"/>
      <point x="272" y="278" type="curve" smooth="yes"/>
      <point x="272" y="123"/>
      <point x="362" y="48"/>
      <point x="488" y="48" type="curve" smooth="yes"/>
      <point x="536" y="48"/>
      <point x="577" y="64"/>
      <point x="603" y="82" type="curve"/>
      <point x="619" y="63"/>
      <point x="651" y="48"/>
      <point x="692" y="48" type="curve" smooth="yes"/>
      <point x="804" y="48"/>
      <point x="887" y="144"/>
      <point x="887" y="325" type="curve" smooth="yes"/>
      <point x="887" y="564"/>
      <point x="708" y="710"/>
      <point x="484" y="710" type="curve" smooth="yes"/>
      <point x="261" y="710"/>
      <point x="65" y="567"/>
      <point x="65" y="278" type="curve" smooth="yes"/>
      <point x="65" y="-22"/>
      <point x="260" y="-155"/>
    </contour>
    <contour>
      <point x="491" y="120" type="curve" smooth="yes"/>
      <point x="411" y="120"/>
      <point x="361" y="174"/>
      <point x="361" y="278" type="curve" smooth="yes"/>
      <point x="361" y="370"/>
      <point x="409" y="437"/>
      <point x="506" y="437" type="curve" smooth="yes"/>
      <point x="539" y="437"/>
      <point x="559" y="432"/>
      <point x="571" y="429" type="curve"/>
      <point x="571" y="192" type="line"/>
      <point x="571" y="176"/>
      <point x="572" y="152"/>
      <point x="577" y="140" type="curve"/>
      <point x="552" y="126"/>
      <point x="530" y="120"/>
    </contour>
  </outline>
</glyph>
<glyph name="A" format="2">
  <advance width="667.6"/>
  <unicode hex="0041"/>
  <anchor x="334" y="0" name="bottom"/>
  <anchor x="601" y="10" name="ogonek"/>
  <anchor x="334" y="693" name="top"/>
  <outline>
    <contour>
      <point x="10" y="0" type="curve"/>
      <point x="111" y="0" type="line"/>
      <point x="132" y="61"/>
      <point x="154" y="120"/>
      <point x="174" y="177" type="curve"/>
      <point x="489" y="177" type="line"/>
      <point x="509" y="120"/>
      <point x="530" y="61"/>
      <point x="552" y="0" type="curve"/>
      <point x="658" y="0" type="line"/>
      <point x="551" y="292"/>
      <point x="474" y="493"/>
      <point x="378" y="693" type="curve"/>
      <point x="289" y="693" type="line"/>
      <point x="192" y="493"/>
      <point x="116.002" y="291.993"/>
    </contour>
    <contour>
      <point x="200" y="257" type="line"/>
      <point x="248" y="387"/>
      <point x="293" y="499"/>
      <point x="331" y="589" type="curve"/>
      <point x="370" y="499"/>
      <point x="414" y="387"/>
      <point x="463" y="257" type="curve"/>
    </contour>
  </outline>
</glyph>
<glyph name="B" format="2">
  <advance width="643.965"/>
  <unicode hex="0042"/>
  <anchor x="322" y="0" name="bottom"/>
  <anchor x="322" y="347" name="center"/>
  <anchor x="322" y="693" name="top"/>
  <outline>
    <contour>
      <point x="274" y="-7" type="curve" smooth="yes"/>
      <point x="489" y="-7"/>
      <point x="592" y="64"/>
      <point x="592" y="200" type="curve" smooth="yes"/>
      <point x="592" y="297"/>
      <point x="544" y="347"/>
      <point x="462" y="371" type="curve"/>
      <point x="521" y="395"/>
      <point x="558" y="447"/>
      <point x="558" y="515" type="curve" smooth="yes"/>
      <point x="558" y="655"/>
      <point x="431" y="700"/>
      <point x="272" y="700" type="curve" smooth="yes"/>
      <point x="217" y="700"/>
      <point x="140" y="694"/>
      <point x="87" y="681" type="curve"/>
      <point x="87" y="12" type="line"/>
      <point x="140" y="-1"/>
      <point x="218" y="-7"/>
    </contour>
    <contour>
      <point x="280" y="74" type="curve" smooth="yes"/>
      <point x="242" y="74"/>
      <point x="204" y="77"/>
      <point x="183" y="80" type="curve"/>
      <point x="183" y="322" type="line"/>
      <point x="311" y="322" type="line" smooth="yes"/>
      <point x="424" y="322"/>
      <point x="492" y="294"/>
      <point x="492" y="202" type="curve" smooth="yes"/>
      <point x="492" y="100"/>
      <point x="394" y="74"/>
    </contour>
    <contour>
      <point x="183" y="400" type="line"/>
      <point x="183" y="613" type="line"/>
      <point x="205" y="617"/>
      <point x="239" y="619"/>
      <point x="281" y="619" type="curve" smooth="yes"/>
      <point x="390" y="619"/>
      <point x="461" y="590"/>
      <point x="461" y="511" type="curve" smooth="yes"/>
      <point x="461" y="425"/>
      <point x="395" y="400"/>
      <point x="296" y="400" type="curve" smooth="yes"/>
    </contour>
  </outline>
</glyph>
<glyph name="C" format="2">
  <advance width="621.9675"/>
  <unicode hex="0043"/>
  <anchor x="311" y="0" name="bottom"/>
  <anchor x="311" y="693" name="top"/>
  <outline>
    <contour>
      <point x="384" y="-15" type="curve" smooth="yes"/>
      <point x="493" y="-15"/>
      <point x="569" y="13"/>
      <point x="597" y="30" type="curve"/>
      <point x="570" y="110" type="line"/>
      <point x="538" y="94"/>
      <point x="482" y="72"/>
      <point x="393" y="72" type="curve" smooth="yes"/>
      <point x="238" y="72"/>
      <point x="160" y="183"/>
      <point x="160" y="347" type="curve" smooth="yes"/>
      <point x="160" y="519"/>
      <point x="250" y="622"/>
      <point x="397" y="622" type="curve" smooth="yes"/>
      <point x="471" y="622"/>
      <point x="524" y="600"/>
      <point x="560" y="579" type="curve"/>
      <point x="590" y="660" type="line"/>
      <point x="567" y="674"/>
      <point x="498" y="708"/>
      <point x="389" y="708" type="curve" smooth="yes"/>
      <point x="210" y="708"/>
      <point x="58" y="579"/>
      <point x="58" y="347" type="curve" smooth="yes"/>
      <point x="58" y="115"/>
      <point x="190" y="-15"/>
    </contour>
  </outline>
</glyph>
<glyph name="D" format="2">
  <advance width="713.6375"/>
  <unicode hex="0044"/>
  <anchor x="357" y="0" name="bottom"/>
  <anchor x="357" y="347" name="center"/>
  <anchor x="357" y="693" name="top"/>
  <outline>
    <contour>
      <point x="269" y="-7" type="curve" smooth="yes"/>
      <point x="500" y="-7"/>
      <point x="656" y="110"/>
      <point x="656" y="347" type="curve" smooth="yes"/>
      <point x="656" y="587"/>
      <point x="499" y="700"/>
      <point x="270" y="700" type="curve" smooth="yes"/>
      <point x="214" y="700"/>
      <point x="141" y="694"/>
      <point x="87" y="681" type="curve"/>
      <point x="87" y="11" type="line"/>
      <point x="141" y="-2"/>
      <point x="213" y="-7"/>
    </contour>
    <contour>
      <point x="277" y="77" type="curve" smooth="yes"/>
      <point x="220" y="77"/>
      <point x="194" y="81"/>
      <point x="184" y="82" type="curve"/>
      <point x="184" y="610" type="line"/>
      <point x="196" y="612"/>
      <point x="223" y="616"/>
      <point x="278" y="616" type="curve" smooth="yes"/>
      <point x="463" y="616"/>
      <point x="554" y="516"/>
      <point x="554" y="347" type="curve" smooth="yes"/>
      <point x="554" y="179"/>
      <point x="461" y="77"/>
    </contour>
  </outline>
</glyph>
<glyph name="E" format="2">
  <advance width="571.9575"/>
  <unicode hex="0045"/>
  <anchor x="286" y="0" name="bottom"/>
  <anchor x="515" y="10" name="ogonek"/>
  <anchor x="286" y="693" name="top"/>
  <anchor x="20" y="693" name="topleft"/>
  <outline>
    <contour>
      <point x="87" y="0" type="line"/>
      <point x="534" y="0" type="line"/>
      <point x="534" y="83" type="line"/>
      <point x="184" y="83" type="line"/>
      <point x="184" y="323" type="line"/>
      <point x="474" y="323" type="line"/>
      <point x="474" y="404" type="line"/>
      <point x="184" y="404" type="line"/>
      <point x="184" y="610" type="line"/>
      <point x="509" y="610" type="line"/>
      <point x="509" y="693" type="line"/>
      <point x="87" y="693" type="line"/>
    </contour>
  </outline>
</glyph>
<glyph name="F" format="2">
  <advance width="537.955"/>
  <unicode hex="0046"/>
  <anchor x="269" y="0" name="bottom"/>
  <anchor x="269" y="693" name="top"/>
  <outline>
    <contour>
      <point x="87" y="0" type="line"/>
      <point x="184" y="0" type="line"/>
      <point x="184" y="316" type="line"/>
      <point x="469" y="316" type="line"/>
      <point x="469" y="399" type="line"/>
      <point x="184" y="399" type="line"/>
      <point x="184" y="610" type="line"/>
      <point x="505" y="610" type="line"/>
      <point x="505" y="693" type="line"/>
      <point x="87" y="693" type="line"/>
    </contour>
  </outline>
</glyph>
<glyph name="H" format="2">
  <advance width="705.965"/>
  <unicode hex="0048"/>
  <anchor x="353" y="0" name="bottom"/>
  <anchor x="353" y="347" name="center"/>
  <anchor x="353" y="693" name="top"/>
  <anchor x="20" y="693" name="topleft"/>
  <outline>
    <contour>
      <point x="87" y="0" type="line"/>
      <point x="184" y="0" type="line"/>
      <point x="184" y="320" type="line"/>
      <point x="522" y="320" type="line"/>
      <point x="522" y="0" type="line"/>
      <point x="619" y="0" type="line"/>
      <point x="619" y="693" type="line"/>
      <point x="522" y="693" type="line"/>
      <point x="522" y="404" type="line"/>
      <point x="184" y="404" type="line"/>
      <point x="184" y="693" type="line"/>
      <point x="87" y="693" type="line"/>
    </contour>
  </outline>
</glyph>
<glyph name="I" format="2">
  <advance width="270.61"/>
  <unicode hex="0049"/>
  <anchor x="135" y="0" name="bottom"/>
  <anchor x="243" y="10" name="ogonek"/>
  <anchor x="135" y="693" name="top"/>
  <anchor x="20" y="693" name="topleft"/>
  <outline>
    <contour>
      <point x="87" y="0" type="line"/>
      <point x="184" y="0" type="line"/>
      <point x="184" y="693" type="line"/>
      <point x="87" y="693" type="line"/>
    </contour>
  </outline>
</glyph>
<glyph name="K" format="2">
  <advance width="627.2625"/>
  <unicode hex="004B"/>
  <anchor x="314" y="0" name="bottom"/>
  <anchor x="314" y="693" name="top"/>
  <outline>
    <contour>
      <point x="87" y="0" type="line"/>
      <point x="184" y="0" type="line"/>
      <point x="184" y="326" type="line"/>
      <point x="296" y="258"/>
      <point x="426" y="123"/>
      <point x="505" y="0" type="curve"/>
      <point x="617" y="0" type="line"/>
      <point x="547" y="125"/>
      <point x="394" y="291"/>
      <point x="279" y="369" type="curve"/>
      <point x="379" y="463"/>
      <point x="514" y="601"/>
      <point x="597" y="693" type="curve"/>
      <point x="480" y="693" type="line"/>
      <point x="413" y="617"/>
      <point x="278" y="480"/>
      <point x="184" y="390" type="curve"/>
      <point x="184" y="693" type="line"/>
      <point x="87" y="693" type="line"/>
    </contour>
  </outline>
</glyph>
<glyph name="L" format="2">
  <advance width="522.2825"/>
  <unicode hex="004C"/>
  <anchor x="261" y="0" name="bottom"/>
  <anchor x="261" y="347" name="center"/>
  <anchor x="261" y="693" name="top"/>
  <anchor x="502" y="693" name="topright"/>
  <outline>
    <contour>
      <point x="87" y="0" type="line"/>
      <point x="504" y="0" type="line"/>
      <point x="504" y="84" type="line"/>
      <point x="184" y="84" type="line"/>
      <point x="184" y="693" type="line"/>
      <point x="87" y="693" type="line"/>
    </contour>
  </outline>
</glyph>
<glyph name="M" format="2">
  <advance width="875.64"/>
  <unicode hex="004D"/>
  <anchor x="438" y="0" name="bottom"/>
  <anchor x="438" y="693" name="top"/>
  <outline>
    <contour>
      <point x="69" y="0" type="curve"/>
      <point x="164" y="0" type="line"/>
      <point x="171" y="187"/>
      <point x="179" y="375"/>
      <point x="194" y="539" type="curve"/>
      <point x="232" y="465"/>
      <point x="359" y="191"/>
      <point x="399" y="96" type="curve"/>
      <point x="476" y="96" type="line"/>
      <point x="515" y="191"/>
      <point x="643" y="465"/>
      <point x="680" y="539" type="curve"/>
      <point x="696" y="375"/>
      <point x="704" y="187"/>
      <point x="710" y="0" type="curve"/>
      <point x="807" y="0" type="line"/>
      <point x="795" y="240"/>
      <point x="780" y="493"/>
      <point x="756" y="693" type="curve"/>
      <point x="671" y="693" type="line"/>
      <point x="602" y="576"/>
      <point x="503" y="356"/>
      <point x="440" y="213" type="curve"/>
      <point x="377" y="356"/>
      <point x="278" y="576"/>
      <point x="209" y="693" type="curve"/>
      <point x="120" y="693" type="line"/>
      <point x="96" y="493"/>
      <point x="80" y="240"/>
    </contour>
  </outline>
</glyph>
<glyph name="N" format="2">
  <advance width="724.6275"/>
  <unicode hex="004E"/>
  <anchor x="363" y="0" name="bottom"/>
  <anchor x="363" y="693" name="top"/>
  <outline>
    <contour>
      <point x="87" y="0" type="line"/>
      <point x="183" y="0" type="line"/>
      <point x="183" y="541" type="line"/>
      <point x="300" y="404"/>
      <point x="475" y="146"/>
      <point x="556" y="0" type="curve"/>
      <point x="638" y="0" type="line"/>
      <point x="638" y="693" type="line"/>
      <point x="542" y="693" type="line"/>
      <point x="542" y="181" type="line"/>
      <point x="454" y="328"/>
      <point x="286" y="562"/>
      <point x="165" y="693" type="curve"/>
      <point x="87" y="693" type="line"/>
    </contour>
  </outline>
</glyph>
<glyph name="O" format="2">
  <advance width="779.32"/>
  <unicode hex="004F"/>
  <anchor x="390" y="0" name="bottom"/>
  <anchor x="390" y="347" name="center"/>
  <anchor x="702" y="10" name="ogonek"/>
  <anchor x="390" y="693" name="top"/>
  <anchor x="20" y="693" name="topleft"/>
  <anchor x="759" y="693" name="topright"/>
  <outline>
    <contour>
      <point x="390" y="-15" type="curve" smooth="yes"/>
      <point x="572" y="-15"/>
      <point x="721" y="109"/>
      <point x="721" y="347" type="curve"/>
      <point x="721" y="585"/>
      <point x="570" y="708"/>
      <point x="390" y="708" type="curve"/>
      <point x="212" y="708"/>
      <point x="58" y="585"/>
      <point x="58" y="347" type="curve" smooth="yes"/>
      <point x="58" y="109"/>
      <point x="210" y="-15"/>
    </contour>
    <contour>
      <point x="390" y="72" type="curve" smooth="yes"/>
      <point x="248" y="72"/>
      <point x="160" y="178"/>
      <point x="160" y="347" type="curve"/>
      <point x="160" y="515"/>
      <point x="248" y="622"/>
      <point x="390" y="622" type="curve" smooth="yes"/>
      <point x="531" y="622"/>
      <point x="620" y="516"/>
      <point x="620" y="347" type="curve"/>
      <point x="620" y="178"/>
      <point x="531" y="72"/>
    </contour>
  </outline>
</glyph>
<glyph name="P" format="2">
  <advance width="609.29"/>
  <unicode hex="0050"/>
  <anchor x="305" y="0" name="bottom"/>
  <anchor x="305" y="693" name="top"/>
  <outline>
    <contour>
      <point x="87" y="0" type="line"/>
      <point x="184" y="0" type="line"/>
      <point x="184" y="256" type="line"/>
      <point x="263" y="256" type="line" smooth="yes"/>
      <point x="458" y="256"/>
      <point x="574" y="318"/>
      <point x="574" y="479" type="curve" smooth="yes"/>
      <point x="574" y="624"/>
      <point x="472" y="700"/>
      <point x="273" y="700" type="curve" smooth="yes"/>
      <point x="216" y="700"/>
      <point x="141" y="694"/>
      <point x="87" y="681" type="curve"/>
    </contour>
    <contour>
      <point x="184" y="340" type="line"/>
      <point x="184" y="610" type="line"/>
      <point x="206" y="613"/>
      <point x="237" y="616"/>
      <point x="278" y="616" type="curve" smooth="yes"/>
      <point x="382" y="616"/>
      <point x="473" y="587"/>
      <point x="473" y="480" type="curve" smooth="yes"/>
      <point x="473" y="367"/>
      <point x="391" y="340"/>
      <point x="258" y="340" type="curve" smooth="yes"/>
    </contour>
  </outline>
</glyph>
<glyph name="U" format="2">
  <advance width="688.9775"/>
  <unicode hex="0055"/>
  <anchor x="345" y="0" name="bottom"/>
  <anchor x="620" y="10" name="ogonek"/>
  <anchor x="345" y="693" name="top"/>
  <anchor x="669" y="693" name="topright"/>
  <outline>
    <contour>
      <point x="344" y="-15" type="curve" smooth="yes"/>
      <point x="533" y="-15"/>
      <point x="608" y="103"/>
      <point x="608" y="259" type="curve" smooth="yes"/>
      <point x="608" y="693" type="line"/>
      <point x="510" y="693" type="line"/>
      <point x="510" y="269" type="line" smooth="yes"/>
      <point x="510" y="130"/>
      <point x="444" y="71"/>
      <point x="344" y="71" type="curve" smooth="yes"/>
      <point x="245" y="71"/>
      <point x="179" y="130"/>
      <point x="179" y="269" type="curve" smooth="yes"/>
      <point x="179" y="693" type="line"/>
      <point x="81" y="693" type="line"/>
      <point x="81" y="259" type="line" smooth="yes"/>
      <point x="81" y="103"/>
      <point x="155" y="-15"/>
    </contour>
  </outline>
</glyph>
<glyph name="V" format="2">
  <advance width="656.585"/>
  <unicode hex="0056"/>
  <anchor x="328" y="0" name="bottom"/>
  <anchor x="328" y="693" name="top"/>
  <outline>
    <contour>
      <point x="283" y="0" type="curve"/>
      <point x="375" y="0" type="line"/>
      <point x="466" y="200"/>
      <point x="545" y="401"/>
      <point x="647" y="693" type="curve"/>
      <point x="543" y="693" type="line"/>
      <point x="472" y="482"/>
      <point x="403" y="284"/>
      <point x="331" y="115" type="curve"/>
      <point x="257" y="285"/>
      <point x="190" y="482"/>
      <point x="118" y="693" type="curve"/>
      <point x="10" y="693" type="line"/>
      <point x="112" y="401"/>
      <point x="192" y="200"/>
    </contour>
  </outline>
</glyph>
<glyph name="W" format="2">
  <advance width="929.9775"/>
  <unicode hex="0057"/>
  <anchor x="465" y="0" name="bottom"/>
  <anchor x="465" y="693" name="top"/>
  <outline>
    <contour>
      <point x="200" y="0" type="curve"/>
      <point x="295" y="0" type="line"/>
      <point x="353" y="144"/>
      <point x="408" y="291"/>
      <point x="464" y="470" type="curve"/>
      <point x="521" y="291"/>
      <point x="574" y="144"/>
      <point x="633" y="0" type="curve"/>
      <point x="730" y="0" type="line"/>
      <point x="799" y="204"/>
      <point x="851" y="426"/>
      <point x="899" y="693" type="curve"/>
      <point x="801" y="693" type="line"/>
      <point x="764" y="484"/>
      <point x="720" y="270"/>
      <point x="678" y="121" type="curve"/>
      <point x="623" y="259"/>
      <point x="562" y="433"/>
      <point x="509" y="612" type="curve"/>
      <point x="425" y="612" type="line"/>
      <point x="373" y="433"/>
      <point x="313" y="262"/>
      <point x="259" y="121" type="curve"/>
      <point x="214" y="272"/>
      <point x="168" y="485"/>
      <point x="134" y="693" type="curve"/>
      <point x="31" y="693" type="line"/>
      <point x="78" y="426"/>
      <point x="128" y="204"/>
    </contour>
  </outline>
</glyph>
<glyph name="X" format="2">
  <advance width="630.2775"/>
  <unicode hex="0058"/>
  <anchor x="315" y="0" name="bottom"/>
  <anchor x="315" y="693" name="top"/>
  <outline>
    <contour>
      <point x="21" y="0" type="curve"/>
      <point x="128" y="0" type="line"/>
      <point x="162" y="70"/>
      <point x="253" y="209"/>
      <point x="312" y="292" type="curve"/>
      <point x="380" y="197"/>
      <point x="456" y="78"/>
      <point x="495" y="0" type="curve"/>
      <point x="607" y="0" type="line"/>
      <point x="552" y="109"/>
      <point x="468" y="235"/>
      <point x="373" y="364" type="curve"/>
      <point x="595" y="693" type="line"/>
      <point x="485" y="693" type="line"/>
      <point x="317" y="435" type="line"/>
      <point x="147" y="693" type="line"/>
      <point x="32" y="693" type="line"/>
      <point x="255" y="364" type="line"/>
      <point x="166" y="239"/>
      <point x="82" y="117"/>
    </contour>
  </outline>
</glyph>
<glyph name="Y" format="2">
  <advance width="599.59"/>
  <unicode hex="0059"/>
  <anchor x="300" y="0" name="bottom"/>
  <anchor x="300" y="693" name="top"/>
  <anchor x="20" y="693" name="topleft"/>
  <outline>
    <contour>
      <point x="252" y="0" type="line"/>
      <point x="349" y="0" type="line"/>
      <point x="349" y="280" type="line"/>
      <point x="441" y="421"/>
      <point x="519" y="559"/>
      <point x="591" y="693" type="curve"/>
      <point x="485" y="693" type="line"/>
      <point x="432" y="584"/>
      <point x="368" y="468"/>
      <point x="303" y="364" type="curve"/>
      <point x="235" y="468"/>
      <point x="172" y="584"/>
      <point x="121" y="693" type="curve"/>
      <point x="8" y="693" type="line"/>
      <point x="79" y="559"/>
      <point x="159" y="421"/>
      <point x="252" y="278" type="curve"/>
    </contour>
  </outline>
</glyph>
<glyph name="Z" format="2">
  <advance width="576.625"/>
  <unicode hex="005A"/>
  <anchor x="288" y="0" name="bottom"/>
  <anchor x="288" y="347" name="center"/>
  <anchor x="288" y="693" name="top"/>
  <outline>
    <contour>
      <point x="37.002" y="0" type="line"/>
      <point x="540" y="0" type="line"/>
      <point x="540" y="83" type="line"/>
      <point x="150" y="83" type="line"/>
      <point x="251" y="262"/>
      <point x="437" y="512"/>
      <point x="530" y="616" type="curve"/>
      <point x="530" y="693" type="line"/>
      <point x="55.005" y="693" type="line"/>
      <point x="55" y="610" type="line"/>
      <point x="411" y="610" type="line"/>
      <point x="303" y="486"/>
      <point x="122" y="227"/>
      <point x="37" y="65" type="curve"/>
    </contour>
  </outline>
</glyph>
<glyph name="bracketleft" format="2">
  <advance width="330.2825"/>
  <unicode hex="005B"/>
  <outline>
    <contour>
      <point x="97" y="-185" type="line"/>
      <point x="322" y="-185" type="line"/>
      <point x="322" y="-112" type="line"/>
      <point x="185" y="-112" type="line"/>
      <point x="185" y="710" type="line"/>
      <point x="322" y="710" type="line"/>
      <point x="322" y="783" type="line"/>
      <point x="97" y="783" type="line"/>
    </contour>
  </outline>
</glyph>
<glyph name="backslash" format="2">
  <advance width="384.935"/>
  <unicode hex="005C"/>
  <outline>
    <contour>
      <point x="314" y="-185" type="line"/>
      <point x="409" y="-185" type="line"/>
      <point x="69" y="783" type="line"/>
      <point x="-24" y="783" type="line"/>
    </contour>
  </outline>
</glyph>
<glyph name="bracketright" format="2">
  <advance width="330.2825"/>
  <unicode hex="005D"/>
  <outline>
    <contour>
      <point x="9" y="-185" type="line"/>
      <point x="234" y="-185" type="line"/>
      <point x="234" y="783" type="line"/>
      <point x="9" y="783" type="line"/>
      <point x="9" y="710" type="line"/>
      <point x="145" y="710" type="line"/>
      <point x="145" y="-112" type="line"/>
      <point x="9" y="-112" type="line"/>
    </contour>
  </outline>
</glyph>
<glyph name="underscore" format="2">
  <advance width="493.325"/>
  <unicode hex="005F"/>
  <outline>
    <contour>
      <point x="-3" y="-185" type="line"/>
      <point x="497" y="-185" type="line"/>
      <point x="497" y="-106" type="line"/>
      <point x="-3" y="-106" type="line"/>
    </contour>
  </outline>
</glyph>
<glyph name="grave" format="2">
  <advance width="346.075"/>
  <unicode hex="0060"/>
  <outline>
    <contour>
      <point x="216" y="581" type="line"/>
      <point x="260" y="626" type="line"/>
      <point x="108" y="782" type="line"/>
      <point x="47" y="720" type="line"/>
    </contour>
  </outline>
</glyph>
<glyph name="a" format="2">
  <advance width="523.63"/>
  <unicode hex="0061"/>
  <anchor x="262" y="0" name="bottom"/>
  <anchor x="471" y="10" name="ogonek"/>
  <anchor x="262" y="520" name="top"/>
  <outline>
    <contour>
      <point x="246" y="-11" type="curve" smooth="yes"/>
      <point x="339" y="-11"/>
      <point x="417" y="5"/>
      <point x="449" y="13" type="curve"/>
      <point x="449" y="334" type="line" smooth="yes"/>
      <point x="449" y="451"/>
      <point x="398" y="533"/>
      <point x="248" y="533" type="curve" smooth="yes"/>
      <point x="181" y="533"/>
      <point x="125" y="521"/>
      <point x="98" y="510" type="curve"/>
      <point x="110" y="432" type="line"/>
      <point x="134" y="441"/>
      <point x="173" y="453"/>
      <point x="241" y="453" type="curve" smooth="yes"/>
      <point x="338" y="453"/>
      <point x="358" y="393"/>
      <point x="358" y="329" type="curve" smooth="yes"/>
      <point x="358" y="303" type="line"/>
      <point x="345" y="308"/>
      <point x="300" y="316"/>
      <point x="262" y="316" type="curve" smooth="yes"/>
      <point x="140" y="316"/>
      <point x="44" y="271"/>
      <point x="44" y="155" type="curve" smooth="yes"/>
      <point x="44" y="34"/>
      <point x="128" y="-11"/>
    </contour>
    <contour>
      <point x="256" y="66" type="curve" smooth="yes"/>
      <point x="183" y="66"/>
      <point x="138" y="88"/>
      <point x="138" y="156" type="curve" smooth="yes"/>
      <point x="138" y="231"/>
      <point x="209" y="245"/>
      <point x="270" y="245" type="curve" smooth="yes"/>
      <point x="314" y="245"/>
      <point x="344" y="237"/>
      <point x="358" y="232" type="curve"/>
      <point x="358" y="73" type="line"/>
      <point x="334" y="69"/>
      <point x="299" y="66"/>
    </contour>
  </outline>
</glyph>
<glyph name="d" format="2">
  <advance width="589.9825"/>
  <unicode hex="0064"/>
  <anchor x="295" y="0" name="bottom"/>
  <anchor x="295" y="260" name="center"/>
  <anchor x="295" y="776" name="top"/>
  <anchor x="570" y="776" name="topright"/>
  <outline>
    <contour>
      <point x="312" y="-12" type="curve" smooth="yes"/>
      <point x="397" y="-12"/>
      <point x="466" y="2"/>
      <point x="509" y="16" type="curve"/>
      <point x="509" y="776" type="line"/>
      <point x="416" y="760" type="line"/>
      <point x="416" y="495" type="line"/>
      <point x="390" y="512"/>
      <point x="344" y="531"/>
      <point x="286.007" y="530.993" type="curve" smooth="yes"/>
      <point x="137" y="531"/>
      <point x="52" y="421"/>
      <point x="52" y="259" type="curve" smooth="yes"/>
      <point x="52" y="91"/>
      <point x="154" y="-12"/>
    </contour>
    <contour>
      <point x="313" y="69" type="curve" smooth="yes"/>
      <point x="212" y="69"/>
      <point x="148" y="140"/>
      <point x="148" y="261" type="curve"/>
      <point x="148" y="370"/>
      <point x="189" y="450"/>
      <point x="298" y="450" type="curve" smooth="yes"/>
      <point x="349" y="450"/>
      <point x="395" y="429"/>
      <point x="416" y="412" type="curve"/>
      <point x="416" y="80" type="line"/>
      <point x="398" y="75"/>
      <point x="364" y="69"/>
    </contour>
  </outline>
</glyph>
<glyph name="e" format="2">
  <advance width="559.97"/>
  <unicode hex="0065"/>
  <anchor x="280" y="0" name="bottom"/>
  <anchor x="504" y="10" name="ogonek"/>
  <anchor x="280" y="520" name="top"/>
  <outline>
    <contour>
      <point x="314" y="-12" type="curve" smooth="yes"/>
      <point x="385" y="-12"/>
      <point x="448" y="7"/>
      <point x="471" y="19" type="curve"/>
      <point x="456" y="97" type="line"/>
      <point x="433" y="86"/>
      <point x="387" y="70"/>
      <point x="322" y="70" type="curve" smooth="yes"/>
      <point x="209" y="70"/>
      <point x="154" y="130"/>
      <point x="149" y="235" type="curve"/>
      <point x="503" y="235" type="line"/>
      <point x="504" y="246"/>
      <point x="506" y="262"/>
      <point x="506" y="274" type="curve" smooth="yes"/>
      <point x="506" y="448"/>
      <point x="421" y="533"/>
      <point x="286" y="533" type="curve" smooth="yes"/>
      <point x="168" y="533"/>
      <point x="52" y="442"/>
      <point x="52" y="259" type="curve" smooth="yes"/>
      <point x="52" y="103"/>
      <point x="130" y="-12"/>
    </contour>
    <contour>
      <point x="150" y="305" type="line"/>
      <point x="156" y="383"/>
      <point x="204" y="453"/>
      <point x="288" y="453" type="curve" smooth="yes"/>
      <point x="368" y="453"/>
      <point x="411" y="394"/>
      <point x="413" y="305" type="curve"/>
    </contour>
  </outline>
</glyph>
<glyph name="f" format="2">
  <advance width="391.295"/>
  <unicode hex="0066"/>
  <anchor x="196" y="0" name="bottom"/>
  <anchor x="196" y="776" name="top"/>
  <outline>
    <contour>
      <point x="81" y="0" type="line"/>
      <point x="174" y="0" type="line"/>
      <point x="174" y="442" type="line"/>
      <point x="374" y="442" type="line"/>
      <point x="374" y="520" type="line"/>
      <point x="174" y="520" type="line"/>
      <point x="174" y="565" type="line"/>
      <point x="174" y="651"/>
      <point x="205" y="695"/>
      <point x="290" y="695" type="curve" smooth="yes"/>
      <point x="329" y="695"/>
      <point x="359" y="687"/>
      <point x="377" y="679" type="curve"/>
      <point x="396" y="756" type="line"/>
      <point x="380" y="764"/>
      <point x="339" y="776"/>
      <point x="283" y="776" type="curve" smooth="yes"/>
      <point x="147" y="776"/>
      <point x="81" y="701"/>
      <point x="81" y="567" type="curve" smooth="yes"/>
    </contour>
  </outline>
</glyph>
<glyph name="h" format="2">
  <advance width="575.65"/>
  <unicode hex="0068"/>
  <anchor x="288" y="0" name="bottom"/>
  <anchor x="288" y="388" name="center"/>
  <anchor x="288" y="776" name="top"/>
  <outline>
    <contour>
      <point x="81" y="0" type="line"/>
      <point x="174" y="0" type="line"/>
      <point x="174" y="430" type="line"/>
      <point x="188" y="436"/>
      <point x="238" y="449"/>
      <point x="277" y="449" type="curve" smooth="yes"/>
      <point x="378" y="449"/>
      <point x="408" y="401"/>
      <point x="408" y="272" type="curve" smooth="yes"/>
      <point x="408" y="0" type="line"/>
      <point x="501" y="0" type="line"/>
      <point x="501" y="292" type="line" smooth="yes"/>
      <point x="501" y="434"/>
      <point x="453" y="531"/>
      <point x="289" y="531" type="curve" smooth="yes"/>
      <point x="250" y="531"/>
      <point x="208" y="522"/>
      <point x="174" y="509" type="curve"/>
      <point x="174" y="776" type="line"/>
      <point x="81" y="760" type="line"/>
    </contour>
  </outline>
</glyph>
<glyph name="i" format="2">
  <advance width="254.29"/>
  <unicode hex="0069"/>
  <anchor x="128" y="0" name="bottom"/>
  <outline>
    <contour>
      <point x="81" y="0" type="line"/>
      <point x="174" y="0" type="line"/>
      <point x="174" y="520" type="line"/>
      <point x="81" y="520" type="line"/>
    </contour>
    <contour>
      <point x="127" y="612" type="curve" smooth="yes"/>
      <point x="161" y="612"/>
      <point x="188" y="636"/>
      <point x="188" y="675" type="curve" smooth="yes"/>
      <point x="188" y="713"/>
      <point x="161" y="737"/>
      <point x="127" y="737" type="curve" smooth="yes"/>
      <point x="93" y="737"/>
      <point x="65" y="713"/>
      <point x="65" y="675" type="curve" smooth="yes"/>
      <point x="65" y="636"/>
      <point x="93" y="612"/>
    </contour>
  </outline>
</glyph>
<glyph name="j" format="2">
  <advance width="254.29"/>
  <unicode hex="006A"/>
  <outline>
    <contour>
      <point x="0" y="-186" type="curve" smooth="yes"/>
      <point x="120" y="-186"/>
      <point x="174" y="-123"/>
      <point x="174" y="10" type="curve" smooth="yes"/>
      <point x="174" y="520" type="line"/>
      <point x="81" y="520" type="line"/>
      <point x="81" y="9" type="line"/>
      <point x="81" y="-67"/>
      <point x="63" y="-106"/>
      <point x="-6" y="-106" type="curve" smooth="yes"/>
      <point x="-24" y="-106"/>
      <point x="-41" y="-104"/>
      <point x="-53" y="-99" type="curve"/>
      <point x="-65.993" y="-175.005" type="line"/>
      <point x="-48" y="-182"/>
      <point x="-16" y="-186"/>
    </contour>
    <contour>
      <point x="127" y="612" type="curve" smooth="yes"/>
      <point x="161" y="612"/>
      <point x="188" y="636"/>
      <point x="188" y="675" type="curve" smooth="yes"/>
      <point x="188" y="713"/>
      <point x="161" y="737"/>
      <point x="127" y="737" type="curve" smooth="yes"/>
      <point x="93" y="737"/>
      <point x="65" y="713"/>
      <point x="65" y="675" type="curve" smooth="yes"/>
      <point x="65" y="636"/>
      <point x="93" y="612"/>
    </contour>
  </outline>
</glyph>
<glyph name="k" format="2">
  <advance width="522.93"/>
  <unicode hex="006B"/>
  <anchor x="262" y="0" name="bottom"/>
  <anchor x="262" y="776" name="top"/>
  <outline>
    <contour>
      <point x="81" y="0" type="line"/>
      <point x="174" y="0" type="line"/>
      <point x="174" y="250" type="line"/>
      <point x="249" y="199"/>
      <point x="343" y="94"/>
      <point x="399" y="0" type="curve"/>
      <point x="508" y="0" type="line"/>
      <point x="455" y="94"/>
      <point x="348" y="223"/>
      <point x="265" y="286" type="curve"/>
      <point x="337" y="357"/>
      <point x="427" y="451"/>
      <point x="491" y="520" type="curve"/>
      <point x="380" y="520" type="line"/>
      <point x="332" y="465"/>
      <point x="237" y="365"/>
      <point x="174" y="301" type="curve"/>
      <point x="174" y="776" type="line"/>
      <point x="81" y="760" type="line"/>
    </contour>
  </outline>
</glyph>
<glyph name="l" format="2">
  <advance width="275.2825"/>
  <unicode hex="006C"/>
  <anchor x="138" y="0" name="bottom"/>
  <anchor x="138" y="388" name="center"/>
  <anchor x="138" y="776" name="top"/>
  <anchor x="255" y="776" name="topright"/>
  <outline>
    <contour>
      <point x="238" y="-9" type="curve"/>
      <point x="251" y="68" type="line"/>
      <point x="192" y="75"/>
      <point x="173" y="91"/>
      <point x="173" y="152" type="curve" smooth="yes"/>
      <point x="173" y="776" type="line"/>
      <point x="80" y="760" type="line"/>
      <point x="80" y="140" type="line" smooth="yes"/>
      <point x="80" y="38"/>
      <point x="123" y="-6"/>
    </contour>
  </outline>
</glyph>
<glyph name="m" format="2">
  <advance width="862.6675"/>
  <unicode hex="006D"/>
  <anchor x="432" y="0" name="bottom"/>
  <anchor x="432" y="520" name="top"/>
  <outline>
    <contour>
      <point x="81" y="0" type="line"/>
      <point x="174" y="0" type="line"/>
      <point x="174" y="438" type="line"/>
      <point x="188" y="442"/>
      <point x="226" y="449"/>
      <point x="274" y="449" type="curve" smooth="yes"/>
      <point x="368" y="449"/>
      <point x="388" y="394"/>
      <point x="388" y="272" type="curve" smooth="yes"/>
      <point x="388" y="0" type="line"/>
      <point x="481" y="0" type="line"/>
      <point x="481" y="292" type="line" smooth="yes"/>
      <point x="481" y="337"/>
      <point x="476" y="378"/>
      <point x="465" y="411" type="curve"/>
      <point x="481" y="423"/>
      <point x="524" y="449"/>
      <point x="583" y="449" type="curve" smooth="yes"/>
      <point x="675" y="449"/>
      <point x="695" y="394"/>
      <point x="695" y="272" type="curve"/>
      <point x="695" y="0" type="line"/>
      <point x="788" y="0" type="line"/>
      <point x="788" y="292" type="line" smooth="yes"/>
      <point x="788" y="432"/>
      <point x="755" y="531"/>
      <point x="594" y="531" type="curve" smooth="yes"/>
      <point x="515" y="531"/>
      <point x="452" y="495"/>
      <point x="428" y="476" type="curve"/>
      <point x="399" y="511"/>
      <point x="351" y="531"/>
      <point x="283" y="531" type="curve" smooth="yes"/>
      <point x="192" y="531"/>
      <point x="124" y="514"/>
      <point x="81" y="502" type="curve"/>
    </contour>
  </outline>
</glyph>
<glyph name="n" format="2">
  <advance width="575.65"/>
  <unicode hex="006E"/>
  <anchor x="288" y="0" name="bottom"/>
  <anchor x="288" y="520" name="top"/>
  <outline>
    <contour>
      <point x="81" y="0" type="line"/>
      <point x="174" y="0" type="line"/>
      <point x="174" y="438" type="line"/>
      <point x="189" y="442"/>
      <point x="230" y="449"/>
      <point x="278" y="449" type="curve" smooth="yes"/>
      <point x="377" y="449"/>
      <point x="408" y="401"/>
      <point x="408" y="272" type="curve" smooth="yes"/>
      <point x="408" y="0" type="line"/>
      <point x="501" y="0" type="line"/>
      <point x="501" y="292" type="line" smooth="yes"/>
      <point x="501" y="434"/>
      <point x="452" y="531"/>
      <point x="287" y="531" type="curve" smooth="yes"/>
      <point x="195" y="531"/>
      <point x="124" y="514"/>
      <point x="81" y="502" type="curve"/>
    </contour>
  </outline>
</glyph>
<glyph name="o" format="2">
  <advance width="590.3125"/>
  <unicode hex="006F"/>
  <anchor x="295" y="0" name="bottom"/>
  <anchor x="295" y="260" name="center"/>
  <anchor x="531" y="10" name="ogonek"/>
  <anchor x="295" y="520" name="top"/>
  <anchor x="570" y="520" name="topright"/>
  <outline>
    <contour>
      <point x="295" y="-13" type="curve" smooth="yes"/>
      <point x="440" y="-13"/>
      <point x="539" y="96"/>
      <point x="539" y="260" type="curve" smooth="yes"/>
      <point x="539" y="424"/>
      <point x="438" y="533"/>
      <point x="295" y="533" type="curve" smooth="yes"/>
      <point x="154" y="533"/>
      <point x="52" y="424"/>
      <point x="52" y="260" type="curve" smooth="yes"/>
      <point x="52" y="96"/>
      <point x="152" y="-13"/>
    </contour>
    <contour>
      <point x="295" y="69" type="curve" smooth="yes"/>
      <point x="205" y="69"/>
      <point x="148" y="143"/>
      <point x="148" y="260" type="curve" smooth="yes"/>
      <point x="148" y="377"/>
      <point x="205" y="451"/>
      <point x="295" y="451" type="curve" smooth="yes"/>
      <point x="386" y="451"/>
      <point x="442" y="377"/>
      <point x="442" y="260" type="curve" smooth="yes"/>
      <point x="442" y="143"/>
      <point x="386" y="69"/>
    </contour>
  </outline>
</glyph>
<glyph name="p" format="2">
  <advance width="589.9825"/>
  <unicode hex="0070"/>
  <anchor x="295" y="0" name="bottom"/>
  <anchor x="295" y="520" name="top"/>
  <outline>
    <contour>
      <point x="81" y="-185" type="line"/>
      <point x="174" y="-185" type="line"/>
      <point x="174" y="24" type="line"/>
      <point x="200" y="8"/>
      <point x="247" y="-11"/>
      <point x="306" y="-11" type="curve" smooth="yes"/>
      <point x="455" y="-11"/>
      <point x="538" y="100"/>
      <point x="538" y="259" type="curve" smooth="yes"/>
      <point x="538" y="427"/>
      <point x="436" y="531"/>
      <point x="278" y="531" type="curve" smooth="yes"/>
      <point x="193" y="531"/>
      <point x="124" y="516"/>
      <point x="81" y="502" type="curve"/>
    </contour>
    <contour>
      <point x="292" y="70" type="curve" smooth="yes"/>
      <point x="241" y="70"/>
      <point x="195" y="91"/>
      <point x="174" y="108" type="curve"/>
      <point x="174" y="438" type="line"/>
      <point x="192" y="443"/>
      <point x="226" y="449"/>
      <point x="277" y="449" type="curve" smooth="yes"/>
      <point x="378" y="449"/>
      <point x="442" y="378"/>
      <point x="442" y="258" type="curve" smooth="yes"/>
      <point x="442" y="149"/>
      <point x="401" y="70"/>
    </contour>
  </outline>
</glyph>
<glyph name="q" format="2">
  <advance width="589.9825"/>
  <unicode hex="0071"/>
  <anchor x="295" y="0" name="bottom"/>
  <anchor x="295" y="520" name="top"/>
  <outline>
    <contour>
      <point x="416" y="-185" type="line"/>
      <point x="509" y="-185" type="line"/>
      <point x="509" y="502" type="line"/>
      <point x="466" y="516"/>
      <point x="397" y="531"/>
      <point x="312" y="531" type="curve" smooth="yes"/>
      <point x="154" y="531"/>
      <point x="52" y="425"/>
      <point x="52" y="259" type="curve" smooth="yes"/>
      <point x="52" y="98"/>
      <point x="135" y="-11"/>
      <point x="284" y="-11" type="curve" smooth="yes"/>
      <point x="343" y="-11"/>
      <point x="390" y="8"/>
      <point x="416" y="24" type="curve"/>
    </contour>
    <contour>
      <point x="298" y="70" type="curve" smooth="yes"/>
      <point x="189" y="70"/>
      <point x="148" y="149"/>
      <point x="148" y="258" type="curve" smooth="yes"/>
      <point x="148" y="378"/>
      <point x="212" y="449"/>
      <point x="313" y="449" type="curve" smooth="yes"/>
      <point x="364" y="449"/>
      <point x="398" y="443"/>
      <point x="416" y="438" type="curve"/>
      <point x="416" y="108" type="line"/>
      <point x="395" y="91"/>
      <point x="349" y="70"/>
    </contour>
  </outline>
</glyph>
<glyph name="r" format="2">
  <advance width="389.96"/>
  <unicode hex="0072"/>
  <anchor x="195" y="0" name="bottom"/>
  <anchor x="195" y="520" name="top"/>
  <outline>
    <contour>
      <point x="81" y="0" type="line"/>
      <point x="174" y="0" type="line"/>
      <point x="174" y="436" type="line"/>
      <point x="185" y="441"/>
      <point x="218" y="449"/>
      <point x="262" y="449" type="curve" smooth="yes"/>
      <point x="311" y="449"/>
      <point x="346" y="441"/>
      <point x="362" y="435" type="curve"/>
      <point x="379" y="514" type="line"/>
      <point x="359" y="522"/>
      <point x="309" y="530"/>
      <point x="270" y="530" type="curve" smooth="yes"/>
      <point x="184" y="530"/>
      <point x="120" y="510"/>
      <point x="81" y="495" type="curve"/>
    </contour>
  </outline>
</glyph>
<glyph name="s" format="2">
  <advance width="446.9525"/>
  <unicode hex="0073"/>
  <anchor x="224" y="0" name="bottom"/>
  <anchor x="224" y="520" name="top"/>
  <outline>
    <contour>
      <point x="201" y="-13" type="curve" smooth="yes"/>
      <point x="330" y="-13"/>
      <point x="407" y="38"/>
      <point x="407" y="135" type="curve" smooth="yes"/>
      <point x="407" y="229"/>
      <point x="346" y="262"/>
      <point x="250" y="299" type="curve" smooth="yes"/>
      <point x="176" y="328"/>
      <point x="143" y="344"/>
      <point x="143" y="390" type="curve" smooth="yes"/>
      <point x="143" y="435"/>
      <point x="184" y="455"/>
      <point x="239" y="455" type="curve" smooth="yes"/>
      <point x="304" y="455"/>
      <point x="341" y="439"/>
      <point x="363" y="430" type="curve"/>
      <point x="382" y="507" type="line"/>
      <point x="358" y="517"/>
      <point x="305" y="533"/>
      <point x="237" y="533" type="curve" smooth="yes"/>
      <point x="121" y="533"/>
      <point x="50" y="474"/>
      <point x="50" y="385" type="curve" smooth="yes"/>
      <point x="50" y="293"/>
      <point x="116" y="261"/>
      <point x="198" y="229" type="curve" smooth="yes"/>
      <point x="282" y="195"/>
      <point x="313" y="179"/>
      <point x="313" y="133" type="curve" smooth="yes"/>
      <point x="313" y="84"/>
      <point x="270" y="66"/>
      <point x="202" y="66" type="curve" smooth="yes"/>
      <point x="130" y="66"/>
      <point x="82" y="88"/>
      <point x="59" y="97" type="curve"/>
      <point x="40" y="17" type="line"/>
      <point x="58" y="8"/>
      <point x="110" y="-13"/>
    </contour>
  </outline>
</glyph>
<glyph name="t" format="2">
  <advance width="405.9525"/>
  <unicode hex="0074"/>
  <anchor x="203" y="0" name="bottom"/>
  <anchor x="203" y="260" name="center"/>
  <anchor x="203" y="520" name="top"/>
  <anchor x="386" y="776" name="topright"/>
  <outline>
    <contour>
      <point x="258" y="-11" type="curve" smooth="yes"/>
      <point x="316" y="-11"/>
      <point x="363" y="6"/>
      <point x="388" y="19" type="curve"/>
      <point x="370" y="94" type="line"/>
      <point x="348" y="83"/>
      <point x="315" y="70"/>
      <point x="268" y="70" type="curve" smooth="yes"/>
      <point x="203" y="70"/>
      <point x="169" y="97"/>
      <point x="169" y="197" type="curve" smooth="yes"/>
      <point x="169" y="442" type="line"/>
      <point x="366" y="442" type="line"/>
      <point x="366" y="520" type="line"/>
      <point x="169" y="520" type="line"/>
      <point x="169" y="681" type="line"/>
      <point x="76" y="665" type="line"/>
      <point x="76" y="200" type="line" smooth="yes"/>
      <point x="76" y="63"/>
      <point x="117" y="-11"/>
    </contour>
  </outline>
</glyph>
<glyph name="u" format="2">
  <advance width="575.65"/>
  <unicode hex="0075"/>
  <anchor x="288" y="0" name="bottom"/>
  <anchor x="518" y="10" name="ogonek"/>
  <anchor x="288" y="520" name="top"/>
  <anchor x="556" y="520" name="topright"/>
  <outline>
    <contour>
      <point x="288" y="-11" type="curve" smooth="yes"/>
      <point x="380" y="-11"/>
      <point x="452" y="6"/>
      <point x="495" y="18" type="curve"/>
      <point x="495" y="520" type="line"/>
      <point x="402" y="520" type="line"/>
      <point x="402" y="82" type="line"/>
      <point x="388" y="78"/>
      <point x="346" y="71"/>
      <point x="298" y="71" type="curve" smooth="yes"/>
      <point x="202" y="71"/>
      <point x="168" y="120"/>
      <point x="168" y="249" type="curve" smooth="yes"/>
      <point x="168" y="520" type="line"/>
      <point x="75" y="520" type="line"/>
      <point x="75" y="229" type="line" smooth="yes"/>
      <point x="75" y="86"/>
      <point x="126" y="-11"/>
    </contour>
  </outline>
</glyph>
<glyph name="w" format="2">
  <advance width="777.9925"/>
  <unicode hex="0077"/>
  <anchor x="389" y="0" name="bottom"/>
  <anchor x="389" y="520" name="top"/>
  <outline>
    <contour>
      <point x="191" y="0" type="curve"/>
      <point x="271" y="0" type="line"/>
      <point x="308" y="96"/>
      <point x="354" y="224"/>
      <point x="389" y="359" type="curve"/>
      <point x="424" y="224"/>
      <point x="470" y="96"/>
      <point x="507" y="0" type="curve"/>
      <point x="586" y="0" type="line"/>
      <point x="648" y="137"/>
      <point x="708" y="316"/>
      <point x="759" y="520" type="curve"/>
      <point x="665" y="520" type="line"/>
      <point x="638" y="395"/>
      <point x="586" y="215"/>
      <point x="546" y="109" type="curve"/>
      <point x="499" y="237"/>
      <point x="452" y="400"/>
      <point x="429" y="520" type="curve"/>
      <point x="355" y="520" type="line"/>
      <point x="329" y="400"/>
      <point x="283" y="238"/>
      <point x="237" y="110" type="curve"/>
      <point x="195" y="215"/>
      <point x="144" y="395"/>
      <point x="117" y="520" type="curve"/>
      <point x="19" y="520" type="line"/>
      <point x="70" y="316"/>
      <point x="131" y="137"/>
    </contour>
  </outline>
</glyph>
<glyph name="y" format="2">
  <advance width="498.2725"/>
  <unicode hex="0079"/>
  <anchor x="249" y="0" name="bottom"/>
  <anchor x="249" y="520" name="top"/>
  <outline>
    <contour>
      <point x="87" y="-187" type="curve" smooth="yes"/>
      <point x="203" y="-187"/>
      <point x="252" y="-136"/>
      <point x="305" y="-16" type="curve" smooth="yes"/>
      <point x="373" y="140"/>
      <point x="431" y="324"/>
      <point x="480" y="520" type="curve"/>
      <point x="385.002" y="519.992" type="line"/>
      <point x="350" y="369"/>
      <point x="316" y="239"/>
      <point x="266" y="97" type="curve"/>
      <point x="200" y="236"/>
      <point x="144" y="400"/>
      <point x="115" y="520" type="curve"/>
      <point x="17" y="520" type="line"/>
      <point x="65" y="336"/>
      <point x="139" y="152"/>
      <point x="221" y="0" type="curve"/>
      <point x="190" y="-78"/>
      <point x="155" y="-108"/>
      <point x="87" y="-108" type="curve" smooth="yes"/>
      <point x="60" y="-108"/>
      <point x="33" y="-101"/>
      <point x="20" y="-94" type="curve"/>
      <point x="2" y="-170" type="line"/>
      <point x="15" y="-176"/>
      <point x="50" y="-187"/>
    </contour>
  </outline>
</glyph>
<glyph name="z" format="2">
  <advance width="469.9625"/>
  <unicode hex="007A"/>
  <anchor x="235" y="0" name="bottom"/>
  <anchor x="235" y="260" name="center"/>
  <anchor x="235" y="520" name="top"/>
  <outline>
    <contour>
      <point x="37.002" y="0" type="line"/>
      <point x="434" y="0" type="line"/>
      <point x="434" y="78" type="line"/>
      <point x="147" y="78" type="line"/>
      <point x="228" y="214"/>
      <point x="370" y="388"/>
      <point x="426" y="451" type="curve"/>
      <point x="426" y="520" type="line"/>
      <point x="51.005" y="519.992" type="line"/>
      <point x="51" y="442" type="line"/>
      <point x="309" y="442" type="line"/>
      <point x="238" y="357"/>
      <point x="102" y="179"/>
      <point x="37" y="61" type="curve"/>
    </contour>
  </outline>
</glyph>
<glyph name="braceleft" format="2">
  <advance width="336.29"/>
  <unicode hex="007B"/>
  <outline>
    <contour>
      <point x="316" y="-192" type="curve" smooth="yes"/>
      <point x="328" y="-192" type="line"/>
      <point x="328" y="-119" type="line"/>
      <point x="316" y="-119" type="line"/>
      <point x="227" y="-119"/>
      <point x="221" y="-82"/>
      <point x="221" y="18" type="curve" smooth="yes"/>
      <point x="221" y="134" type="line" smooth="yes"/>
      <point x="221" y="223"/>
      <point x="199" y="265"/>
      <point x="151" y="292" type="curve"/>
      <point x="199" y="320"/>
      <point x="221" y="361"/>
      <point x="221" y="450" type="curve" smooth="yes"/>
      <point x="221" y="566" type="line" smooth="yes"/>
      <point x="221" y="666"/>
      <point x="227" y="703"/>
      <point x="315" y="703" type="curve" smooth="yes"/>
      <point x="328" y="703" type="line"/>
      <point x="328" y="776" type="line"/>
      <point x="316" y="776" type="line"/>
      <point x="174" y="776"/>
      <point x="133" y="715"/>
      <point x="133" y="605" type="curve" smooth="yes"/>
      <point x="133" y="425" type="line"/>
      <point x="133" y="375"/>
      <point x="104" y="328"/>
      <point x="40" y="328" type="curve"/>
      <point x="40" y="256" type="line"/>
      <point x="104" y="256"/>
      <point x="133" y="209"/>
      <point x="133" y="159" type="curve" smooth="yes"/>
      <point x="133" y="-21" type="line" smooth="yes"/>
      <point x="133" y="-131"/>
      <point x="174" y="-192"/>
    </contour>
  </outline>
</glyph>
<glyph name="bar" format="2">
  <advance width="281.95"/>
  <unicode hex="007C"/>
  <outline>
    <contour>
      <point x="97" y="-185" type="line"/>
      <point x="185" y="-185" type="line"/>
      <point x="185" y="783" type="line"/>
      <point x="97" y="783" type="line"/>
    </contour>
  </outline>
</glyph>
<glyph name="braceright" format="2">
  <advance width="336.29"/>
  <unicode hex="007D"/>
  <outline>
    <contour>
      <point x="9" y="-192" type="line"/>
      <point x="21" y="-192" type="line" smooth="yes"/>
      <point x="163" y="-192"/>
      <point x="204" y="-131"/>
      <point x="204" y="-21" type="curve" smooth="yes"/>
      <point x="204" y="159" type="line" smooth="yes"/>
      <point x="204" y="209"/>
      <point x="232" y="256"/>
      <point x="296" y="256" type="curve"/>
      <point x="296" y="328" type="line"/>
      <point x="232" y="328"/>
      <point x="204" y="375"/>
      <point x="204" y="425" type="curve"/>
      <point x="204" y="605" type="line" smooth="yes"/>
      <point x="204" y="715"/>
      <point x="163" y="776"/>
      <point x="21" y="776" type="curve"/>
      <point x="9" y="776" type="line"/>
      <point x="9" y="703" type="line"/>
      <point x="22" y="703" type="line"/>
      <point x="110" y="702"/>
      <point x="116" y="666"/>
      <point x="116" y="566" type="curve" smooth="yes"/>
      <point x="116" y="450" type="line" smooth="yes"/>
      <point x="116" y="361"/>
      <point x="138" y="320"/>
      <point x="185" y="292" type="curve"/>
      <point x="138" y="265"/>
      <point x="116" y="223"/>
      <point x="116" y="134" type="curve" smooth="yes"/>
      <point x="116" y="18" type="line" smooth="yes"/>
      <point x="116" y="-82"/>
      <point x="110" y="-118"/>
      <point x="22" y="-119" type="curve"/>
      <point x="9" y="-119" type="line"/>
    </contour>
  </outline>
</glyph>
<glyph name="asciitilde" format="2">
  <advance width="565.33"/>
  <unicode hex="007E"/>
  <outline>
    <contour>
      <point x="385" y="213" type="curve" smooth="yes"/>
      <point x="480" y="213"/>
      <point x="512" y="297"/>
      <point x="524" y="354" type="curve"/>
      <point x="456" y="371" type="line"/>
      <point x="448" y="335"/>
      <point x="428" y="293"/>
      <point x="387" y="293" type="curve" smooth="yes"/>
      <point x="321" y="293"/>
      <point x="267" y="378"/>
      <point x="181" y="378" type="curve"/>
      <point x="85" y="378"/>
      <point x="53" y="295"/>
      <point x="41" y="238" type="curve"/>
      <point x="109" y="220" type="line"/>
      <point x="118" y="257"/>
      <point x="137" y="299"/>
      <point x="178" y="299" type="curve" smooth="yes"/>
      <point x="244" y="299"/>
      <point x="298" y="213"/>
    </contour>
  </outline>
</glyph>
<glyph name="exclamdown" format="2">
  <advance width="277.99"/>
  <unicode hex="00A1"/>
  <outline>
    <contour>
      <point x="89" y="-183" type="line"/>
      <point x="189" y="-183" type="line"/>
      <point x="189" y="5" type="line"/>
      <point x="189" y="117"/>
      <point x="180" y="202"/>
      <point x="168" y="294" type="curve"/>
      <point x="110" y="294" type="line"/>
      <point x="98" y="202"/>
      <point x="89" y="117"/>
      <point x="89" y="5" type="curve" smooth="yes"/>
    </contour>
    <contour>
      <point x="139" y="385" type="curve" smooth="yes"/>
      <point x="178" y="385"/>
      <point x="207" y="413"/>
      <point x="207" y="453" type="curve" smooth="yes"/>
      <point x="207" y="492"/>
      <point x="178" y="520"/>
      <point x="138.995" y="519.992" type="curve" smooth="yes"/>
      <point x="100" y="520"/>
      <point x="71" y="492"/>
      <point x="71" y="453" type="curve" smooth="yes"/>
      <point x="71" y="413"/>
      <point x="100" y="385"/>
    </contour>
  </outline>
</glyph>
<glyph name="cent" format="2">
  <advance width="565.33"/>
  <unicode hex="00A2"/>
  <outline>
    <contour>
      <point x="277" y="-109" type="line"/>
      <point x="363.998" y="-109" type="line"/>
      <point x="363.998" y="30.002" type="line"/>
      <point x="412" y="33"/>
      <point x="462" y="45"/>
      <point x="482" y="56" type="curve"/>
      <point x="467" y="132" type="line"/>
      <point x="444" y="122"/>
      <point x="402" y="110"/>
      <point x="353" y="110" type="curve" smooth="yes"/>
      <point x="232" y="110"/>
      <point x="183" y="183"/>
      <point x="183" y="291" type="curve" smooth="yes"/>
      <point x="183" y="411"/>
      <point x="240" y="475"/>
      <point x="345" y="475" type="curve" smooth="yes"/>
      <point x="386" y="475"/>
      <point x="423" y="464"/>
      <point x="451" y="453" type="curve"/>
      <point x="473" y="529" type="line"/>
      <point x="438" y="543"/>
      <point x="403.003" y="552"/>
      <point x="364" y="554" type="curve"/>
      <point x="364" y="693" type="line"/>
      <point x="277" y="693" type="line"/>
      <point x="277" y="549" type="line"/>
      <point x="158" y="524"/>
      <point x="86" y="421"/>
      <point x="86" y="291" type="curve" smooth="yes"/>
      <point x="86" y="160"/>
      <point x="151" y="59"/>
      <point x="277" y="35" type="curve"/>
    </contour>
  </outline>
</glyph>
<glyph name="currency" format="2">
  <advance width="565.33"/>
  <unicode hex="00A4"/>
  <outline>
    <contour>
      <point x="103" y="109" type="line"/>
      <point x="179" y="185" type="line"/>
      <point x="209" y="166"/>
      <point x="244" y="155"/>
      <point x="283" y="155" type="curve" smooth="yes"/>
      <point x="322" y="155"/>
      <point x="356" y="166"/>
      <point x="386" y="185" type="curve"/>
      <point x="462" y="109" type="line"/>
      <point x="520" y="167" type="line"/>
      <point x="446" y="240" type="line"/>
      <point x="466" y="270"/>
      <point x="477" y="306"/>
      <point x="477" y="347" type="curve" smooth="yes"/>
      <point x="477" y="388"/>
      <point x="466" y="424"/>
      <point x="446" y="454" type="curve"/>
      <point x="520" y="527" type="line"/>
      <point x="462" y="585" type="line"/>
      <point x="387" y="509" type="line"/>
      <point x="356" y="528"/>
      <point x="321" y="539"/>
      <point x="283" y="539" type="curve" smooth="yes"/>
      <point x="244" y="539"/>
      <point x="209" y="528"/>
      <point x="179" y="509" type="curve"/>
      <point x="104" y="585" type="line"/>
      <point x="46" y="527" type="line"/>
      <point x="119" y="454" type="line"/>
      <point x="100" y="424"/>
      <point x="89" y="388"/>
      <point x="89" y="347" type="curve" smooth="yes"/>
      <point x="89" y="306"/>
      <point x="100" y="270"/>
      <point x="119" y="240" type="curve"/>
      <point x="46" y="166" type="line"/>
    </contour>
    <contour>
      <point x="283" y="227" type="curve" smooth="yes"/>
      <point x="220" y="227"/>
      <point x="169" y="274"/>
      <point x="169" y="347" type="curve" smooth="yes"/>
      <point x="169" y="420"/>
      <point x="220" y="467"/>
      <point x="283" y="467" type="curve" smooth="yes"/>
      <point x="346" y="467"/>
      <point x="396" y="420"/>
      <point x="396" y="347" type="curve" smooth="yes"/>
      <point x="396" y="274"/>
      <point x="346" y="227"/>
    </contour>
  </outline>
</glyph>
<glyph name="yen" format="2">
  <advance width="565.33"/>
  <unicode hex="00A5"/>
  <outline>
    <contour>
      <point x="236" y="0" type="line"/>
      <point x="330" y="0" type="line"/>
      <point x="330" y="114" type="line"/>
      <point x="488" y="114" type="line"/>
      <point x="488" y="182" type="line"/>
      <point x="330" y="182" type="line"/>
      <point x="330" y="283" type="line"/>
      <point x="488" y="283" type="line"/>
      <point x="488" y="351" type="line"/>
      <point x="354" y="351" type="line"/>
      <point x="427" y="469"/>
      <point x="491" y="582"/>
      <point x="546" y="693" type="curve"/>
      <point x="446" y="693" type="line"/>
      <point x="398" y="590"/>
      <point x="344" y="484"/>
      <point x="285" y="387" type="curve"/>
      <point x="225" y="484"/>
      <point x="170" y="589"/>
      <point x="122" y="693" type="curve"/>
      <point x="19" y="693" type="line"/>
      <point x="70" y="587"/>
      <point x="140" y="467"/>
      <point x="211" y="351" type="curve"/>
      <point x="78" y="351" type="line"/>
      <point x="78" y="283" type="line"/>
      <point x="236" y="283" type="line"/>
      <point x="236" y="182" type="line"/>
      <point x="78" y="182" type="line"/>
      <point x="78" y="114" type="line"/>
      <point x="236" y="114" type="line"/>
    </contour>
  </outline>
</glyph>
<glyph name="brokenbar" format="2">
  <advance width="275.3"/>
  <unicode hex="00A6"/>
  <outline>
    <contour>
      <point x="93" y="400" type="line"/>
      <point x="182" y="400" type="line"/>
      <point x="182" y="783" type="line"/>
      <point x="93" y="783" type="line"/>
    </contour>
    <contour>
      <point x="93" y="-185" type="line"/>
      <point x="182" y="-185" type="line"/>
      <point x="182" y="198" type="line"/>
      <point x="93" y="198" type="line"/>
    </contour>
  </outline>
</glyph>
<glyph name="section" format="2">
  <advance width="492.9725"/>
  <unicode hex="00A7"/>
  <outline>
    <contour>
      <point x="226" y="-109" type="curve" smooth="yes"/>
      <point x="353" y="-109"/>
      <point x="429" y="-58"/>
      <point x="429" y="43" type="curve" smooth="yes"/>
      <point x="429" y="92"/>
      <point x="406" y="131"/>
      <point x="363" y="159" type="curve"/>
      <point x="411" y="191"/>
      <point x="452" y="236"/>
      <point x="452" y="300" type="curve" smooth="yes"/>
      <point x="452" y="411"/>
      <point x="370" y="444"/>
      <point x="273" y="476" type="curve" smooth="yes"/>
      <point x="197" y="500"/>
      <point x="170" y="521"/>
      <point x="170" y="567" type="curve"/>
      <point x="170" y="611"/>
      <point x="208" y="632"/>
      <point x="268" y="632" type="curve" smooth="yes"/>
      <point x="332" y="632"/>
      <point x="374" y="617"/>
      <point x="403" y="604" type="curve"/>
      <point x="426" y="680" type="line"/>
      <point x="396" y="692"/>
      <point x="343" y="708"/>
      <point x="269" y="708" type="curve" smooth="yes"/>
      <point x="145" y="708"/>
      <point x="79" y="651"/>
      <point x="79" y="559" type="curve" smooth="yes"/>
      <point x="79" y="514"/>
      <point x="97" y="482"/>
      <point x="134" y="453" type="curve"/>
      <point x="92" y="424"/>
      <point x="44" y="380"/>
      <point x="44" y="309" type="curve" smooth="yes"/>
      <point x="44" y="197"/>
      <point x="124" y="166"/>
      <point x="222" y="133" type="curve" smooth="yes"/>
      <point x="306" y="104"/>
      <point x="337" y="84"/>
      <point x="337" y="37" type="curve" smooth="yes"/>
      <point x="337" y="-13"/>
      <point x="290" y="-33"/>
      <point x="228" y="-33" type="curve"/>
      <point x="151" y="-33"/>
      <point x="114" y="-19"/>
      <point x="70" y="-1" type="curve"/>
      <point x="47" y="-74" type="line"/>
      <point x="82" y="-92"/>
      <point x="139" y="-109"/>
    </contour>
    <contour>
      <point x="300" y="191" type="curve"/>
      <point x="288" y="195"/>
      <point x="272" y="201"/>
      <point x="259" y="205" type="curve"/>
      <point x="184" y="231"/>
      <point x="130" y="253"/>
      <point x="130" y="318" type="curve" smooth="yes"/>
      <point x="130" y="363"/>
      <point x="158" y="394"/>
      <point x="196" y="417" type="curve"/>
      <point x="205" y="413"/>
      <point x="219" y="408"/>
      <point x="233" y="404" type="curve" smooth="yes"/>
      <point x="304" y="379"/>
      <point x="365" y="356"/>
      <point x="365" y="291" type="curve" smooth="yes"/>
      <point x="365" y="252"/>
      <point x="341" y="214"/>
    </contour>
  </outline>
</glyph>
<glyph name="copyright" format="2">
  <advance width="816.025"/>
  <unicode hex="00A9"/>
  <outline>
    <contour>
      <point x="408" y="-15" type="curve" smooth="yes"/>
      <point x="589" y="-15"/>
      <point x="750.005" y="119"/>
      <point x="750.005" y="347" type="curve"/>
      <point x="750.005" y="575"/>
      <point x="589" y="708"/>
      <point x="408" y="708" type="curve"/>
      <point x="227" y="708"/>
      <point x="66" y="575"/>
      <point x="66" y="347" type="curve" smooth="yes"/>
      <point x="66" y="119"/>
      <point x="227" y="-15"/>
    </contour>
    <contour>
      <point x="417" y="148" type="curve"/>
      <point x="480" y="148"/>
      <point x="525" y="169"/>
      <point x="542" y="179" type="curve"/>
      <point x="521" y="241" type="line"/>
      <point x="504" y="233"/>
      <point x="475" y="217"/>
      <point x="424" y="217" type="curve" smooth="yes"/>
      <point x="350" y="217"/>
      <point x="312" y="269"/>
      <point x="312" y="350" type="curve" smooth="yes"/>
      <point x="312" y="431"/>
      <point x="358" y="477"/>
      <point x="421" y="477" type="curve" smooth="yes"/>
      <point x="469" y="477"/>
      <point x="495" y="464"/>
      <point x="515" y="453" type="curve"/>
      <point x="538" y="512" type="line"/>
      <point x="523" y="522"/>
      <point x="483" y="546"/>
      <point x="418" y="546" type="curve" smooth="yes"/>
      <point x="317" y="546"/>
      <point x="233" y="474"/>
      <point x="233" y="348" type="curve" smooth="yes"/>
      <point x="233" y="221"/>
      <point x="308" y="148"/>
    </contour>
    <contour>
      <point x="408" y="52" type="curve" smooth="yes"/>
      <point x="251" y="52"/>
      <point x="139" y="170"/>
      <point x="139" y="347" type="curve"/>
      <point x="139" y="524"/>
      <point x="251" y="641"/>
      <point x="408" y="641" type="curve" smooth="yes"/>
      <point x="565" y="641"/>
      <point x="677" y="524"/>
      <point x="677" y="347" type="curve"/>
      <point x="677" y="170"/>
      <point x="565" y="52"/>
    </contour>
  </outline>
</glyph>
<glyph name="ordfeminine" format="2">
  <advance width="390.3225"/>
  <unicode hex="00AA"/>
  <outline>
    <contour>
      <point x="195" y="324" type="curve" smooth="yes"/>
      <point x="245" y="324"/>
      <point x="304" y="332"/>
      <point x="336" y="340" type="curve"/>
      <point x="336" y="566" type="line" smooth="yes"/>
      <point x="336" y="650"/>
      <point x="298" y="705"/>
      <point x="190" y="705" type="curve" smooth="yes"/>
      <point x="145" y="705"/>
      <point x="101" y="697"/>
      <point x="78" y="690" type="curve"/>
      <point x="88" y="630" type="line"/>
      <point x="115" y="639"/>
      <point x="150" y="643"/>
      <point x="186" y="643" type="curve" smooth="yes"/>
      <point x="255" y="643"/>
      <point x="265" y="601"/>
      <point x="265" y="557" type="curve" smooth="yes"/>
      <point x="265" y="548" type="line"/>
      <point x="242" y="552"/>
      <point x="218" y="555"/>
      <point x="199" y="555" type="curve" smooth="yes"/>
      <point x="112" y="555"/>
      <point x="39" y="524"/>
      <point x="39" y="440" type="curve" smooth="yes"/>
      <point x="39" y="358"/>
      <point x="101" y="324"/>
    </contour>
    <contour>
      <point x="197" y="384" type="curve" smooth="yes"/>
      <point x="136" y="384"/>
      <point x="113" y="403"/>
      <point x="113" y="444" type="curve" smooth="yes"/>
      <point x="113" y="488"/>
      <point x="155" y="500"/>
      <point x="207" y="500" type="curve" smooth="yes"/>
      <point x="228" y="500"/>
      <point x="250" y="497"/>
      <point x="265" y="494" type="curve"/>
      <point x="265" y="388" type="line"/>
      <point x="251" y="386"/>
      <point x="223" y="384"/>
    </contour>
  </outline>
</glyph>
<glyph name="registered" format="2">
  <advance width="816.025"/>
  <unicode hex="00AE"/>
  <outline>
    <contour>
      <point x="408" y="-15" type="curve" smooth="yes"/>
      <point x="589" y="-15"/>
      <point x="750.005" y="119"/>
      <point x="750.005" y="347" type="curve" smooth="yes"/>
      <point x="750.005" y="575"/>
      <point x="589" y="708"/>
      <point x="408" y="708" type="curve" smooth="yes"/>
      <point x="227" y="708"/>
      <point x="66" y="575"/>
      <point x="66" y="347" type="curve" smooth="yes"/>
      <point x="66" y="119"/>
      <point x="227" y="-15"/>
    </contour>
    <contour>
      <point x="408" y="52" type="curve" smooth="yes"/>
      <point x="251" y="52"/>
      <point x="139" y="170"/>
      <point x="139" y="347" type="curve" smooth="yes"/>
      <point x="139" y="524"/>
      <point x="251" y="641"/>
      <point x="408" y="641" type="curve" smooth="yes"/>
      <point x="565" y="641"/>
      <point x="677" y="524"/>
      <point x="677" y="347" type="curve" smooth="yes"/>
      <point x="677" y="170"/>
      <point x="565" y="52"/>
    </contour>
    <contour>
      <point x="273" y="158" type="line"/>
      <point x="342" y="158" type="line"/>
      <point x="342" y="302" type="line"/>
      <point x="392" y="302" type="line"/>
      <point x="398" y="302"/>
      <point x="405" y="302"/>
      <point x="413" y="302" type="curve"/>
      <point x="438" y="270"/>
      <point x="470" y="217"/>
      <point x="500" y="158" type="curve"/>
      <point x="575" y="158" type="line"/>
      <point x="546" y="221"/>
      <point x="505" y="287"/>
      <point x="480" y="317" type="curve"/>
      <point x="526" y="336"/>
      <point x="551" y="374"/>
      <point x="551" y="419" type="curve" smooth="yes"/>
      <point x="551" y="501"/>
      <point x="492" y="543"/>
      <point x="381" y="543" type="curve" smooth="yes"/>
      <point x="349" y="543"/>
      <point x="308" y="539"/>
      <point x="273" y="530" type="curve"/>
    </contour>
    <contour>
      <point x="342" y="358" type="line"/>
      <point x="342" y="481" type="line"/>
      <point x="353" y="482"/>
      <point x="370" y="483"/>
      <point x="386" y="483" type="curve" smooth="yes"/>
      <point x="437" y="483"/>
      <point x="479" y="467"/>
      <point x="479" y="420" type="curve" smooth="yes"/>
      <point x="479" y="370"/>
      <point x="439" y="358"/>
      <point x="381" y="358" type="curve" smooth="yes"/>
    </contour>
  </outline>
</glyph>
<glyph name="macron" format="2">
  <advance width="376"/>
  <unicode hex="00AF"/>
  <outline>
    <contour>
      <point x="46" y="640" type="line"/>
      <point x="330" y="640" type="line"/>
      <point x="330" y="711" type="line"/>
      <point x="46" y="711" type="line"/>
    </contour>
  </outline>
</glyph>
<glyph name="degree" format="2">
  <advance width="332.9625"/>
  <unicode hex="00B0"/>
  <outline>
    <contour>
      <point x="166" y="498" type="curve"/>
      <point x="242" y="498"/>
      <point x="307" y="549"/>
      <point x="307" y="637" type="curve"/>
      <point x="307" y="724"/>
      <point x="242" y="776"/>
      <point x="166" y="776" type="curve" smooth="yes"/>
      <point x="91" y="776"/>
      <point x="26.008" y="724.003"/>
      <point x="26" y="637" type="curve" smooth="yes"/>
      <point x="26" y="549"/>
      <point x="91" y="498"/>
    </contour>
    <contour>
      <point x="166" y="560" type="curve"/>
      <point x="126" y="560"/>
      <point x="93" y="590"/>
      <point x="93" y="637" type="curve" smooth="yes"/>
      <point x="93" y="684"/>
      <point x="126" y="713"/>
      <point x="166" y="713" type="curve"/>
      <point x="206" y="713"/>
      <point x="239" y="684"/>
      <point x="239" y="637" type="curve" smooth="yes"/>
      <point x="239" y="590"/>
      <point x="206" y="560"/>
    </contour>
  </outline>
</glyph>
<glyph name="plusminus" format="2">
  <advance width="565.33"/>
  <unicode hex="00B1"/>
  <outline>
    <contour>
      <point x="241" y="139" type="line"/>
      <point x="325" y="139" type="line"/>
      <point x="325" y="340" type="line"/>
      <point x="512" y="340" type="line"/>
      <point x="512" y="419" type="line"/>
      <point x="325" y="419" type="line"/>
      <point x="325" y="620" type="line"/>
      <point x="241" y="620" type="line"/>
      <point x="241" y="419" type="line"/>
      <point x="54" y="419" type="line"/>
      <point x="54" y="340" type="line"/>
      <point x="241" y="340" type="line"/>
    </contour>
    <contour>
      <point x="54" y="0" type="line"/>
      <point x="512" y="0" type="line"/>
      <point x="512" y="79" type="line"/>
      <point x="54" y="79" type="line"/>
    </contour>
  </outline>
</glyph>
<glyph name="threesuperior" format="2">
  <advance width="360.33"/>
  <unicode hex="00B3"/>
  <outline>
    <contour>
      <point x="149" y="304" type="curve" smooth="yes"/>
      <point x="263" y="304"/>
      <point x="306" y="358"/>
      <point x="306" y="423" type="curve" smooth="yes"/>
      <point x="306" y="474"/>
      <point x="277" y="507"/>
      <point x="230" y="524" type="curve"/>
      <point x="268" y="543"/>
      <point x="285" y="570"/>
      <point x="285" y="608" type="curve" smooth="yes"/>
      <point x="285" y="664"/>
      <point x="251" y="708"/>
      <point x="158" y="708" type="curve" smooth="yes"/>
      <point x="104" y="708"/>
      <point x="59" y="688"/>
      <point x="38" y="673" type="curve"/>
      <point x="64" y="619" type="line"/>
      <point x="85" y="631"/>
      <point x="115" y="646"/>
      <point x="154" y="646" type="curve" smooth="yes"/>
      <point x="191" y="646"/>
      <point x="214" y="633"/>
      <point x="214" y="600" type="curve" smooth="yes"/>
      <point x="214" y="557"/>
      <point x="176" y="545"/>
      <point x="133" y="545" type="curve" smooth="yes"/>
      <point x="109" y="545" type="line"/>
      <point x="109" y="488" type="line"/>
      <point x="131" y="488" type="line" smooth="yes"/>
      <point x="187" y="488"/>
      <point x="233" y="471"/>
      <point x="233" y="425" type="curve" smooth="yes"/>
      <point x="233" y="392"/>
      <point x="213" y="367"/>
      <point x="147" y="367" type="curve" smooth="yes"/>
      <point x="107" y="367"/>
      <point x="80" y="376"/>
      <point x="52" y="388" type="curve"/>
      <point x="36" y="327" type="line"/>
      <point x="60" y="315"/>
      <point x="100" y="304"/>
    </contour>
  </outline>
</glyph>
<glyph name="acute" format="2">
  <advance width="346.075"/>
  <unicode hex="00B4"/>
  <outline>
    <contour>
      <point x="128" y="581" type="line"/>
      <point x="297" y="720" type="line"/>
      <point x="236" y="782" type="line"/>
      <point x="83" y="626" type="line"/>
    </contour>
  </outline>
</glyph>
<glyph name="paragraph" format="2">
  <advance width="647.255"/>
  <unicode hex="00B6"/>
  <outline>
    <contour>
      <point x="278" y="-185" type="line"/>
      <point x="364" y="-185" type="line"/>
      <point x="364" y="620" type="line"/>
      <point x="392" y="623"/>
      <point x="443" y="621"/>
      <point x="468" y="617" type="curve"/>
      <point x="468" y="-185" type="line"/>
      <point x="553" y="-185" type="line"/>
      <point x="553" y="682" type="line"/>
      <point x="499" y="695"/>
      <point x="422" y="700"/>
      <point x="367" y="700" type="curve" smooth="yes"/>
      <point x="171" y="700"/>
      <point x="44.005" y="625.005"/>
      <point x="44" y="479" type="curve" smooth="yes"/>
      <point x="44" y="342"/>
      <point x="131" y="277"/>
      <point x="278" y="262" type="curve"/>
    </contour>
  </outline>
</glyph>
<glyph name="onesuperior" format="2">
  <advance width="360.33"/>
  <unicode hex="00B9"/>
  <outline>
    <contour>
      <point x="170" y="312" type="line"/>
      <point x="244" y="312" type="line"/>
      <point x="244" y="700" type="line"/>
      <point x="190" y="700" type="line"/>
      <point x="155.007" y="663.992"/>
      <point x="103" y="636"/>
      <point x="53" y="619" type="curve"/>
      <point x="72" y="562" type="line"/>
      <point x="98" y="570"/>
      <point x="141" y="586"/>
      <point x="170" y="605" type="curve"/>
    </contour>
  </outline>
</glyph>
<glyph name="ordmasculine" format="2">
  <advance width="443.65"/>
  <unicode hex="00BA"/>
  <outline>
    <contour>
      <point x="222" y="323" type="curve" smooth="yes"/>
      <point x="327" y="323"/>
      <point x="402" y="398"/>
      <point x="402" y="514" type="curve" smooth="yes"/>
      <point x="402" y="631"/>
      <point x="327" y="706"/>
      <point x="222" y="706" type="curve" smooth="yes"/>
      <point x="117" y="706"/>
      <point x="42" y="631"/>
      <point x="42" y="514" type="curve" smooth="yes"/>
      <point x="42" y="398"/>
      <point x="117" y="323"/>
    </contour>
    <contour>
      <point x="222" y="389" type="curve" smooth="yes"/>
      <point x="159" y="389"/>
      <point x="119" y="438"/>
      <point x="119" y="514" type="curve" smooth="yes"/>
      <point x="119" y="591"/>
      <point x="159" y="640"/>
      <point x="222" y="640" type="curve" smooth="yes"/>
      <point x="285" y="640"/>
      <point x="325" y="591"/>
      <point x="325" y="514" type="curve" smooth="yes"/>
      <point x="325" y="438"/>
      <point x="285" y="389"/>
    </contour>
  </outline>
</glyph>
<glyph name="questiondown" format="2">
  <advance width="404.9375"/>
  <unicode hex="00BF"/>
  <outline>
    <contour>
      <point x="223" y="-190" type="curve" smooth="yes"/>
      <point x="288" y="-190"/>
      <point x="351" y="-171"/>
      <point x="387" y="-150" type="curve"/>
      <point x="360" y="-76" type="line"/>
      <point x="318" y="-98"/>
      <point x="279" y="-109"/>
      <point x="233" y="-109" type="curve" smooth="yes"/>
      <point x="172" y="-109"/>
      <point x="126" y="-86"/>
      <point x="126" y="-30" type="curve"/>
      <point x="126" y="70"/>
      <point x="278" y="123"/>
      <point x="278" y="252" type="curve" smooth="yes"/>
      <point x="278" y="266"/>
      <point x="278" y="279"/>
      <point x="275" y="292" type="curve"/>
      <point x="197" y="292" type="line"/>
      <point x="198" y="284"/>
      <point x="198" y="279"/>
      <point x="198" y="272" type="curve" smooth="yes"/>
      <point x="198" y="147"/>
      <point x="28" y="101"/>
      <point x="28" y="-37" type="curve" smooth="yes"/>
      <point x="28" y="-103"/>
      <point x="70" y="-190"/>
    </contour>
    <contour>
      <point x="231" y="385" type="curve" smooth="yes"/>
      <point x="269" y="385"/>
      <point x="298" y="413"/>
      <point x="298" y="452" type="curve" smooth="yes"/>
      <point x="298" y="492"/>
      <point x="269" y="520"/>
      <point x="231" y="520" type="curve" smooth="yes"/>
      <point x="192" y="520"/>
      <point x="163.002" y="492"/>
      <point x="163" y="452" type="curve" smooth="yes"/>
      <point x="163" y="413"/>
      <point x="192" y="385"/>
    </contour>
  </outline>
</glyph>
<glyph name="Ccedilla" format="2">
  <advance width="621.9675"/>
  <unicode hex="00C7"/>
  <outline>
    <contour>
      <point x="331" y="-198" type="curve" smooth="yes"/>
      <point x="412" y="-198"/>
      <point x="442" y="-159"/>
      <point x="442" y="-116" type="curve" smooth="yes"/>
      <point x="442" y="-79"/>
      <point x="422" y="-55"/>
      <point x="383" y="-37" type="curve"/>
      <point x="385" y="-30"/>
      <point x="389" y="-22"/>
      <point x="393" y="-14" type="curve"/>
      <point x="394" y="-14"/>
      <point x="395" y="-14"/>
      <point x="397" y="-14" type="curve" smooth="yes"/>
      <point x="500" y="-13"/>
      <point x="571" y="14"/>
      <point x="597" y="30" type="curve"/>
      <point x="570" y="110" type="line"/>
      <point x="538" y="94"/>
      <point x="482" y="72"/>
      <point x="393" y="72" type="curve" smooth="yes"/>
      <point x="238" y="72"/>
      <point x="160" y="183"/>
      <point x="160" y="347" type="curve" smooth="yes"/>
      <point x="160" y="519"/>
      <point x="250" y="622"/>
      <point x="397" y="622" type="curve" smooth="yes"/>
      <point x="471" y="622"/>
      <point x="524" y="600"/>
      <point x="560" y="579" type="curve"/>
      <point x="590" y="660" type="line"/>
      <point x="567" y="674"/>
      <point x="498" y="708"/>
      <point x="389" y="708" type="curve" smooth="yes"/>
      <point x="210" y="708"/>
      <point x="58" y="579"/>
      <point x="58" y="347" type="curve" smooth="yes"/>
      <point x="58" y="136"/>
      <point x="166" y="11"/>
      <point x="331" y="-11" type="curve"/>
      <point x="321.995" y="-29"/>
      <point x="313" y="-50"/>
      <point x="308" y="-66" type="curve"/>
      <point x="349" y="-79"/>
      <point x="365" y="-90"/>
      <point x="365" y="-110" type="curve" smooth="yes"/>
      <point x="364" y="-129"/>
      <point x="350" y="-138"/>
      <point x="325" y="-138" type="curve" smooth="yes"/>
      <point x="299" y="-138"/>
      <point x="278" y="-133"/>
      <point x="265" y="-128" type="curve"/>
      <point x="254" y="-186" type="line"/>
      <point x="272" y="-193"/>
      <point x="303" y="-198"/>
    </contour>
  </outline>
</glyph>
<glyph name="Eth" format="2">
  <advance width="726.64"/>
  <unicode hex="00D0"/>
  <outline>
    <contour>
      <point x="282" y="-7" type="curve" smooth="yes"/>
      <point x="513" y="-7"/>
      <point x="669" y="110"/>
      <point x="669" y="347" type="curve" smooth="yes"/>
      <point x="669" y="587"/>
      <point x="512" y="700"/>
      <point x="283" y="700" type="curve" smooth="yes"/>
      <point x="227" y="700"/>
      <point x="154" y="694"/>
      <point x="100" y="681" type="curve"/>
      <point x="100" y="399" type="line"/>
      <point x="19" y="399" type="line"/>
      <point x="19" y="324" type="line"/>
      <point x="100" y="324" type="line"/>
      <point x="100" y="11" type="line"/>
      <point x="154" y="-2"/>
      <point x="226" y="-7"/>
    </contour>
    <contour>
      <point x="290" y="77" type="curve" smooth="yes"/>
      <point x="233" y="77"/>
      <point x="207" y="81"/>
      <point x="197" y="82" type="curve"/>
      <point x="197" y="324" type="line"/>
      <point x="327" y="324" type="line"/>
      <point x="327" y="399" type="line"/>
      <point x="197" y="399" type="line"/>
      <point x="197" y="610" type="line"/>
      <point x="209" y="612"/>
      <point x="236" y="616"/>
      <point x="291" y="616" type="curve" smooth="yes"/>
      <point x="476" y="616"/>
      <point x="567" y="516"/>
      <point x="567" y="347" type="curve" smooth="yes"/>
      <point x="567" y="179"/>
      <point x="474" y="77"/>
    </contour>
  </outline>
</glyph>
<glyph name="multiply" format="2">
  <advance width="565.33"/>
  <unicode hex="00D7"/>
  <outline>
    <contour>
      <point x="136" y="90" type="line"/>
      <point x="283" y="238" type="line"/>
      <point x="430" y="90" type="line"/>
      <point x="485" y="145" type="line"/>
      <point x="337" y="292" type="line"/>
      <point x="485" y="440" type="line"/>
      <point x="430" y="495" type="line"/>
      <point x="283" y="347" type="line"/>
      <point x="136" y="495" type="line"/>
      <point x="81" y="440" type="line"/>
      <point x="229" y="292" type="line"/>
      <point x="81" y="145" type="line"/>
    </contour>
  </outline>
</glyph>
<glyph name="Oslash" format="2">
  <advance width="779.32"/>
  <unicode hex="00D8"/>
  <anchor x="390" y="0" name="bottom"/>
  <anchor x="390" y="693" name="top"/>
  <outline>
    <contour>
      <point x="141" y="-38" type="line"/>
      <point x="201" y="41" type="line"/>
      <point x="255" y="3"/>
      <point x="320" y="-15"/>
      <point x="390" y="-15" type="curve" smooth="yes"/>
      <point x="572" y="-15"/>
      <point x="721" y="109"/>
      <point x="721" y="347" type="curve" smooth="yes"/>
      <point x="721" y="457"/>
      <point x="689" y="542"/>
      <point x="636" y="602" type="curve"/>
      <point x="701" y="686" type="line"/>
      <point x="640" y="731" type="line"/>
      <point x="579" y="652" type="line"/>
      <point x="525" y="689"/>
      <point x="460" y="708"/>
      <point x="390" y="708" type="curve" smooth="yes"/>
      <point x="212" y="708"/>
      <point x="58" y="585"/>
      <point x="58" y="347" type="curve" smooth="yes"/>
      <point x="58" y="236"/>
      <point x="90" y="149"/>
      <point x="144" y="89" type="curve"/>
      <point x="81" y="7" type="line"/>
    </contour>
    <contour>
      <point x="206" y="169" type="line"/>
      <point x="176" y="214"/>
      <point x="160" y="275"/>
      <point x="160" y="347" type="curve" smooth="yes"/>
      <point x="160" y="515"/>
      <point x="248" y="622"/>
      <point x="390" y="622" type="curve" smooth="yes"/>
      <point x="442" y="622"/>
      <point x="487" y="607"/>
      <point x="523" y="579" type="curve"/>
    </contour>
    <contour>
      <point x="390" y="72" type="curve" smooth="yes"/>
      <point x="338" y="72"/>
      <point x="293" y="85"/>
      <point x="257" y="112" type="curve"/>
      <point x="574" y="523" type="line"/>
      <point x="604" y="478"/>
      <point x="620" y="418"/>
      <point x="620" y="347" type="curve" smooth="yes"/>
      <point x="620" y="178"/>
      <point x="531" y="72"/>
    </contour>
  </outline>
</glyph>
<glyph name="Thorn" format="2">
  <advance width="609.9575"/>
  <unicode hex="00DE"/>
  <anchor x="305" y="0" name="bottom"/>
  <anchor x="305" y="693" name="top"/>
  <outline>
    <contour>
      <point x="87" y="0" type="line"/>
      <point x="184" y="0" type="line"/>
      <point x="184" y="139" type="line"/>
      <point x="263" y="139" type="line" smooth="yes"/>
      <point x="458" y="139"/>
      <point x="574" y="201"/>
      <point x="574" y="362" type="curve" smooth="yes"/>
      <point x="574" y="509"/>
      <point x="468" y="583"/>
      <point x="278" y="583" type="curve" smooth="yes"/>
      <point x="251" y="583"/>
      <point x="205" y="581"/>
      <point x="184" y="578" type="curve"/>
      <point x="184" y="693" type="line"/>
      <point x="87" y="693" type="line"/>
    </contour>
    <contour>
      <point x="184" y="223" type="line"/>
      <point x="184" y="494" type="line"/>
      <point x="205" y="497"/>
      <point x="237" y="499"/>
      <point x="277" y="499" type="curve" smooth="yes"/>
      <point x="382" y="499"/>
      <point x="473" y="470"/>
      <point x="473" y="363" type="curve" smooth="yes"/>
      <point x="473" y="250"/>
      <point x="391" y="223"/>
      <point x="258" y="223" type="curve" smooth="yes"/>
    </contour>
  </outline>
</glyph>
<glyph name="germandbls" format="2">
  <advance width="616.9475"/>
  <unicode hex="00DF"/>
  <anchor x="309" y="0" name="bottom"/>
  <anchor x="309" y="776" name="top"/>
  <outline>
    <contour>
      <point x="383" y="-12" type="curve" smooth="yes"/>
      <point x="513" y="-12"/>
      <point x="582" y="47"/>
      <point x="582" y="152" type="curve" smooth="yes"/>
      <point x="582" y="248"/>
      <point x="526" y="285"/>
      <point x="456" y="320" type="curve"/>
      <point x="415" y="340"/>
      <point x="375" y="358"/>
      <point x="375" y="396" type="curve"/>
      <point x="375" y="428"/>
      <point x="393" y="447"/>
      <point x="427" y="484" type="curve"/>
      <point x="454" y="513"/>
      <point x="493" y="551"/>
      <point x="493" y="616" type="curve" smooth="yes"/>
      <point x="493" y="708"/>
      <point x="432" y="776"/>
      <point x="294" y="776" type="curve" smooth="yes"/>
      <point x="158" y="776"/>
      <point x="81" y="687"/>
      <point x="81" y="554" type="curve" smooth="yes"/>
      <point x="81" y="0" type="line"/>
      <point x="173" y="0" type="line"/>
      <point x="173" y="552" type="line"/>
      <point x="173" y="641"/>
      <point x="211" y="696"/>
      <point x="300" y="696" type="curve" smooth="yes"/>
      <point x="363" y="696"/>
      <point x="403" y="661"/>
      <point x="403" y="606" type="curve"/>
      <point x="403" y="563"/>
      <point x="382" y="541"/>
      <point x="347" y="504" type="curve"/>
      <point x="312.993" y="467"/>
      <point x="283" y="435"/>
      <point x="283" y="386" type="curve" smooth="yes"/>
      <point x="283" y="332"/>
      <point x="302" y="304"/>
      <point x="386" y="262" type="curve"/>
      <point x="455" y="228"/>
      <point x="488" y="202"/>
      <point x="488" y="151" type="curve" smooth="yes"/>
      <point x="488" y="99"/>
      <point x="453" y="67"/>
      <point x="390" y="67" type="curve" smooth="yes"/>
      <point x="326" y="67"/>
      <point x="283" y="87"/>
      <point x="267" y="95" type="curve"/>
      <point x="250" y="15" type="line"/>
      <point x="267" y="6"/>
      <point x="315" y="-12"/>
    </contour>
  </outline>
</glyph>
<glyph name="ae" format="2">
  <advance width="860.65"/>
  <unicode hex="00E6"/>
  <anchor x="430" y="0" name="bottom"/>
  <anchor x="430" y="520" name="top"/>
  <outline>
    <contour>
      <point x="255" y="-12" type="curve" smooth="yes"/>
      <point x="342" y="-12"/>
      <point x="400" y="18"/>
      <point x="436" y="44" type="curve"/>
      <point x="479" y="7"/>
      <point x="537" y="-12"/>
      <point x="614" y="-12" type="curve" smooth="yes"/>
      <point x="685" y="-12"/>
      <point x="749" y="7"/>
      <point x="771" y="19" type="curve"/>
      <point x="757" y="97" type="line"/>
      <point x="734" y="86"/>
      <point x="687" y="70"/>
      <point x="622" y="70" type="curve" smooth="yes"/>
      <point x="509" y="70"/>
      <point x="454" y="130"/>
      <point x="449" y="235" type="curve"/>
      <point x="804" y="235" type="line"/>
      <point x="805" y="246"/>
      <point x="806" y="262"/>
      <point x="806" y="274" type="curve" smooth="yes"/>
      <point x="806" y="447"/>
      <point x="722" y="533"/>
      <point x="589" y="533" type="curve" smooth="yes"/>
      <point x="524" y="533"/>
      <point x="461" y="504"/>
      <point x="416" y="444" type="curve"/>
      <point x="389" y="500"/>
      <point x="339" y="533"/>
      <point x="248" y="533" type="curve" smooth="yes"/>
      <point x="182" y="533"/>
      <point x="125" y="521"/>
      <point x="98" y="510" type="curve"/>
      <point x="110" y="432" type="line"/>
      <point x="133" y="441"/>
      <point x="176" y="453"/>
      <point x="241" y="453" type="curve" smooth="yes"/>
      <point x="338" y="453"/>
      <point x="358" y="394"/>
      <point x="358" y="330" type="curve" smooth="yes"/>
      <point x="358" y="303" type="line"/>
      <point x="345" y="308"/>
      <point x="300" y="316"/>
      <point x="262" y="316" type="curve" smooth="yes"/>
      <point x="140" y="316"/>
      <point x="44" y="271"/>
      <point x="44" y="155" type="curve" smooth="yes"/>
      <point x="44" y="34"/>
      <point x="132" y="-12"/>
    </contour>
    <contour>
      <point x="258" y="66" type="curve" smooth="yes"/>
      <point x="187" y="66"/>
      <point x="138" y="88"/>
      <point x="138" y="156" type="curve" smooth="yes"/>
      <point x="138" y="231"/>
      <point x="209" y="245"/>
      <point x="270" y="245" type="curve" smooth="yes"/>
      <point x="311" y="245"/>
      <point x="343" y="238"/>
      <point x="359" y="233" type="curve"/>
      <point x="360" y="181"/>
      <point x="370" y="140"/>
      <point x="391" y="102" type="curve"/>
      <point x="370" y="87"/>
      <point x="327" y="66"/>
    </contour>
    <contour>
      <point x="450" y="305" type="line"/>
      <point x="456" y="383"/>
      <point x="504" y="453"/>
      <point x="588" y="453" type="curve" smooth="yes"/>
      <point x="669" y="453"/>
      <point x="711" y="394"/>
      <point x="713" y="305" type="curve"/>
    </contour>
  </outline>
</glyph>
<glyph name="ccedilla" format="2">
  <advance width="473.3"/>
  <unicode hex="00E7"/>
  <outline>
    <contour>
      <point x="253" y="-198" type="curve" smooth="yes"/>
      <point x="334" y="-198"/>
      <point x="365" y="-159"/>
      <point x="365" y="-116" type="curve" smooth="yes"/>
      <point x="365" y="-79"/>
      <point x="344" y="-55"/>
      <point x="305" y="-37" type="curve"/>
      <point x="308" y="-30"/>
      <point x="313" y="-21"/>
      <point x="317" y="-12" type="curve"/>
      <point x="370" y="-10"/>
      <point x="422" y="3"/>
      <point x="448" y="16" type="curve"/>
      <point x="432" y="94" type="line"/>
      <point x="409" y="83"/>
      <point x="367" y="70"/>
      <point x="319" y="70" type="curve" smooth="yes"/>
      <point x="194" y="70"/>
      <point x="148" y="145"/>
      <point x="148" y="259" type="curve" smooth="yes"/>
      <point x="148" y="379"/>
      <point x="203" y="451"/>
      <point x="309" y="451" type="curve" smooth="yes"/>
      <point x="359" y="451"/>
      <point x="390" y="442"/>
      <point x="417" y="429" type="curve"/>
      <point x="439" y="506" type="line"/>
      <point x="407" y="523"/>
      <point x="356" y="533"/>
      <point x="301" y="533" type="curve" smooth="yes"/>
      <point x="146" y="533"/>
      <point x="52" y="418"/>
      <point x="52" y="259" type="curve" smooth="yes"/>
      <point x="52" y="116"/>
      <point x="119" y="12"/>
      <point x="255" y="-8" type="curve"/>
      <point x="246" y="-26"/>
      <point x="235" y="-49"/>
      <point x="230" y="-66" type="curve"/>
      <point x="271" y="-79"/>
      <point x="288" y="-90"/>
      <point x="287" y="-110" type="curve" smooth="yes"/>
      <point x="287" y="-129"/>
      <point x="272" y="-138"/>
      <point x="248" y="-138" type="curve" smooth="yes"/>
      <point x="222" y="-138"/>
      <point x="201" y="-133"/>
      <point x="188" y="-128" type="curve"/>
      <point x="177" y="-186" type="line"/>
      <point x="194" y="-193"/>
      <point x="226" y="-198"/>
    </contour>
  </outline>
</glyph>
<glyph name="eth" format="2">
  <advance width="585.6475"/>
  <unicode hex="00F0"/>
  <anchor x="293" y="0" name="bottom"/>
  <anchor x="293" y="776" name="top"/>
  <outline>
    <contour>
      <point x="283" y="-13" type="curve" smooth="yes"/>
      <point x="476" y="-13"/>
      <point x="531" y="154"/>
      <point x="531" y="328" type="curve" smooth="yes"/>
      <point x="531" y="442"/>
      <point x="501" y="542"/>
      <point x="450" y="624" type="curve"/>
      <point x="551" y="659" type="line"/>
      <point x="530" y="717" type="line"/>
      <point x="411" y="676" type="line"/>
      <point x="378" y="716"/>
      <point x="338" y="750"/>
      <point x="293" y="777" type="curve"/>
      <point x="237" y="723" type="line"/>
      <point x="270" y="701"/>
      <point x="301" y="675"/>
      <point x="327" y="646" type="curve"/>
      <point x="222" y="610" type="line"/>
      <point x="243" y="552" type="line"/>
      <point x="367" y="595" type="line"/>
      <point x="399" y="545"/>
      <point x="419" y="491"/>
      <point x="427" y="442" type="curve"/>
      <point x="403" y="459"/>
      <point x="353" y="485"/>
      <point x="288.993" y="485.005" type="curve" smooth="yes"/>
      <point x="142" y="485"/>
      <point x="52" y="394"/>
      <point x="52" y="241" type="curve" smooth="yes"/>
      <point x="52" y="103"/>
      <point x="135" y="-13"/>
    </contour>
    <contour>
      <point x="283" y="70" type="curve" smooth="yes"/>
      <point x="193" y="70"/>
      <point x="147" y="147"/>
      <point x="147" y="242" type="curve" smooth="yes"/>
      <point x="147" y="334"/>
      <point x="189" y="407"/>
      <point x="298" y="407" type="curve" smooth="yes"/>
      <point x="346" y="407"/>
      <point x="392" y="393"/>
      <point x="434" y="354" type="curve"/>
      <point x="435" y="343"/>
      <point x="435" y="334"/>
      <point x="435" y="325" type="curve" smooth="yes"/>
      <point x="435" y="197"/>
      <point x="408" y="70"/>
    </contour>
  </outline>
</glyph>
<glyph name="divide" format="2">
  <advance width="565.33"/>
  <unicode hex="00F7"/>
  <outline>
    <contour>
      <point x="54" y="253" type="line"/>
      <point x="512" y="253" type="line"/>
      <point x="512" y="332" type="line"/>
      <point x="54" y="332" type="line"/>
    </contour>
    <contour>
      <point x="282" y="38" type="curve" smooth="yes"/>
      <point x="316" y="38"/>
      <point x="343" y="62"/>
      <point x="343" y="99" type="curve" smooth="yes"/>
      <point x="343" y="136"/>
      <point x="316" y="160"/>
      <point x="282" y="160" type="curve" smooth="yes"/>
      <point x="250" y="160"/>
      <point x="223" y="136"/>
      <point x="223" y="99" type="curve" smooth="yes"/>
      <point x="223" y="62"/>
      <point x="250" y="38"/>
    </contour>
    <contour>
      <point x="282" y="424" type="curve" smooth="yes"/>
      <point x="316" y="424"/>
      <point x="343" y="447"/>
      <point x="343" y="485" type="curve" smooth="yes"/>
      <point x="343" y="522"/>
      <point x="316" y="546"/>
      <point x="282" y="546" type="curve" smooth="yes"/>
      <point x="250" y="546"/>
      <point x="223" y="522"/>
      <point x="223" y="485" type="curve" smooth="yes"/>
      <point x="223" y="447"/>
      <point x="250" y="424"/>
    </contour>
  </outline>
</glyph>
<glyph name="oslash" format="2">
  <advance width="590.3125"/>
  <unicode hex="00F8"/>
  <anchor x="295" y="520" name="top"/>
  <outline>
    <contour>
      <point x="109" y="-36" type="line"/>
      <point x="158" y="29" type="line"/>
      <point x="196" y="2"/>
      <point x="243" y="-13"/>
      <point x="295" y="-13" type="curve" smooth="yes"/>
      <point x="440" y="-13"/>
      <point x="539" y="96"/>
      <point x="539" y="260" type="curve" smooth="yes"/>
      <point x="539" y="336"/>
      <point x="518" y="400"/>
      <point x="480" y="446" type="curve"/>
      <point x="534" y="516" type="line"/>
      <point x="482" y="554" type="line"/>
      <point x="433" y="490" type="line"/>
      <point x="395" y="517"/>
      <point x="348" y="533"/>
      <point x="295" y="533" type="curve" smooth="yes"/>
      <point x="154" y="533"/>
      <point x="52" y="424"/>
      <point x="52" y="260" type="curve" smooth="yes"/>
      <point x="52" y="183"/>
      <point x="72" y="120"/>
      <point x="111" y="72" type="curve"/>
      <point x="57" y="3" type="line"/>
    </contour>
    <contour>
      <point x="295" y="67" type="curve" smooth="yes"/>
      <point x="262" y="67"/>
      <point x="233" y="76"/>
      <point x="210" y="95" type="curve"/>
      <point x="421" y="370" type="line"/>
      <point x="436" y="340"/>
      <point x="445" y="302"/>
      <point x="445" y="260" type="curve" smooth="yes"/>
      <point x="445" y="142"/>
      <point x="387" y="67"/>
    </contour>
    <contour>
      <point x="169" y="149" type="line"/>
      <point x="153" y="178"/>
      <point x="146" y="216"/>
      <point x="146" y="260" type="curve" smooth="yes"/>
      <point x="146" y="378"/>
      <point x="203" y="453"/>
      <point x="295" y="453" type="curve" smooth="yes"/>
      <point x="329" y="453"/>
      <point x="359" y="442"/>
      <point x="382" y="423" type="curve"/>
    </contour>
  </outline>
</glyph>
<glyph name="thorn" format="2">
  <advance width="589.9825"/>
  <unicode hex="00FE"/>
  <anchor x="295" y="0" name="bottom"/>
  <anchor x="295" y="520" name="top"/>
  <outline>
    <contour>
      <point x="81" y="-185" type="line"/>
      <point x="174" y="-185" type="line"/>
      <point x="174" y="24" type="line"/>
      <point x="200" y="8"/>
      <point x="247" y="-11"/>
      <point x="306" y="-11" type="curve" smooth="yes"/>
      <point x="455" y="-11"/>
      <point x="538" y="100"/>
      <point x="538" y="259" type="curve" smooth="yes"/>
      <point x="538" y="426"/>
      <point x="437" y="531"/>
      <point x="283" y="531" type="curve" smooth="yes"/>
      <point x="248" y="531"/>
      <point x="209" y="524"/>
      <point x="174" y="511" type="curve"/>
      <point x="174" y="776" type="line"/>
      <point x="81" y="760" type="line"/>
    </contour>
    <contour>
      <point x="292" y="70" type="curve" smooth="yes"/>
      <point x="241" y="70"/>
      <point x="195" y="91"/>
      <point x="174" y="108" type="curve"/>
      <point x="174" y="431" type="line"/>
      <point x="188" y="437"/>
      <point x="231" y="449"/>
      <point x="278" y="449" type="curve" smooth="yes"/>
      <point x="378" y="449"/>
      <point x="442" y="378"/>
      <point x="442" y="258" type="curve" smooth="yes"/>
      <point x="442" y="149"/>
      <point x="401" y="70"/>
    </contour>
  </outline>
</glyph>
<glyph name="Aogonek" format="2">
  <advance width="667.6"/>
  <unicode hex="0104"/>
  <outline>
    <contour>
      <point x="598" y="-198" type="curve" smooth="yes"/>
      <point x="622" y="-198"/>
      <point x="651" y="-193"/>
      <point x="667" y="-186" type="curve"/>
      <point x="660" y="-121" type="line"/>
      <point x="645" y="-126"/>
      <point x="629" y="-128"/>
      <point x="617" y="-128" type="curve" smooth="yes"/>
      <point x="594" y="-128"/>
      <point x="579" y="-118"/>
      <point x="579" y="-97" type="curve" smooth="yes"/>
      <point x="579" y="-62"/>
      <point x="633" y="-17"/>
      <point x="657" y="1" type="curve"/>
      <point x="549" y="295"/>
      <point x="474" y="494"/>
      <point x="378" y="693" type="curve"/>
      <point x="289" y="693" type="line"/>
      <point x="192" y="493"/>
      <point x="116.002" y="291.993"/>
      <point x="10" y="0" type="curve"/>
      <point x="111" y="0" type="line"/>
      <point x="132" y="61"/>
      <point x="154" y="120"/>
      <point x="174" y="177" type="curve"/>
      <point x="489" y="177" type="line"/>
      <point x="509" y="120"/>
      <point x="530" y="61"/>
      <point x="552" y="0" type="curve"/>
      <point x="568" y="0" type="line"/>
      <point x="536" y="-25"/>
      <point x="491" y="-70"/>
      <point x="491" y="-121" type="curve" smooth="yes"/>
      <point x="491" y="-166"/>
      <point x="521" y="-198"/>
    </contour>
    <contour>
      <point x="200" y="257" type="line"/>
      <point x="248" y="387"/>
      <point x="293" y="499"/>
      <point x="331" y="589" type="curve"/>
      <point x="370" y="499"/>
      <point x="414" y="387"/>
      <point x="463" y="257" type="curve"/>
    </contour>
  </outline>
</glyph>
<glyph name="aogonek" format="2">
  <advance width="523.63"/>
  <unicode hex="0105"/>
  <outline>
    <contour>
      <point x="381" y="-198" type="curve" smooth="yes"/>
      <point x="405" y="-198"/>
      <point x="434" y="-193"/>
      <point x="450" y="-186" type="curve"/>
      <point x="443" y="-121" type="line"/>
      <point x="428" y="-126"/>
      <point x="412" y="-128"/>
      <point x="400" y="-128" type="curve" smooth="yes"/>
      <point x="377" y="-128"/>
      <point x="362" y="-118"/>
      <point x="362" y="-97" type="curve" smooth="yes"/>
      <point x="362" y="-61"/>
      <point x="416" y="-15"/>
      <point x="449" y="12" type="curve"/>
      <point x="449" y="334" type="line" smooth="yes"/>
      <point x="449" y="451"/>
      <point x="398" y="533"/>
      <point x="248" y="533" type="curve" smooth="yes"/>
      <point x="182" y="533"/>
      <point x="125" y="521"/>
      <point x="98" y="510" type="curve"/>
      <point x="110" y="432" type="line"/>
      <point x="133" y="441"/>
      <point x="176" y="453"/>
      <point x="241" y="453" type="curve" smooth="yes"/>
      <point x="338" y="453"/>
      <point x="358" y="393"/>
      <point x="358" y="329" type="curve" smooth="yes"/>
      <point x="358" y="303" type="line"/>
      <point x="345" y="308"/>
      <point x="300" y="316"/>
      <point x="262" y="316" type="curve" smooth="yes"/>
      <point x="140" y="316"/>
      <point x="44" y="271"/>
      <point x="44" y="155" type="curve" smooth="yes"/>
      <point x="44" y="34"/>
      <point x="128" y="-11"/>
      <point x="246" y="-11" type="curve" smooth="yes"/>
      <point x="281.993" y="-11"/>
      <point x="318" y="-9"/>
      <point x="348" y="-5" type="curve"/>
      <point x="313" y="-33"/>
      <point x="274" y="-71"/>
      <point x="274" y="-121" type="curve" smooth="yes"/>
      <point x="274" y="-166"/>
      <point x="304" y="-198"/>
    </contour>
    <contour>
      <point x="256" y="66" type="curve" smooth="yes"/>
      <point x="183" y="66"/>
      <point x="138" y="88"/>
      <point x="138" y="156" type="curve" smooth="yes"/>
      <point x="138" y="231"/>
      <point x="209" y="245"/>
      <point x="270" y="245" type="curve" smooth="yes"/>
      <point x="314" y="245"/>
      <point x="344" y="237"/>
      <point x="358" y="232" type="curve"/>
      <point x="358" y="73" type="line"/>
      <point x="334" y="69"/>
      <point x="299" y="66"/>
    </contour>
  </outline>
</glyph>
<glyph name="dcroat" format="2">
  <advance width="590.6475"/>
  <unicode hex="0111"/>
  <outline>
    <contour>
      <point x="312" y="-12" type="curve" smooth="yes"/>
      <point x="397" y="-12"/>
      <point x="466" y="2"/>
      <point x="509" y="16" type="curve"/>
      <point x="509" y="617" type="line"/>
      <point x="583" y="617" type="line"/>
      <point x="583" y="683" type="line"/>
      <point x="509" y="683" type="line"/>
      <point x="509" y="776" type="line"/>
      <point x="416" y="760" type="line"/>
      <point x="416" y="683" type="line"/>
      <point x="247" y="683" type="line"/>
      <point x="247" y="617" type="line"/>
      <point x="416" y="617" type="line"/>
      <point x="416" y="491" type="line"/>
      <point x="390" y="507"/>
      <point x="344" y="526"/>
      <point x="286" y="526" type="curve" smooth="yes"/>
      <point x="137" y="526"/>
      <point x="52" y="416"/>
      <point x="52" y="256" type="curve" smooth="yes"/>
      <point x="52" y="91"/>
      <point x="154" y="-12"/>
    </contour>
    <contour>
      <point x="313" y="69" type="curve" smooth="yes"/>
      <point x="213" y="69"/>
      <point x="148" y="141"/>
      <point x="148" y="259" type="curve" smooth="yes"/>
      <point x="148" y="364"/>
      <point x="189" y="445"/>
      <point x="298" y="445" type="curve" smooth="yes"/>
      <point x="349" y="445"/>
      <point x="395" y="424"/>
      <point x="416" y="407" type="curve"/>
      <point x="416" y="80" type="line"/>
      <point x="398" y="75"/>
      <point x="364" y="69"/>
    </contour>
  </outline>
</glyph>
<glyph name="Eogonek" format="2">
  <advance width="571.9575"/>
  <unicode hex="0118"/>
  <anchor x="286" y="693" name="top"/>
  <outline>
    <contour>
      <point x="475" y="-198" type="curve" smooth="yes"/>
      <point x="499" y="-198"/>
      <point x="529" y="-193"/>
      <point x="544" y="-186" type="curve"/>
      <point x="537" y="-121" type="line"/>
      <point x="522" y="-126"/>
      <point x="507" y="-128"/>
      <point x="495" y="-128" type="curve" smooth="yes"/>
      <point x="471" y="-128"/>
      <point x="457" y="-118"/>
      <point x="457" y="-97" type="curve" smooth="yes"/>
      <point x="457" y="-62"/>
      <point x="510" y="-18"/>
      <point x="534" y="1" type="curve" smooth="yes"/>
      <point x="534" y="83" type="line"/>
      <point x="184" y="83" type="line"/>
      <point x="184" y="323" type="line"/>
      <point x="474" y="323" type="line"/>
      <point x="474" y="404" type="line"/>
      <point x="184" y="404" type="line"/>
      <point x="184" y="610" type="line"/>
      <point x="509" y="610" type="line"/>
      <point x="509" y="693" type="line"/>
      <point x="87" y="693" type="line"/>
      <point x="87" y="0" type="line"/>
      <point x="447" y="0" type="line"/>
      <point x="415" y="-24"/>
      <point x="368" y="-68"/>
      <point x="368" y="-121" type="curve" smooth="yes"/>
      <point x="368" y="-166"/>
      <point x="398" y="-198"/>
    </contour>
  </outline>
</glyph>
<glyph name="eogonek" format="2">
  <advance width="559.97"/>
  <unicode hex="0119"/>
  <anchor x="280" y="520" name="top"/>
  <outline>
    <contour>
      <point x="389" y="-198" type="curve" smooth="yes"/>
      <point x="412" y="-198"/>
      <point x="442" y="-193"/>
      <point x="458" y="-186" type="curve"/>
      <point x="450" y="-121" type="line"/>
      <point x="435" y="-126"/>
      <point x="420" y="-128"/>
      <point x="408" y="-128" type="curve" smooth="yes"/>
      <point x="384" y="-128"/>
      <point x="370" y="-118"/>
      <point x="370" y="-97" type="curve" smooth="yes"/>
      <point x="370" y="-63"/>
      <point x="429" y="-11"/>
      <point x="471" y="19" type="curve"/>
      <point x="456" y="97" type="line"/>
      <point x="433" y="86"/>
      <point x="387" y="70"/>
      <point x="322" y="70" type="curve" smooth="yes"/>
      <point x="209" y="70"/>
      <point x="154" y="130"/>
      <point x="149" y="235" type="curve"/>
      <point x="503" y="235" type="line"/>
      <point x="504" y="246"/>
      <point x="506" y="262"/>
      <point x="506" y="274" type="curve" smooth="yes"/>
      <point x="506" y="448"/>
      <point x="421" y="533"/>
      <point x="286" y="533" type="curve" smooth="yes"/>
      <point x="168" y="533"/>
      <point x="52" y="442"/>
      <point x="52" y="259" type="curve" smooth="yes"/>
      <point x="52" y="103"/>
      <point x="130" y="-11"/>
      <point x="314" y="-11" type="curve" smooth="yes"/>
      <point x="327" y="-11"/>
      <point x="341" y="-10"/>
      <point x="354" y="-8" type="curve"/>
      <point x="319" y="-35"/>
      <point x="282" y="-73"/>
      <point x="282" y="-121" type="curve" smooth="yes"/>
      <point x="282" y="-166"/>
      <point x="312" y="-198"/>
    </contour>
    <contour>
      <point x="150" y="305" type="line"/>
      <point x="156" y="383"/>
      <point x="204" y="453"/>
      <point x="288" y="453" type="curve" smooth="yes"/>
      <point x="368" y="453"/>
      <point x="411" y="394"/>
      <point x="413" y="305" type="curve"/>
    </contour>
  </outline>
</glyph>
<glyph name="Hbar" format="2">
  <advance width="731.97"/>
  <unicode hex="0126"/>
  <outline>
    <contour>
      <point x="100" y="0" type="line"/>
      <point x="197" y="0" type="line"/>
      <point x="197" y="317" type="line"/>
      <point x="535" y="317" type="line"/>
      <point x="535" y="0" type="line"/>
      <point x="632" y="0" type="line"/>
      <point x="632" y="522" type="line"/>
      <point x="713" y="522" type="line"/>
      <point x="713" y="595" type="line"/>
      <point x="632" y="595" type="line"/>
      <point x="632" y="693" type="line"/>
      <point x="535" y="693" type="line"/>
      <point x="535" y="595" type="line"/>
      <point x="197" y="595" type="line"/>
      <point x="197" y="693" type="line"/>
      <point x="100" y="693" type="line"/>
      <point x="100" y="595" type="line"/>
      <point x="19" y="595" type="line"/>
      <point x="19" y="522" type="line"/>
      <point x="100" y="522" type="line"/>
    </contour>
    <contour>
      <point x="197" y="401" type="line"/>
      <point x="197" y="522" type="line"/>
      <point x="535" y="522" type="line"/>
      <point x="535" y="401" type="line"/>
    </contour>
  </outline>
</glyph>
<glyph name="Iogonek" format="2">
  <advance width="270.61"/>
  <unicode hex="012E"/>
  <outline>
    <contour>
      <point x="128" y="-198" type="curve" smooth="yes"/>
      <point x="151" y="-198"/>
      <point x="181" y="-193"/>
      <point x="197" y="-186" type="curve"/>
      <point x="189" y="-121" type="line"/>
      <point x="174" y="-126"/>
      <point x="159" y="-128"/>
      <point x="147" y="-128" type="curve" smooth="yes"/>
      <point x="123" y="-128"/>
      <point x="109" y="-118"/>
      <point x="109" y="-97" type="curve" smooth="yes"/>
      <point x="109" y="-62"/>
      <point x="160" y="-19"/>
      <point x="184" y="0" type="curve"/>
      <point x="184" y="693" type="line"/>
      <point x="87" y="693" type="line"/>
      <point x="87" y="0" type="line"/>
      <point x="99" y="0" type="line"/>
      <point x="67" y="-24"/>
      <point x="21" y="-68"/>
      <point x="21" y="-121" type="curve" smooth="yes"/>
      <point x="21" y="-166"/>
      <point x="51" y="-198"/>
    </contour>
  </outline>
</glyph>
<glyph name="iogonek" format="2">
  <advance width="254.29"/>
  <unicode hex="012F"/>
  <outline>
    <contour>
      <point x="119" y="-198" type="curve" smooth="yes"/>
      <point x="143" y="-198"/>
      <point x="173" y="-193"/>
      <point x="188" y="-186" type="curve"/>
      <point x="181" y="-121" type="line"/>
      <point x="166" y="-126"/>
      <point x="151" y="-128"/>
      <point x="139" y="-128" type="curve" smooth="yes"/>
      <point x="115" y="-128"/>
      <point x="101" y="-118"/>
      <point x="101" y="-97" type="curve" smooth="yes"/>
      <point x="101" y="-62"/>
      <point x="145" y="-24"/>
      <point x="174" y="0" type="curve"/>
      <point x="174" y="520" type="line"/>
      <point x="81" y="520" type="line"/>
      <point x="81" y="0" type="line"/>
      <point x="91" y="0" type="line"/>
      <point x="58" y="-24"/>
      <point x="12" y="-68"/>
      <point x="12" y="-121" type="curve" smooth="yes"/>
      <point x="12" y="-166"/>
      <point x="42" y="-198"/>
    </contour>
    <contour>
      <point x="127" y="612" type="curve" smooth="yes"/>
      <point x="161" y="612"/>
      <point x="188" y="636"/>
      <point x="188" y="675" type="curve" smooth="yes"/>
      <point x="188" y="713"/>
      <point x="161" y="737"/>
      <point x="127" y="737" type="curve" smooth="yes"/>
      <point x="93" y="737"/>
      <point x="65" y="713"/>
      <point x="65" y="675" type="curve" smooth="yes"/>
      <point x="65" y="636"/>
      <point x="93" y="612"/>
    </contour>
  </outline>
</glyph>
<glyph name="dotlessi" format="2">
  <advance width="254.29"/>
  <unicode hex="0131"/>
  <anchor x="128" y="0" name="bottom"/>
  <anchor x="229" y="10" name="ogonek"/>
  <anchor x="128" y="520" name="top"/>
  <outline>
    <contour>
      <point x="81" y="0" type="line"/>
      <point x="174" y="0" type="line"/>
      <point x="174" y="520" type="line"/>
      <point x="81" y="520" type="line"/>
    </contour>
  </outline>
</glyph>
<glyph name="kgreenlandic" format="2">
  <advance width="531.27"/>
  <unicode hex="0138"/>
  <anchor x="266" y="0" name="bottom"/>
  <anchor x="266" y="520" name="top"/>
  <outline>
    <contour>
      <point x="81" y="0" type="line"/>
      <point x="174" y="0" type="line"/>
      <point x="174" y="245" type="line"/>
      <point x="248" y="196"/>
      <point x="351" y="89"/>
      <point x="408" y="0" type="curve"/>
      <point x="516" y="0" type="line"/>
      <point x="463" y="92"/>
      <point x="354" y="215"/>
      <point x="266" y="280" type="curve"/>
      <point x="328" y="339"/>
      <point x="438" y="451"/>
      <point x="499" y="520" type="curve"/>
      <point x="388" y="520" type="line"/>
      <point x="344" y="470"/>
      <point x="243" y="364"/>
      <point x="174" y="295" type="curve"/>
      <point x="174" y="520" type="line"/>
      <point x="81" y="520" type="line"/>
    </contour>
  </outline>
</glyph>
<glyph name="Lslash" format="2">
  <advance width="541.935"/>
  <unicode hex="0141"/>
  <outline>
    <contour>
      <point x="106" y="0" type="line"/>
      <point x="523" y="0" type="line"/>
      <point x="523" y="84" type="line"/>
      <point x="204" y="84" type="line"/>
      <point x="204" y="331" type="line"/>
      <point x="351" y="407" type="line"/>
      <point x="320" y="473" type="line"/>
      <point x="204" y="413" type="line"/>
      <point x="204" y="693" type="line"/>
      <point x="106" y="693" type="line"/>
      <point x="106" y="364" type="line"/>
      <point x="1" y="310" type="line"/>
      <point x="34" y="244" type="line"/>
      <point x="106" y="281" type="line"/>
    </contour>
  </outline>
</glyph>
<glyph name="lslash" format="2">
  <advance width="291.2425"/>
  <unicode hex="0142"/>
  <outline>
    <contour>
      <point x="250" y="-10" type="curve"/>
      <point x="263" y="67" type="line"/>
      <point x="204" y="75"/>
      <point x="185" y="90"/>
      <point x="185" y="151" type="curve"/>
      <point x="185" y="388" type="line"/>
      <point x="288" y="441" type="line"/>
      <point x="258" y="503" type="line"/>
      <point x="185" y="466" type="line"/>
      <point x="185" y="776" type="line"/>
      <point x="92" y="760" type="line"/>
      <point x="92" y="418" type="line"/>
      <point x="5" y="374" type="line"/>
      <point x="36" y="312" type="line"/>
      <point x="92" y="341" type="line"/>
      <point x="92" y="140" type="line" smooth="yes"/>
      <point x="92" y="37"/>
      <point x="135" y="-4.998"/>
    </contour>
  </outline>
</glyph>
<glyph name="Eng" format="2">
  <advance width="724.6275"/>
  <unicode hex="014A"/>
  <anchor x="363" y="0" name="bottom"/>
  <anchor x="363" y="693" name="top"/>
  <outline>
    <contour>
      <point x="488" y="-187" type="curve" smooth="yes"/>
      <point x="608" y="-187"/>
      <point x="638" y="-119"/>
      <point x="638" y="-12" type="curve"/>
      <point x="638" y="693" type="line"/>
      <point x="542" y="693" type="line"/>
      <point x="542" y="181" type="line"/>
      <point x="454" y="328"/>
      <point x="286" y="562"/>
      <point x="165" y="693" type="curve"/>
      <point x="87" y="693" type="line"/>
      <point x="87" y="0" type="line"/>
      <point x="183" y="0" type="line"/>
      <point x="183" y="541" type="line"/>
      <point x="293" y="411"/>
      <point x="458" y="171"/>
      <point x="542" y="25" type="curve"/>
      <point x="542" y="-18" type="line"/>
      <point x="542" y="-78"/>
      <point x="525" y="-107"/>
      <point x="477" y="-107" type="curve" smooth="yes"/>
      <point x="458" y="-107"/>
      <point x="446" y="-105"/>
      <point x="435" y="-100" type="curve"/>
      <point x="422" y="-177" type="line"/>
      <point x="439" y="-183"/>
      <point x="467" y="-187"/>
    </contour>
  </outline>
</glyph>
<glyph name="eng" format="2">
  <advance width="575.65"/>
  <unicode hex="014B"/>
  <anchor x="288" y="0" name="bottom"/>
  <anchor x="288" y="520" name="top"/>
  <outline>
    <contour>
      <point x="355" y="-186" type="curve" smooth="yes"/>
      <point x="475" y="-186"/>
      <point x="501" y="-120"/>
      <point x="501" y="-16" type="curve"/>
      <point x="501" y="292" type="line" smooth="yes"/>
      <point x="501" y="434"/>
      <point x="452" y="531"/>
      <point x="287" y="531" type="curve" smooth="yes"/>
      <point x="195" y="531"/>
      <point x="124" y="514"/>
      <point x="81" y="502" type="curve"/>
      <point x="81" y="0" type="line"/>
      <point x="174" y="0" type="line"/>
      <point x="174" y="438" type="line"/>
      <point x="189" y="442"/>
      <point x="230" y="449"/>
      <point x="278" y="449" type="curve" smooth="yes"/>
      <point x="377" y="449"/>
      <point x="408" y="401"/>
      <point x="408" y="272" type="curve" smooth="yes"/>
      <point x="408" y="-25" type="line"/>
      <point x="408" y="-84"/>
      <point x="390" y="-111"/>
      <point x="344" y="-111" type="curve" smooth="yes"/>
      <point x="328" y="-111"/>
      <point x="315" y="-109"/>
      <point x="305" y="-105" type="curve"/>
      <point x="293" y="-176" type="line"/>
      <point x="309" y="-183"/>
      <point x="335" y="-186"/>
    </contour>
  </outline>
</glyph>
<glyph name="OE" format="2">
  <advance width="992.3275"/>
  <unicode hex="0152"/>
  <anchor x="496" y="0" name="bottom"/>
  <anchor x="496" y="693" name="top"/>
  <outline>
    <contour>
      <point x="440.998" y="-6" type="curve" smooth="yes"/>
      <point x="473" y="-6"/>
      <point x="510" y="-4"/>
      <point x="541.995" y="0" type="curve"/>
      <point x="955" y="0" type="line"/>
      <point x="955" y="83" type="line"/>
      <point x="619" y="83" type="line"/>
      <point x="619" y="323" type="line"/>
      <point x="894" y="323" type="line"/>
      <point x="894" y="404" type="line"/>
      <point x="619" y="404" type="line"/>
      <point x="619" y="610" type="line"/>
      <point x="930" y="610" type="line"/>
      <point x="930" y="693" type="line"/>
      <point x="541" y="693" type="line"/>
      <point x="510" y="697"/>
      <point x="473" y="699"/>
      <point x="440.998" y="699" type="curve" smooth="yes"/>
      <point x="216" y="699"/>
      <point x="60" y="584"/>
      <point x="60" y="347" type="curve" smooth="yes"/>
      <point x="60" y="109"/>
      <point x="216" y="-6"/>
    </contour>
    <contour>
      <point x="435" y="77" type="curve" smooth="yes"/>
      <point x="253" y="77"/>
      <point x="161" y="178"/>
      <point x="161" y="347" type="curve" smooth="yes"/>
      <point x="161" y="515"/>
      <point x="253" y="616"/>
      <point x="435" y="616" type="curve" smooth="yes"/>
      <point x="489" y="616"/>
      <point x="509" y="612"/>
      <point x="524" y="611" type="curve"/>
      <point x="524" y="82" type="line"/>
      <point x="510" y="81"/>
      <point x="488" y="77"/>
    </contour>
  </outline>
</glyph>
<glyph name="oe" format="2">
  <advance width="941.6725"/>
  <unicode hex="0153"/>
  <anchor x="471" y="0" name="bottom"/>
  <anchor x="471" y="520" name="top"/>
  <outline>
    <contour>
      <point x="294" y="-13" type="curve" smooth="yes"/>
      <point x="378" y="-13"/>
      <point x="443" y="29"/>
      <point x="483" y="98" type="curve"/>
      <point x="521" y="28"/>
      <point x="588" y="-12"/>
      <point x="695" y="-12" type="curve" smooth="yes"/>
      <point x="766" y="-12"/>
      <point x="830" y="7"/>
      <point x="852" y="19" type="curve"/>
      <point x="838" y="97" type="line"/>
      <point x="815" y="86"/>
      <point x="768" y="70"/>
      <point x="703" y="70" type="curve" smooth="yes"/>
      <point x="590" y="70"/>
      <point x="535" y="130"/>
      <point x="530" y="235" type="curve"/>
      <point x="885" y="235" type="line"/>
      <point x="886" y="246"/>
      <point x="887" y="262"/>
      <point x="887" y="274" type="curve" smooth="yes"/>
      <point x="887" y="448"/>
      <point x="802" y="533"/>
      <point x="668" y="533" type="curve" smooth="yes"/>
      <point x="595" y="533"/>
      <point x="528" y="496"/>
      <point x="486" y="417" type="curve"/>
      <point x="447" y="490"/>
      <point x="382" y="533"/>
      <point x="294" y="533" type="curve" smooth="yes"/>
      <point x="152" y="533"/>
      <point x="52" y="424"/>
      <point x="52" y="260" type="curve" smooth="yes"/>
      <point x="52" y="96"/>
      <point x="150" y="-13"/>
    </contour>
    <contour>
      <point x="295" y="69" type="curve" smooth="yes"/>
      <point x="205" y="69"/>
      <point x="148" y="143"/>
      <point x="148" y="260" type="curve" smooth="yes"/>
      <point x="148" y="377"/>
      <point x="205" y="451"/>
      <point x="295" y="451" type="curve" smooth="yes"/>
      <point x="386" y="451"/>
      <point x="442" y="377"/>
      <point x="442" y="260" type="curve" smooth="yes"/>
      <point x="442" y="143"/>
      <point x="386" y="69"/>
    </contour>
    <contour>
      <point x="532" y="305" type="line"/>
      <point x="538" y="383"/>
      <point x="585" y="453"/>
      <point x="669" y="453" type="curve" smooth="yes"/>
      <point x="750" y="453"/>
      <point x="792" y="394"/>
      <point x="795" y="305" type="curve"/>
    </contour>
  </outline>
</glyph>
<glyph name="Scedilla" format="2">
  <advance width="538.6125"/>
  <unicode hex="015E"/>
  <outline>
    <contour>
      <point x="232" y="-198" type="curve" smooth="yes"/>
      <point x="313" y="-198"/>
      <point x="343" y="-159"/>
      <point x="343" y="-116" type="curve" smooth="yes"/>
      <point x="343" y="-79"/>
      <point x="323" y="-55"/>
      <point x="284" y="-37" type="curve"/>
      <point x="286" y="-30"/>
      <point x="291" y="-21"/>
      <point x="295" y="-12" type="curve"/>
      <point x="426" y="0"/>
      <point x="501" y="65"/>
      <point x="501" y="179" type="curve" smooth="yes"/>
      <point x="501" y="309"/>
      <point x="418" y="349"/>
      <point x="297" y="396" type="curve" smooth="yes"/>
      <point x="214" y="429"/>
      <point x="151" y="453"/>
      <point x="151" y="526" type="curve" smooth="yes"/>
      <point x="151" y="595"/>
      <point x="204" y="625"/>
      <point x="287" y="625" type="curve" smooth="yes"/>
      <point x="351" y="625"/>
      <point x="405" y="607"/>
      <point x="443" y="583" type="curve"/>
      <point x="474" y="662" type="line"/>
      <point x="436" y="685"/>
      <point x="366" y="708"/>
      <point x="285" y="708" type="curve" smooth="yes"/>
      <point x="141" y="708"/>
      <point x="52" y="640"/>
      <point x="52" y="518" type="curve" smooth="yes"/>
      <point x="52" y="406"/>
      <point x="131" y="361"/>
      <point x="238" y="320" type="curve" smooth="yes"/>
      <point x="332" y="284"/>
      <point x="400" y="259"/>
      <point x="400" y="176" type="curve" smooth="yes"/>
      <point x="400" y="104"/>
      <point x="350" y="69"/>
      <point x="249" y="69" type="curve" smooth="yes"/>
      <point x="158" y="69"/>
      <point x="96" y="97"/>
      <point x="64" y="115" type="curve"/>
      <point x="35" y="34" type="line"/>
      <point x="63" y="18"/>
      <point x="129" y="-11"/>
      <point x="231" y="-14" type="curve"/>
      <point x="222" y="-32"/>
      <point x="213" y="-51"/>
      <point x="209" y="-66" type="curve"/>
      <point x="250" y="-80"/>
      <point x="266" y="-90"/>
      <point x="266" y="-110" type="curve" smooth="yes"/>
      <point x="266" y="-129"/>
      <point x="250.998" y="-138.007"/>
      <point x="227" y="-138" type="curve" smooth="yes"/>
      <point x="201" y="-138"/>
      <point x="180" y="-133"/>
      <point x="167" y="-128" type="curve"/>
      <point x="155" y="-186" type="line"/>
      <point x="173" y="-193"/>
      <point x="204" y="-198"/>
    </contour>
  </outline>
</glyph>
<glyph name="uni0162" format="2">
  <advance width="569.945"/>
  <unicode hex="0162"/>
  <outline>
    <contour>
      <point x="247" y="-198" type="curve" smooth="yes"/>
      <point x="328" y="-198"/>
      <point x="358" y="-159"/>
      <point x="358" y="-116" type="curve" smooth="yes"/>
      <point x="358" y="-79"/>
      <point x="338" y="-55"/>
      <point x="299" y="-37" type="curve"/>
      <point x="303" y="-27"/>
      <point x="309" y="-13"/>
      <point x="316" y="0" type="curve"/>
      <point x="334" y="0" type="line"/>
      <point x="334" y="609" type="line"/>
      <point x="551" y="609" type="line"/>
      <point x="551" y="693" type="line"/>
      <point x="19" y="693" type="line"/>
      <point x="19" y="609" type="line"/>
      <point x="236" y="609" type="line"/>
      <point x="236" y="0" type="line"/>
      <point x="253" y="0" type="line"/>
      <point x="243" y="-19"/>
      <point x="230" y="-47"/>
      <point x="224" y="-66" type="curve"/>
      <point x="265" y="-80"/>
      <point x="281" y="-90"/>
      <point x="281" y="-110" type="curve" smooth="yes"/>
      <point x="281" y="-129"/>
      <point x="266.002" y="-138.007"/>
      <point x="242" y="-138" type="curve" smooth="yes"/>
      <point x="216" y="-138"/>
      <point x="195" y="-133"/>
      <point x="182" y="-128" type="curve"/>
      <point x="170" y="-186" type="line"/>
      <point x="188" y="-193"/>
      <point x="219" y="-198"/>
    </contour>
  </outline>
</glyph>
<glyph name="uni0163" format="2">
  <advance width="405.9525"/>
  <unicode hex="0163"/>
  <outline>
    <contour>
      <point x="212" y="-198" type="curve" smooth="yes"/>
      <point x="291" y="-198"/>
      <point x="323" y="-161"/>
      <point x="323" y="-116" type="curve" smooth="yes"/>
      <point x="323" y="-80"/>
      <point x="303" y="-55"/>
      <point x="264" y="-37" type="curve"/>
      <point x="267" y="-29"/>
      <point x="271" y="-20"/>
      <point x="275" y="-10" type="curve"/>
      <point x="323" y="-8"/>
      <point x="367" y="7"/>
      <point x="388" y="19" type="curve"/>
      <point x="370" y="94" type="line"/>
      <point x="349" y="83"/>
      <point x="315" y="70"/>
      <point x="268" y="70" type="curve" smooth="yes"/>
      <point x="201" y="70"/>
      <point x="169" y="98"/>
      <point x="169" y="197" type="curve" smooth="yes"/>
      <point x="169" y="442" type="line"/>
      <point x="366" y="442" type="line"/>
      <point x="366" y="520" type="line"/>
      <point x="169" y="520" type="line"/>
      <point x="169" y="681" type="line"/>
      <point x="76" y="665" type="line"/>
      <point x="76" y="200" type="line" smooth="yes"/>
      <point x="76" y="47"/>
      <point x="134" y="3"/>
      <point x="213" y="-8" type="curve"/>
      <point x="208" y="-19"/>
      <point x="197" y="-39"/>
      <point x="189" y="-66" type="curve"/>
      <point x="230" y="-80"/>
      <point x="246" y="-90"/>
      <point x="246" y="-110" type="curve" smooth="yes"/>
      <point x="245" y="-130"/>
      <point x="231" y="-138"/>
      <point x="206" y="-138" type="curve" smooth="yes"/>
      <point x="181" y="-138"/>
      <point x="159" y="-134"/>
      <point x="146" y="-128" type="curve"/>
      <point x="135" y="-186" type="line"/>
      <point x="153" y="-193"/>
      <point x="184" y="-198"/>
    </contour>
  </outline>
</glyph>
<glyph name="Tbar" format="2">
  <advance width="569.945"/>
  <unicode hex="0166"/>
  <outline>
    <contour>
      <point x="236" y="0" type="line"/>
      <point x="334" y="0" type="line"/>
      <point x="334" y="308" type="line"/>
      <point x="463" y="308" type="line"/>
      <point x="463" y="381" type="line"/>
      <point x="334" y="381" type="line"/>
      <point x="334" y="609" type="line"/>
      <point x="551" y="609" type="line"/>
      <point x="551" y="693" type="line"/>
      <point x="19" y="693" type="line"/>
      <point x="19" y="609" type="line"/>
      <point x="236" y="609" type="line"/>
      <point x="236" y="381" type="line"/>
      <point x="107" y="381" type="line"/>
      <point x="107" y="308" type="line"/>
      <point x="236" y="308" type="line"/>
    </contour>
  </outline>
</glyph>
<glyph name="tbar" format="2">
  <advance width="405.9525"/>
  <unicode hex="0167"/>
  <outline>
    <contour>
      <point x="258" y="-11" type="curve" smooth="yes"/>
      <point x="316" y="-11"/>
      <point x="363" y="6"/>
      <point x="388" y="19" type="curve"/>
      <point x="370" y="94" type="line"/>
      <point x="348" y="83"/>
      <point x="315" y="70"/>
      <point x="268" y="70" type="curve" smooth="yes"/>
      <point x="203" y="70"/>
      <point x="169" y="97"/>
      <point x="169" y="197" type="curve" smooth="yes"/>
      <point x="169" y="239" type="line"/>
      <point x="363" y="239" type="line"/>
      <point x="363" y="306" type="line"/>
      <point x="169" y="306" type="line"/>
      <point x="169" y="442" type="line"/>
      <point x="366" y="442" type="line"/>
      <point x="366" y="520" type="line"/>
      <point x="169" y="520" type="line"/>
      <point x="169" y="681" type="line"/>
      <point x="76" y="665" type="line"/>
      <point x="76" y="200" type="line" smooth="yes"/>
      <point x="76" y="63"/>
      <point x="117" y="-11"/>
    </contour>
  </outline>
</glyph>
<glyph name="Uogonek" format="2">
  <advance width="688.9775"/>
  <unicode hex="0172"/>
  <outline>
    <contour>
      <point x="401" y="-198" type="curve" smooth="yes"/>
      <point x="425" y="-198"/>
      <point x="454" y="-193"/>
      <point x="470" y="-186" type="curve"/>
      <point x="463" y="-121" type="line"/>
      <point x="448" y="-126"/>
      <point x="432" y="-128"/>
      <point x="420" y="-128" type="curve" smooth="yes"/>
      <point x="397" y="-128"/>
      <point x="382" y="-118"/>
      <point x="382" y="-97" type="curve" smooth="yes"/>
      <point x="382" y="-76"/>
      <point x="395" y="-60"/>
      <point x="415" y="-39" type="curve" smooth="yes"/>
      <point x="441" y="-13"/>
      <point x="466" y="4"/>
      <point x="495" y="21" type="curve" smooth="yes"/>
      <point x="575" y="68"/>
      <point x="608" y="155"/>
      <point x="608" y="259" type="curve" smooth="yes"/>
      <point x="608" y="693" type="line"/>
      <point x="510" y="693" type="line"/>
      <point x="510" y="269" type="line" smooth="yes"/>
      <point x="510" y="130"/>
      <point x="444" y="71"/>
      <point x="344" y="71" type="curve" smooth="yes"/>
      <point x="245" y="71"/>
      <point x="179" y="130"/>
      <point x="179" y="269" type="curve" smooth="yes"/>
      <point x="179" y="693" type="line"/>
      <point x="81" y="693" type="line"/>
      <point x="81" y="259" type="line" smooth="yes"/>
      <point x="81" y="105"/>
      <point x="154.002" y="-13.005"/>
      <point x="340" y="-15" type="curve" smooth="yes"/>
      <point x="345" y="-15"/>
      <point x="350" y="-15"/>
      <point x="356" y="-14" type="curve"/>
      <point x="324" y="-41"/>
      <point x="294" y="-78"/>
      <point x="294" y="-121" type="curve" smooth="yes"/>
      <point x="294" y="-166"/>
      <point x="324" y="-198"/>
    </contour>
  </outline>
</glyph>
<glyph name="uogonek" format="2">
  <advance width="575.65"/>
  <unicode hex="0173"/>
  <outline>
    <contour>
      <point x="427" y="-197" type="curve" smooth="yes"/>
      <point x="450" y="-197"/>
      <point x="480" y="-192"/>
      <point x="496" y="-185" type="curve"/>
      <point x="488" y="-120" type="line"/>
      <point x="473" y="-125"/>
      <point x="458" y="-127"/>
      <point x="446" y="-127" type="curve" smooth="yes"/>
      <point x="422" y="-127"/>
      <point x="408" y="-117"/>
      <point x="408" y="-96" type="curve" smooth="yes"/>
      <point x="408" y="-59"/>
      <point x="469" y="-9"/>
      <point x="495" y="15" type="curve"/>
      <point x="495" y="520" type="line"/>
      <point x="402" y="520" type="line"/>
      <point x="402" y="82" type="line"/>
      <point x="388" y="78"/>
      <point x="346" y="71"/>
      <point x="298" y="71" type="curve" smooth="yes"/>
      <point x="202" y="71"/>
      <point x="168" y="120"/>
      <point x="168" y="249" type="curve" smooth="yes"/>
      <point x="168" y="520" type="line"/>
      <point x="75" y="520" type="line"/>
      <point x="75" y="229" type="line" smooth="yes"/>
      <point x="75" y="86"/>
      <point x="126" y="-11"/>
      <point x="288" y="-11" type="curve" smooth="yes"/>
      <point x="329" y="-11"/>
      <point x="367" y="-7"/>
      <point x="397" y="-2" type="curve"/>
      <point x="357" y="-33"/>
      <point x="320" y="-71"/>
      <point x="320" y="-120" type="curve"/>
      <point x="320" y="-165"/>
      <point x="350" y="-197"/>
    </contour>
  </outline>
</glyph>
<glyph name="longs" format="2">
  <advance width="274.265"/>
  <unicode hex="017F"/>
  <anchor x="138" y="0" name="bottom"/>
  <anchor x="138" y="520" name="top"/>
  <outline>
    <contour>
      <point x="81" y="0" type="line"/>
      <point x="174" y="0" type="line"/>
      <point x="174" y="565" type="line"/>
      <point x="174" y="651"/>
      <point x="205" y="695"/>
      <point x="290" y="695" type="curve" smooth="yes"/>
      <point x="329" y="695"/>
      <point x="359" y="687"/>
      <point x="377" y="679" type="curve"/>
      <point x="396" y="756" type="line"/>
      <point x="380" y="764"/>
      <point x="339" y="776"/>
      <point x="283" y="776" type="curve" smooth="yes"/>
      <point x="147" y="776"/>
      <point x="81" y="701"/>
      <point x="81" y="567" type="curve" smooth="yes"/>
    </contour>
  </outline>
</glyph>
<glyph name="uni0180" format="2">
  <advance width="589.9825"/>
  <unicode hex="0180"/>
  <outline>
    <contour>
      <point x="278" y="-12" type="curve" smooth="yes"/>
      <point x="436" y="-12"/>
      <point x="538" y="92"/>
      <point x="538" y="257" type="curve" smooth="yes"/>
      <point x="538" y="415"/>
      <point x="455" y="526"/>
      <point x="306" y="526" type="curve" smooth="yes"/>
      <point x="247" y="526"/>
      <point x="200" y="507"/>
      <point x="174" y="491" type="curve"/>
      <point x="174" y="617" type="line"/>
      <point x="351" y="617" type="line"/>
      <point x="351" y="683" type="line"/>
      <point x="174" y="683" type="line"/>
      <point x="174" y="776" type="line"/>
      <point x="81" y="760" type="line"/>
      <point x="81" y="683" type="line"/>
      <point x="7" y="683" type="line"/>
      <point x="7" y="617" type="line"/>
      <point x="81" y="617" type="line"/>
      <point x="81" y="16" type="line"/>
      <point x="124" y="2"/>
      <point x="193" y="-12"/>
    </contour>
    <contour>
      <point x="277" y="69" type="curve" smooth="yes"/>
      <point x="226" y="69"/>
      <point x="192" y="75"/>
      <point x="174" y="80" type="curve"/>
      <point x="174" y="407" type="line"/>
      <point x="195" y="424"/>
      <point x="241" y="445"/>
      <point x="292" y="445" type="curve" smooth="yes"/>
      <point x="401" y="445"/>
      <point x="442" y="364"/>
      <point x="442" y="259" type="curve" smooth="yes"/>
      <point x="442" y="141"/>
      <point x="377" y="69"/>
    </contour>
  </outline>
</glyph>
<glyph name="uni0181" format="2">
  <advance width="744.9175"/>
  <unicode hex="0181"/>
  <outline>
    <contour>
      <point x="375" y="-7" type="curve" smooth="yes"/>
      <point x="590" y="-7"/>
      <point x="693" y="64"/>
      <point x="693" y="200" type="curve" smooth="yes"/>
      <point x="693" y="297"/>
      <point x="645" y="347"/>
      <point x="563" y="371" type="curve"/>
      <point x="622" y="395"/>
      <point x="659" y="447"/>
      <point x="659" y="515" type="curve" smooth="yes"/>
      <point x="659" y="655"/>
      <point x="532" y="700"/>
      <point x="367" y="700" type="curve" smooth="yes"/>
      <point x="176" y="700"/>
      <point x="18" y="685"/>
      <point x="18" y="536" type="curve" smooth="yes"/>
      <point x="18" y="520"/>
      <point x="23" y="492"/>
      <point x="26" y="479" type="curve"/>
      <point x="103" y="489" type="line"/>
      <point x="100" y="504"/>
      <point x="99" y="518"/>
      <point x="99" y="525" type="curve" smooth="yes"/>
      <point x="99" y="577"/>
      <point x="126" y="607"/>
      <point x="188" y="612" type="curve"/>
      <point x="188" y="12" type="line"/>
      <point x="241" y="-1"/>
      <point x="319" y="-7"/>
    </contour>
    <contour>
      <point x="381" y="74" type="curve" smooth="yes"/>
      <point x="343" y="74"/>
      <point x="305" y="77"/>
      <point x="284" y="80" type="curve"/>
      <point x="284" y="322" type="line"/>
      <point x="412" y="322" type="line" smooth="yes"/>
      <point x="525" y="322"/>
      <point x="593" y="294"/>
      <point x="593" y="202" type="curve" smooth="yes"/>
      <point x="593" y="100"/>
      <point x="495" y="74"/>
    </contour>
    <contour>
      <point x="284" y="400" type="line"/>
      <point x="284" y="616" type="line"/>
      <point x="308" y="618"/>
      <point x="347" y="619"/>
      <point x="382" y="619" type="curve" smooth="yes"/>
      <point x="491" y="619"/>
      <point x="562" y="590"/>
      <point x="562" y="511" type="curve" smooth="yes"/>
      <point x="562" y="425"/>
      <point x="496" y="400"/>
      <point x="397" y="400" type="curve" smooth="yes"/>
    </contour>
  </outline>
</glyph>
<glyph name="uni0182" format="2">
  <advance width="624.635"/>
  <unicode hex="0182"/>
  <outline>
    <contour>
      <point x="271" y="-6" type="curve"/>
      <point x="470" y="-6"/>
      <point x="578" y="67"/>
      <point x="578" y="214" type="curve" smooth="yes"/>
      <point x="578" y="371"/>
      <point x="462" y="432"/>
      <point x="262" y="432" type="curve"/>
      <point x="182" y="432" type="line"/>
      <point x="182" y="610" type="line"/>
      <point x="515" y="610" type="line"/>
      <point x="515" y="693" type="line"/>
      <point x="87" y="693" type="line"/>
      <point x="87" y="14" type="line"/>
      <point x="143" y="0"/>
      <point x="215" y="-6"/>
    </contour>
    <contour>
      <point x="276" y="77" type="curve" smooth="yes"/>
      <point x="233" y="77"/>
      <point x="203" y="80"/>
      <point x="182" y="83" type="curve"/>
      <point x="182" y="350" type="line"/>
      <point x="254" y="350" type="line"/>
      <point x="391" y="350"/>
      <point x="478" y="324"/>
      <point x="478" y="213" type="curve" smooth="yes"/>
      <point x="478" y="106"/>
      <point x="383" y="77"/>
    </contour>
  </outline>
</glyph>
<glyph name="uni0183" format="2">
  <advance width="589.9825"/>
  <unicode hex="0183"/>
  <outline>
    <contour>
      <point x="278" y="-12" type="curve" smooth="yes"/>
      <point x="436" y="-12"/>
      <point x="538" y="92"/>
      <point x="538" y="258" type="curve" smooth="yes"/>
      <point x="538" y="416"/>
      <point x="455" y="527"/>
      <point x="306" y="527" type="curve" smooth="yes"/>
      <point x="247" y="527"/>
      <point x="200" y="508"/>
      <point x="174" y="491" type="curve"/>
      <point x="174" y="693" type="line"/>
      <point x="481" y="693" type="line"/>
      <point x="481" y="770" type="line"/>
      <point x="81" y="770" type="line"/>
      <point x="81" y="16" type="line"/>
      <point x="124" y="2"/>
      <point x="193" y="-12"/>
    </contour>
    <contour>
      <point x="277" y="69" type="curve" smooth="yes"/>
      <point x="226" y="69"/>
      <point x="192" y="75"/>
      <point x="174" y="80" type="curve"/>
      <point x="174" y="408" type="line"/>
      <point x="195" y="425"/>
      <point x="241" y="446"/>
      <point x="292" y="446" type="curve" smooth="yes"/>
      <point x="401" y="446"/>
      <point x="442" y="365"/>
      <point x="442" y="259" type="curve" smooth="yes"/>
      <point x="442" y="140"/>
      <point x="378" y="69"/>
    </contour>
  </outline>
</glyph>
<glyph name="uni0184" format="2">
  <advance width="589.9825"/>
  <unicode hex="0184"/>
  <outline>
    <contour>
      <point x="278" y="-12" type="curve" smooth="yes"/>
      <point x="436" y="-12"/>
      <point x="538" y="92"/>
      <point x="538" y="260" type="curve" smooth="yes"/>
      <point x="538" y="420"/>
      <point x="455" y="531"/>
      <point x="306" y="531" type="curve" smooth="yes"/>
      <point x="247" y="531"/>
      <point x="200" y="512"/>
      <point x="174" y="495" type="curve"/>
      <point x="174" y="776" type="line"/>
      <point x="118" y="761"/>
      <point x="53" y="733"/>
      <point x="10" y="708" type="curve"/>
      <point x="81" y="632" type="line"/>
      <point x="81" y="16" type="line"/>
      <point x="124" y="2"/>
      <point x="193" y="-12"/>
    </contour>
    <contour>
      <point x="277" y="69" type="curve" smooth="yes"/>
      <point x="226" y="69"/>
      <point x="192" y="75"/>
      <point x="174" y="80" type="curve"/>
      <point x="174" y="412" type="line"/>
      <point x="195" y="429"/>
      <point x="241" y="450"/>
      <point x="292" y="450" type="curve" smooth="yes"/>
      <point x="401" y="450"/>
      <point x="442" y="370"/>
      <point x="442" y="261" type="curve" smooth="yes"/>
      <point x="442" y="140"/>
      <point x="378" y="69"/>
    </contour>
  </outline>
</glyph>
<glyph name="uni0185" format="2">
  <advance width="615.6325"/>
  <unicode hex="0185"/>
  <outline>
    <contour>
      <point x="273.993" y="-6" type="curve" smooth="yes"/>
      <point x="483" y="-6"/>
      <point x="579" y="73"/>
      <point x="579" y="217" type="curve" smooth="yes"/>
      <point x="579" y="365"/>
      <point x="476" y="440"/>
      <point x="270" y="440" type="curve" smooth="yes"/>
      <point x="243" y="440"/>
      <point x="206" y="438"/>
      <point x="186" y="436" type="curve"/>
      <point x="186" y="700" type="line"/>
      <point x="128" y="685"/>
      <point x="64" y="658"/>
      <point x="18" y="631" type="curve"/>
      <point x="91" y="555" type="line"/>
      <point x="91" y="14" type="line"/>
      <point x="146" y="0"/>
      <point x="217.993" y="-6"/>
    </contour>
    <contour>
      <point x="278" y="77" type="curve" smooth="yes"/>
      <point x="237" y="77"/>
      <point x="207" y="79"/>
      <point x="186" y="82" type="curve"/>
      <point x="186" y="353" type="line"/>
      <point x="205" y="355"/>
      <point x="232" y="358"/>
      <point x="272" y="358" type="curve" smooth="yes"/>
      <point x="392" y="357"/>
      <point x="479" y="328"/>
      <point x="479" y="217" type="curve" smooth="yes"/>
      <point x="479" y="105"/>
      <point x="388" y="77"/>
    </contour>
  </outline>
</glyph>
<glyph name="uni0186" format="2">
  <advance width="618.63"/>
  <unicode hex="0186"/>
  <anchor x="309" y="0" name="bottom"/>
  <anchor x="309" y="693" name="top"/>
  <outline>
    <contour>
      <point x="227" y="-15" type="curve" smooth="yes"/>
      <point x="421" y="-15"/>
      <point x="561" y="115"/>
      <point x="561" y="347" type="curve" smooth="yes"/>
      <point x="561" y="579"/>
      <point x="430" y="708"/>
      <point x="236" y="708" type="curve" smooth="yes"/>
      <point x="131" y="708"/>
      <point x="55" y="681"/>
      <point x="26.008" y="663.008" type="curve"/>
      <point x="52" y="583" type="line"/>
      <point x="84" y="600"/>
      <point x="139" y="622"/>
      <point x="226" y="622" type="curve" smooth="yes"/>
      <point x="381" y="622"/>
      <point x="459" y="511"/>
      <point x="459" y="346" type="curve" smooth="yes"/>
      <point x="459" y="174"/>
      <point x="375" y="72"/>
      <point x="224" y="72" type="curve" smooth="yes"/>
      <point x="147" y="72"/>
      <point x="92" y="92"/>
      <point x="57" y="111" type="curve"/>
      <point x="29" y="30" type="line"/>
      <point x="53" y="17"/>
      <point x="126" y="-15"/>
    </contour>
  </outline>
</glyph>
<glyph name="uni0187" format="2">
  <advance width="663.2625"/>
  <unicode hex="0187"/>
  <anchor x="332" y="0" name="bottom"/>
  <anchor x="332" y="693" name="top"/>
  <outline>
    <contour>
      <point x="384" y="-15" type="curve" smooth="yes"/>
      <point x="493" y="-15"/>
      <point x="569" y="13"/>
      <point x="597" y="30" type="curve"/>
      <point x="570" y="110" type="line"/>
      <point x="538" y="94"/>
      <point x="482" y="72"/>
      <point x="393" y="72" type="curve" smooth="yes"/>
      <point x="238" y="72"/>
      <point x="160" y="183"/>
      <point x="160" y="347" type="curve" smooth="yes"/>
      <point x="160" y="519"/>
      <point x="250" y="622"/>
      <point x="397" y="622" type="curve" smooth="yes"/>
      <point x="469" y="622"/>
      <point x="535" y="596"/>
      <point x="560" y="583" type="curve"/>
      <point x="577" y="640" type="line" smooth="yes"/>
      <point x="589" y="680"/>
      <point x="607" y="708"/>
      <point x="651" y="708" type="curve" smooth="yes"/>
      <point x="670" y="708"/>
      <point x="686" y="704"/>
      <point x="697" y="700" type="curve"/>
      <point x="716" y="771" type="line"/>
      <point x="701" y="778"/>
      <point x="674" y="785"/>
      <point x="646" y="785" type="curve" smooth="yes"/>
      <point x="575" y="785"/>
      <point x="534" y="756"/>
      <point x="513" y="687" type="curve"/>
      <point x="484" y="698"/>
      <point x="444" y="708"/>
      <point x="389" y="708" type="curve" smooth="yes"/>
      <point x="210" y="708"/>
      <point x="58" y="579"/>
      <point x="58" y="347" type="curve" smooth="yes"/>
      <point x="58" y="115"/>
      <point x="190" y="-15"/>
    </contour>
  </outline>
</glyph>
<glyph name="uni0188" format="2">
  <advance width="509.285"/>
  <unicode hex="0188"/>
  <anchor x="255" y="0" name="bottom"/>
  <anchor x="255" y="520" name="top"/>
  <outline>
    <contour>
      <point x="306" y="-12" type="curve" smooth="yes"/>
      <point x="364" y="-12"/>
      <point x="420" y="3"/>
      <point x="448" y="16" type="curve"/>
      <point x="432" y="94" type="line"/>
      <point x="409" y="83"/>
      <point x="367" y="70"/>
      <point x="319" y="70" type="curve" smooth="yes"/>
      <point x="194" y="70"/>
      <point x="148" y="145"/>
      <point x="148" y="259" type="curve" smooth="yes"/>
      <point x="148" y="379"/>
      <point x="203" y="451"/>
      <point x="309" y="451" type="curve" smooth="yes"/>
      <point x="356" y="451"/>
      <point x="390" y="442"/>
      <point x="417" y="431" type="curve"/>
      <point x="428" y="484" type="line"/>
      <point x="436" y="522"/>
      <point x="455" y="550"/>
      <point x="497" y="550" type="curve" smooth="yes"/>
      <point x="516" y="550"/>
      <point x="531" y="546"/>
      <point x="541" y="542" type="curve"/>
      <point x="560" y="611" type="line"/>
      <point x="545" y="617"/>
      <point x="520" y="623"/>
      <point x="494" y="623" type="curve" smooth="yes"/>
      <point x="426" y="623"/>
      <point x="387" y="593"/>
      <point x="368" y="527" type="curve"/>
      <point x="348" y="530"/>
      <point x="324" y="533"/>
      <point x="301" y="533" type="curve" smooth="yes"/>
      <point x="146" y="533"/>
      <point x="52" y="418"/>
      <point x="52" y="259" type="curve" smooth="yes"/>
      <point x="52" y="100"/>
      <point x="135" y="-12"/>
    </contour>
  </outline>
</glyph>
<glyph name="uni018A" format="2">
  <advance width="814.59"/>
  <unicode hex="018A"/>
  <anchor x="407" y="0" name="bottom"/>
  <anchor x="407" y="693" name="top"/>
  <outline>
    <contour>
      <point x="370" y="-7" type="curve" smooth="yes"/>
      <point x="601" y="-7"/>
      <point x="757" y="110"/>
      <point x="757" y="347" type="curve" smooth="yes"/>
      <point x="757" y="587"/>
      <point x="600" y="700"/>
      <point x="371" y="700" type="curve" smooth="yes"/>
      <point x="186" y="700"/>
      <point x="18" y="688"/>
      <point x="18" y="536" type="curve" smooth="yes"/>
      <point x="18" y="520"/>
      <point x="23" y="492"/>
      <point x="26" y="479" type="curve"/>
      <point x="103" y="489" type="line"/>
      <point x="100" y="504"/>
      <point x="99" y="518"/>
      <point x="99" y="525" type="curve" smooth="yes"/>
      <point x="99" y="577"/>
      <point x="126" y="607"/>
      <point x="188" y="612" type="curve"/>
      <point x="188" y="11" type="line"/>
      <point x="242" y="-2"/>
      <point x="314" y="-7"/>
    </contour>
    <contour>
      <point x="378" y="77" type="curve" smooth="yes"/>
      <point x="321" y="77"/>
      <point x="295" y="81"/>
      <point x="285" y="82" type="curve"/>
      <point x="285" y="614" type="line"/>
      <point x="307" y="616"/>
      <point x="345" y="616"/>
      <point x="377" y="616" type="curve"/>
      <point x="564" y="616"/>
      <point x="655" y="516"/>
      <point x="655" y="347" type="curve" smooth="yes"/>
      <point x="655" y="179"/>
      <point x="562" y="77"/>
    </contour>
  </outline>
</glyph>
<glyph name="uni018B" format="2">
  <advance width="624.635"/>
  <unicode hex="018B"/>
  <anchor x="312" y="0" name="bottom"/>
  <anchor x="312" y="693" name="top"/>
  <outline>
    <contour>
      <point x="354" y="-7" type="curve" smooth="yes"/>
      <point x="410" y="-7"/>
      <point x="482" y="-1"/>
      <point x="538" y="13" type="curve"/>
      <point x="538" y="693" type="line"/>
      <point x="110" y="693" type="line"/>
      <point x="110" y="610" type="line"/>
      <point x="443" y="610" type="line"/>
      <point x="443" y="432" type="line"/>
      <point x="363" y="432" type="line"/>
      <point x="163" y="432"/>
      <point x="47" y="373"/>
      <point x="47" y="214" type="curve" smooth="yes"/>
      <point x="47" y="67"/>
      <point x="155" y="-7"/>
    </contour>
    <contour>
      <point x="349" y="77" type="curve" smooth="yes"/>
      <point x="242" y="77"/>
      <point x="147" y="106"/>
      <point x="147" y="213" type="curve" smooth="yes"/>
      <point x="147" y="324"/>
      <point x="233" y="350"/>
      <point x="370" y="350" type="curve" smooth="yes"/>
      <point x="443" y="350" type="line"/>
      <point x="443" y="82" type="line"/>
      <point x="421" y="80"/>
      <point x="391" y="77"/>
    </contour>
  </outline>
</glyph>
<glyph name="uni018C" format="2">
  <advance width="589.9825"/>
  <unicode hex="018C"/>
  <anchor x="295" y="0" name="bottom"/>
  <anchor x="295" y="520" name="top"/>
  <outline>
    <contour>
      <point x="312" y="-12" type="curve" smooth="yes"/>
      <point x="397" y="-12"/>
      <point x="466" y="2"/>
      <point x="509" y="16" type="curve"/>
      <point x="509" y="770" type="line"/>
      <point x="109" y="770" type="line"/>
      <point x="109" y="693" type="line"/>
      <point x="416" y="693" type="line"/>
      <point x="416" y="491" type="line"/>
      <point x="390" y="508"/>
      <point x="343" y="527"/>
      <point x="284" y="527" type="curve" smooth="yes"/>
      <point x="135" y="527"/>
      <point x="52" y="416"/>
      <point x="52" y="258" type="curve" smooth="yes"/>
      <point x="52" y="92"/>
      <point x="154" y="-12"/>
    </contour>
    <contour>
      <point x="313" y="69" type="curve" smooth="yes"/>
      <point x="212" y="69"/>
      <point x="148" y="140"/>
      <point x="148" y="259" type="curve" smooth="yes"/>
      <point x="148" y="365"/>
      <point x="189" y="446"/>
      <point x="298" y="446" type="curve" smooth="yes"/>
      <point x="349" y="446"/>
      <point x="395" y="425"/>
      <point x="416" y="408" type="curve"/>
      <point x="416" y="80" type="line"/>
      <point x="398" y="75"/>
      <point x="364" y="69"/>
    </contour>
  </outline>
</glyph>
<glyph name="uni018D" format="2">
  <advance width="578.9825"/>
  <unicode hex="018D"/>
  <outline>
    <contour>
      <point x="257" y="-186" type="curve" smooth="yes"/>
      <point x="357" y="-186"/>
      <point x="445" y="-150"/>
      <point x="445" y="-59" type="curve" smooth="yes"/>
      <point x="445" y="-2"/>
      <point x="418" y="29"/>
      <point x="367" y="60" type="curve"/>
      <point x="463" y="103"/>
      <point x="528" y="190"/>
      <point x="528" y="293" type="curve" smooth="yes"/>
      <point x="528" y="415"/>
      <point x="453" y="533"/>
      <point x="289" y="533" type="curve" smooth="yes"/>
      <point x="128" y="533"/>
      <point x="51" y="420"/>
      <point x="51" y="287" type="curve" smooth="yes"/>
      <point x="51" y="157"/>
      <point x="134" y="91"/>
      <point x="224" y="46" type="curve" smooth="yes"/>
      <point x="305" y="4"/>
      <point x="352" y="-12"/>
      <point x="352" y="-57" type="curve" smooth="yes"/>
      <point x="352" y="-100"/>
      <point x="306" y="-109"/>
      <point x="255" y="-109" type="curve" smooth="yes"/>
      <point x="187" y="-109"/>
      <point x="141" y="-94"/>
      <point x="121" y="-85" type="curve"/>
      <point x="101" y="-159" type="line"/>
      <point x="129" y="-170"/>
      <point x="183" y="-186"/>
    </contour>
    <contour>
      <point x="296" y="102" type="curve"/>
      <point x="222" y="137"/>
      <point x="147" y="179"/>
      <point x="147" y="288" type="curve" smooth="yes"/>
      <point x="147" y="391"/>
      <point x="198" y="451"/>
      <point x="289" y="451" type="curve" smooth="yes"/>
      <point x="390" y="451"/>
      <point x="432" y="375"/>
      <point x="432" y="290" type="curve" smooth="yes"/>
      <point x="432" y="200"/>
      <point x="372" y="135"/>
    </contour>
  </outline>
</glyph>
<glyph name="uni018E" format="2">
  <advance width="571.9575"/>
  <unicode hex="018E"/>
  <anchor x="286" y="0" name="bottom"/>
  <anchor x="286" y="693" name="top"/>
  <outline>
    <contour>
      <point x="38" y="0" type="line"/>
      <point x="485" y="0" type="line"/>
      <point x="485" y="693" type="line"/>
      <point x="63" y="693" type="line"/>
      <point x="63" y="610" type="line"/>
      <point x="388" y="610" type="line"/>
      <point x="388" y="404" type="line"/>
      <point x="98" y="404" type="line"/>
      <point x="98" y="323" type="line"/>
      <point x="388" y="323" type="line"/>
      <point x="388" y="83" type="line"/>
      <point x="38" y="83" type="line"/>
    </contour>
  </outline>
</glyph>
<glyph name="uni018F" format="2">
  <advance width="705.97"/>
  <unicode hex="018F"/>
  <anchor x="353" y="0" name="bottom"/>
  <anchor x="353" y="693" name="top"/>
  <outline>
    <contour>
      <point x="337" y="-15" type="curve" smooth="yes"/>
      <point x="512" y="-15"/>
      <point x="648" y="106"/>
      <point x="648" y="351" type="curve" smooth="yes"/>
      <point x="648" y="571"/>
      <point x="527" y="708"/>
      <point x="317" y="708" type="curve" smooth="yes"/>
      <point x="208" y="708"/>
      <point x="133" y="677"/>
      <point x="102" y="657" type="curve"/>
      <point x="130" y="578" type="line"/>
      <point x="166" y="600"/>
      <point x="235" y="623"/>
      <point x="312" y="623" type="curve" smooth="yes"/>
      <point x="454" y="623"/>
      <point x="538" y="542"/>
      <point x="546" y="373" type="curve"/>
      <point x="60" y="373" type="line"/>
      <point x="59" y="363"/>
      <point x="57" y="343"/>
      <point x="57" y="332" type="curve" smooth="yes"/>
      <point x="57" y="102"/>
      <point x="162" y="-15"/>
    </contour>
    <contour>
      <point x="339" y="69" type="curve" smooth="yes"/>
      <point x="220" y="69"/>
      <point x="161" y="160"/>
      <point x="158" y="291" type="curve"/>
      <point x="544" y="291" type="line"/>
      <point x="536" y="185"/>
      <point x="476" y="69"/>
    </contour>
  </outline>
</glyph>
<glyph name="uni0190" format="2">
  <advance width="572.9475"/>
  <unicode hex="0190"/>
  <anchor x="287" y="0" name="bottom"/>
  <anchor x="287" y="693" name="top"/>
  <outline>
    <contour>
      <point x="330" y="-15" type="curve" smooth="yes"/>
      <point x="428" y="-15"/>
      <point x="508" y="15"/>
      <point x="544" y="35" type="curve"/>
      <point x="514" y="115" type="line"/>
      <point x="484" y="100"/>
      <point x="415" y="69"/>
      <point x="333" y="69" type="curve" smooth="yes"/>
      <point x="228" y="69"/>
      <point x="153" y="102"/>
      <point x="153" y="194" type="curve" smooth="yes"/>
      <point x="153" y="301"/>
      <point x="246" y="324"/>
      <point x="365" y="324" type="curve" smooth="yes"/>
      <point x="427" y="324" type="line"/>
      <point x="427" y="406" type="line"/>
      <point x="353" y="406" type="line" smooth="yes"/>
      <point x="270" y="406"/>
      <point x="183" y="432"/>
      <point x="183" y="523" type="curve" smooth="yes"/>
      <point x="183" y="583"/>
      <point x="231" y="624"/>
      <point x="323" y="624" type="curve" smooth="yes"/>
      <point x="389" y="624"/>
      <point x="447" y="607"/>
      <point x="488" y="580" type="curve"/>
      <point x="521" y="659" type="line"/>
      <point x="480" y="685"/>
      <point x="407" y="708"/>
      <point x="322" y="708" type="curve" smooth="yes"/>
      <point x="181.995" y="708"/>
      <point x="82" y="650"/>
      <point x="82" y="525" type="curve" smooth="yes"/>
      <point x="82" y="461"/>
      <point x="123" y="399"/>
      <point x="202" y="374" type="curve"/>
      <point x="122" y="353"/>
      <point x="52" y="298"/>
      <point x="52" y="192" type="curve" smooth="yes"/>
      <point x="52" y="44"/>
      <point x="162" y="-15"/>
    </contour>
  </outline>
</glyph>
<glyph name="uni0191" format="2">
  <advance width="537.955"/>
  <unicode hex="0191"/>
  <outline>
    <contour>
      <point x="32" y="-187" type="curve" smooth="yes"/>
      <point x="152" y="-187"/>
      <point x="184" y="-119"/>
      <point x="184" y="-12" type="curve"/>
      <point x="184" y="316" type="line"/>
      <point x="469" y="316" type="line"/>
      <point x="469" y="399" type="line"/>
      <point x="184" y="399" type="line"/>
      <point x="184" y="610" type="line"/>
      <point x="505" y="610" type="line"/>
      <point x="505" y="693" type="line"/>
      <point x="87" y="693" type="line"/>
      <point x="87" y="-18" type="line"/>
      <point x="87" y="-78"/>
      <point x="70" y="-107"/>
      <point x="22" y="-107" type="curve" smooth="yes"/>
      <point x="3" y="-107"/>
      <point x="-9" y="-105"/>
      <point x="-20" y="-100" type="curve"/>
      <point x="-33" y="-177" type="line"/>
      <point x="-15" y="-183"/>
      <point x="11" y="-187"/>
    </contour>
  </outline>
</glyph>
<glyph name="florin" format="2">
  <advance width="391.295"/>
  <unicode hex="0192"/>
  <outline>
    <contour>
      <point x="0" y="-186" type="curve" smooth="yes"/>
      <point x="120" y="-186"/>
      <point x="174" y="-123"/>
      <point x="174" y="10" type="curve" smooth="yes"/>
      <point x="174" y="442" type="line"/>
      <point x="374" y="442" type="line"/>
      <point x="374" y="520" type="line"/>
      <point x="174" y="520" type="line"/>
      <point x="174" y="565" type="line" smooth="yes"/>
      <point x="174" y="651"/>
      <point x="205" y="695"/>
      <point x="290" y="695" type="curve" smooth="yes"/>
      <point x="329" y="695"/>
      <point x="359" y="687"/>
      <point x="377" y="679" type="curve"/>
      <point x="396" y="756" type="line"/>
      <point x="380" y="764"/>
      <point x="339" y="776"/>
      <point x="283" y="776" type="curve" smooth="yes"/>
      <point x="147" y="776"/>
      <point x="81" y="701"/>
      <point x="81" y="567" type="curve" smooth="yes"/>
      <point x="81" y="9" type="line"/>
      <point x="81" y="-67"/>
      <point x="63" y="-106"/>
      <point x="-6" y="-106" type="curve" smooth="yes"/>
      <point x="-24" y="-106"/>
      <point x="-41" y="-104"/>
      <point x="-53" y="-99" type="curve"/>
      <point x="-65.993" y="-175.005" type="line"/>
      <point x="-48" y="-182"/>
      <point x="-16" y="-186"/>
    </contour>
  </outline>
</glyph>
<glyph name="uni0193" format="2">
  <advance width="684.945"/>
  <unicode hex="0193"/>
  <anchor x="343" y="0" name="bottom"/>
  <anchor x="343" y="693" name="top"/>
  <outline>
    <contour>
      <point x="384" y="-14" type="curve" smooth="yes"/>
      <point x="496" y="-14"/>
      <point x="577" y="8"/>
      <point x="606" y="20" type="curve"/>
      <point x="606" y="341" type="line"/>
      <point x="508" y="341" type="line"/>
      <point x="508" y="83" type="line"/>
      <point x="491" y="78"/>
      <point x="452" y="71"/>
      <point x="395" y="71" type="curve" smooth="yes"/>
      <point x="239" y="71"/>
      <point x="160" y="179"/>
      <point x="160" y="347" type="curve" smooth="yes"/>
      <point x="160" y="525"/>
      <point x="252" y="622"/>
      <point x="402" y="622" type="curve"/>
      <point x="482" y="622"/>
      <point x="544" y="597"/>
      <point x="571" y="582" type="curve"/>
      <point x="588" y="640" type="line" smooth="yes"/>
      <point x="599" y="679"/>
      <point x="617" y="708"/>
      <point x="661" y="708" type="curve" smooth="yes"/>
      <point x="680" y="708"/>
      <point x="696" y="704"/>
      <point x="707" y="700" type="curve"/>
      <point x="726" y="771" type="line"/>
      <point x="711" y="778"/>
      <point x="684" y="784"/>
      <point x="655.997" y="783.998" type="curve" smooth="yes"/>
      <point x="584" y="784"/>
      <point x="543" y="756"/>
      <point x="522" y="687" type="curve"/>
      <point x="493" y="698"/>
      <point x="450" y="708"/>
      <point x="391" y="708" type="curve" smooth="yes"/>
      <point x="208" y="708"/>
      <point x="58" y="579"/>
      <point x="58" y="347" type="curve" smooth="yes"/>
      <point x="58" y="116"/>
      <point x="193" y="-14"/>
    </contour>
  </outline>
</glyph>
<glyph name="uni0195" format="2">
  <advance width="883.0025"/>
  <unicode hex="0195"/>
  <outline>
    <contour>
      <point x="602" y="-12" type="curve" smooth="yes"/>
      <point x="756" y="-12"/>
      <point x="808" y="79"/>
      <point x="808" y="223" type="curve" smooth="yes"/>
      <point x="808" y="520" type="line"/>
      <point x="715" y="520" type="line"/>
      <point x="715" y="233" type="line" smooth="yes"/>
      <point x="715" y="115"/>
      <point x="681" y="71"/>
      <point x="602" y="71" type="curve" smooth="yes"/>
      <point x="523" y="71"/>
      <point x="488" y="115"/>
      <point x="488" y="233" type="curve"/>
      <point x="488" y="290" type="line" smooth="yes"/>
      <point x="488" y="433"/>
      <point x="448" y="531"/>
      <point x="288" y="531" type="curve" smooth="yes"/>
      <point x="249" y="531"/>
      <point x="208" y="522"/>
      <point x="174" y="509" type="curve"/>
      <point x="174" y="776" type="line"/>
      <point x="81" y="760" type="line"/>
      <point x="81" y="0" type="line"/>
      <point x="174" y="0" type="line"/>
      <point x="174" y="430" type="line"/>
      <point x="188" y="436"/>
      <point x="235" y="449"/>
      <point x="276" y="449" type="curve" smooth="yes"/>
      <point x="372" y="449"/>
      <point x="395" y="400"/>
      <point x="395" y="270" type="curve" smooth="yes"/>
      <point x="395" y="223" type="line"/>
      <point x="395" y="79"/>
      <point x="448" y="-12"/>
    </contour>
  </outline>
</glyph>
<glyph name="uni0196" format="2">
  <advance width="386.2725"/>
  <unicode hex="0196"/>
  <anchor x="193" y="0" name="bottom"/>
  <anchor x="193" y="693" name="top"/>
  <outline>
    <contour>
      <point x="261" y="-15" type="curve" smooth="yes"/>
      <point x="311" y="-15"/>
      <point x="353" y="-2"/>
      <point x="371" y="7" type="curve"/>
      <point x="353" y="84" type="line"/>
      <point x="338" y="77"/>
      <point x="307" y="69"/>
      <point x="275" y="69" type="curve" smooth="yes"/>
      <point x="212" y="69"/>
      <point x="183" y="94"/>
      <point x="183" y="181" type="curve" smooth="yes"/>
      <point x="183" y="693" type="line"/>
      <point x="85" y="693" type="line"/>
      <point x="85" y="182" type="line"/>
      <point x="85" y="42"/>
      <point x="138" y="-15"/>
    </contour>
  </outline>
</glyph>
<glyph name="uni0197" format="2">
  <advance width="325.955"/>
  <unicode hex="0197"/>
  <outline>
    <contour>
      <point x="114" y="0" type="line"/>
      <point x="212" y="0" type="line"/>
      <point x="212" y="324" type="line"/>
      <point x="309" y="324" type="line"/>
      <point x="309" y="397" type="line"/>
      <point x="212" y="397" type="line"/>
      <point x="212" y="693" type="line"/>
      <point x="114" y="693" type="line"/>
      <point x="114" y="397" type="line"/>
      <point x="17" y="397" type="line"/>
      <point x="17" y="324" type="line"/>
      <point x="114" y="324" type="line"/>
    </contour>
  </outline>
</glyph>
<glyph name="uni0198" format="2">
  <advance width="664.9625"/>
  <unicode hex="0198"/>
  <anchor x="333" y="0" name="bottom"/>
  <anchor x="333" y="693" name="top"/>
  <outline>
    <contour>
      <point x="87" y="0" type="line"/>
      <point x="184" y="0" type="line"/>
      <point x="184" y="326" type="line"/>
      <point x="296" y="258"/>
      <point x="426" y="123"/>
      <point x="505" y="0" type="curve"/>
      <point x="617" y="0" type="line"/>
      <point x="547" y="125"/>
      <point x="393" y="292"/>
      <point x="276" y="371" type="curve"/>
      <point x="331" y="436"/>
      <point x="386" y="502"/>
      <point x="460" y="579" type="curve" smooth="yes"/>
      <point x="490" y="610"/>
      <point x="510" y="623"/>
      <point x="538" y="623" type="curve" smooth="yes"/>
      <point x="567" y="623"/>
      <point x="588" y="609"/>
      <point x="603" y="593" type="curve"/>
      <point x="647" y="658" type="line"/>
      <point x="622" y="683"/>
      <point x="591" y="707"/>
      <point x="537" y="707" type="curve" smooth="yes"/>
      <point x="466" y="707"/>
      <point x="427" y="665"/>
      <point x="388" y="622" type="curve" smooth="yes"/>
      <point x="320" y="548"/>
      <point x="236" y="452"/>
      <point x="184" y="386" type="curve"/>
      <point x="184" y="693" type="line"/>
      <point x="87" y="693" type="line"/>
    </contour>
  </outline>
</glyph>
<glyph name="uni0199" format="2">
  <advance width="522.93"/>
  <unicode hex="0199"/>
  <anchor x="262" y="0" name="bottom"/>
  <anchor x="262" y="520" name="top"/>
  <outline>
    <contour>
      <point x="81" y="0" type="line"/>
      <point x="174" y="0" type="line"/>
      <point x="174" y="250" type="line"/>
      <point x="249" y="199"/>
      <point x="343" y="94"/>
      <point x="399" y="0" type="curve"/>
      <point x="508" y="0" type="line"/>
      <point x="455" y="94"/>
      <point x="348" y="223"/>
      <point x="265" y="286" type="curve"/>
      <point x="337" y="357"/>
      <point x="427" y="451"/>
      <point x="491" y="520" type="curve"/>
      <point x="380" y="520" type="line"/>
      <point x="332" y="465"/>
      <point x="237" y="365"/>
      <point x="174" y="301" type="curve"/>
      <point x="174" y="616" type="line" smooth="yes"/>
      <point x="174" y="674"/>
      <point x="191" y="701"/>
      <point x="237" y="701" type="curve" smooth="yes"/>
      <point x="254" y="701"/>
      <point x="267" y="699"/>
      <point x="276" y="696" type="curve"/>
      <point x="288" y="767" type="line"/>
      <point x="272" y="773"/>
      <point x="247" y="776"/>
      <point x="226" y="776" type="curve" smooth="yes"/>
      <point x="107" y="776"/>
      <point x="81" y="710"/>
      <point x="81" y="607" type="curve" smooth="yes"/>
    </contour>
  </outline>
</glyph>
<glyph name="uni019A" format="2">
  <advance width="287.93"/>
  <unicode hex="019A"/>
  <outline>
    <contour>
      <point x="251" y="-10" type="curve"/>
      <point x="264" y="67" type="line"/>
      <point x="205" y="75"/>
      <point x="186" y="90"/>
      <point x="186" y="151" type="curve" smooth="yes"/>
      <point x="186" y="368" type="line"/>
      <point x="278" y="368" type="line"/>
      <point x="278" y="435" type="line"/>
      <point x="186" y="435" type="line"/>
      <point x="186" y="776" type="line"/>
      <point x="93" y="760" type="line"/>
      <point x="93" y="435" type="line"/>
      <point x="15" y="435" type="line"/>
      <point x="15" y="368" type="line"/>
      <point x="93" y="368" type="line"/>
      <point x="93" y="140" type="line" smooth="yes"/>
      <point x="93" y="37"/>
      <point x="135" y="-5"/>
    </contour>
  </outline>
</glyph>
<glyph name="uni019B" format="2">
  <advance width="510.2875"/>
  <unicode hex="019B"/>
  <anchor x="255" y="0" name="bottom"/>
  <anchor x="255" y="776" name="top"/>
  <outline>
    <contour>
      <point x="16" y="0" type="curve"/>
      <point x="111" y="0" type="line"/>
      <point x="140" y="114"/>
      <point x="195" y="279"/>
      <point x="267" y="423" type="curve"/>
      <point x="316" y="291"/>
      <point x="365" y="127"/>
      <point x="397" y="0" type="curve"/>
      <point x="495" y="0" type="line"/>
      <point x="449" y="166"/>
      <point x="381" y="385"/>
      <point x="291" y="603" type="curve"/>
      <point x="410" y="644" type="line"/>
      <point x="387" y="707" type="line"/>
      <point x="264" y="665" type="line"/>
      <point x="232" y="729"/>
      <point x="189" y="776"/>
      <point x="105" y="776" type="curve" smooth="yes"/>
      <point x="70" y="776"/>
      <point x="43" y="770"/>
      <point x="28" y="764" type="curve"/>
      <point x="44" y="690" type="line"/>
      <point x="56" y="695"/>
      <point x="70" y="698"/>
      <point x="88" y="698" type="curve" smooth="yes"/>
      <point x="133" y="698"/>
      <point x="153" y="684"/>
      <point x="179" y="635" type="curve"/>
      <point x="73" y="599" type="line"/>
      <point x="96" y="536" type="line"/>
      <point x="208" y="574" type="line"/>
      <point x="214" y="559"/>
      <point x="221" y="541"/>
      <point x="228" y="523" type="curve"/>
      <point x="144" y="365"/>
      <point x="57" y="156"/>
    </contour>
  </outline>
</glyph>
